%TF.GenerationSoftware,KiCad,Pcbnew,9.0.5*%
%TF.CreationDate,2026-02-25T17:52:12-08:00*%
%TF.ProjectId,kvm,6b766d2e-6b69-4636-9164-5f7063625858,rev?*%
%TF.SameCoordinates,Original*%
%TF.FileFunction,Soldermask,Top*%
%TF.FilePolarity,Negative*%
%FSLAX46Y46*%
G04 Gerber Fmt 4.6, Leading zero omitted, Abs format (unit mm)*
G04 Created by KiCad (PCBNEW 9.0.5) date 2026-02-25 17:52:12*
%MOMM*%
%LPD*%
G01*
G04 APERTURE LIST*
G04 Aperture macros list*
%AMRoundRect*
0 Rectangle with rounded corners*
0 $1 Rounding radius*
0 $2 $3 $4 $5 $6 $7 $8 $9 X,Y pos of 4 corners*
0 Add a 4 corners polygon primitive as box body*
4,1,4,$2,$3,$4,$5,$6,$7,$8,$9,$2,$3,0*
0 Add four circle primitives for the rounded corners*
1,1,$1+$1,$2,$3*
1,1,$1+$1,$4,$5*
1,1,$1+$1,$6,$7*
1,1,$1+$1,$8,$9*
0 Add four rect primitives between the rounded corners*
20,1,$1+$1,$2,$3,$4,$5,0*
20,1,$1+$1,$4,$5,$6,$7,0*
20,1,$1+$1,$6,$7,$8,$9,0*
20,1,$1+$1,$8,$9,$2,$3,0*%
G04 Aperture macros list end*
%ADD10RoundRect,0.250000X-0.475000X0.337500X-0.475000X-0.337500X0.475000X-0.337500X0.475000X0.337500X0*%
%ADD11RoundRect,0.250000X0.450000X-0.350000X0.450000X0.350000X-0.450000X0.350000X-0.450000X-0.350000X0*%
%ADD12C,1.000000*%
%ADD13RoundRect,0.250000X-0.450000X0.350000X-0.450000X-0.350000X0.450000X-0.350000X0.450000X0.350000X0*%
%ADD14RoundRect,0.250000X-0.337500X-0.475000X0.337500X-0.475000X0.337500X0.475000X-0.337500X0.475000X0*%
%ADD15RoundRect,0.250000X0.337500X0.475000X-0.337500X0.475000X-0.337500X-0.475000X0.337500X-0.475000X0*%
%ADD16RoundRect,0.250000X-0.350000X-0.450000X0.350000X-0.450000X0.350000X0.450000X-0.350000X0.450000X0*%
%ADD17C,2.200000*%
%ADD18R,1.600000X1.600000*%
%ADD19C,1.600000*%
%ADD20C,3.000000*%
%ADD21RoundRect,0.150000X0.150000X-0.825000X0.150000X0.825000X-0.150000X0.825000X-0.150000X-0.825000X0*%
%ADD22RoundRect,0.250000X-0.400000X-0.450000X0.400000X-0.450000X0.400000X0.450000X-0.400000X0.450000X0*%
%ADD23RoundRect,0.250000X0.450000X-0.325000X0.450000X0.325000X-0.450000X0.325000X-0.450000X-0.325000X0*%
%ADD24R,2.000000X2.000000*%
%ADD25C,2.000000*%
%ADD26RoundRect,0.150000X-0.150000X0.825000X-0.150000X-0.825000X0.150000X-0.825000X0.150000X0.825000X0*%
%ADD27RoundRect,0.152400X1.063600X0.609600X-1.063600X0.609600X-1.063600X-0.609600X1.063600X-0.609600X0*%
%ADD28C,1.524000*%
%ADD29RoundRect,0.152400X-1.063600X-0.609600X1.063600X-0.609600X1.063600X0.609600X-1.063600X0.609600X0*%
%ADD30R,1.700000X1.700000*%
%ADD31C,1.700000*%
%ADD32RoundRect,0.075000X0.650000X0.075000X-0.650000X0.075000X-0.650000X-0.075000X0.650000X-0.075000X0*%
G04 APERTURE END LIST*
D10*
%TO.C,C8*%
X126210000Y-66617500D03*
X126210000Y-64542500D03*
%TD*%
%TO.C,C7*%
X128410000Y-66637500D03*
X128410000Y-64562500D03*
%TD*%
D11*
%TO.C,R5*%
X122710000Y-66440000D03*
X122710000Y-64440000D03*
%TD*%
D12*
%TO.C,TP14*%
X117650000Y-45120000D03*
%TD*%
%TO.C,TP7*%
X114950000Y-62075000D03*
%TD*%
%TO.C,TP6*%
X146310000Y-66500000D03*
%TD*%
%TO.C,TP1*%
X130110000Y-54280000D03*
%TD*%
D13*
%TO.C,R2*%
X127645000Y-55340000D03*
X127645000Y-57340000D03*
%TD*%
D14*
%TO.C,C1*%
X130452500Y-50580000D03*
X132527500Y-50580000D03*
%TD*%
D13*
%TO.C,R1*%
X125595000Y-55340000D03*
X125595000Y-57340000D03*
%TD*%
D14*
%TO.C,C2*%
X130450000Y-46000000D03*
X132525000Y-46000000D03*
%TD*%
D15*
%TO.C,C5*%
X148120000Y-76765000D03*
X146045000Y-76765000D03*
%TD*%
D16*
%TO.C,R4*%
X127430000Y-73140000D03*
X129430000Y-73140000D03*
%TD*%
D17*
%TO.C,REF\u002A\u002A*%
X163640000Y-34570000D03*
%TD*%
D18*
%TO.C,USB2*%
X148220000Y-81715000D03*
D19*
X150720000Y-81715000D03*
X152720000Y-81715000D03*
X155220000Y-81715000D03*
D20*
X145150000Y-84425000D03*
X158290000Y-84425000D03*
%TD*%
D13*
%TO.C,R6*%
X130820000Y-57440000D03*
X130820000Y-59440000D03*
%TD*%
D21*
%TO.C,U5*%
X111550000Y-72540000D03*
X112820000Y-72540000D03*
X114090000Y-72540000D03*
X115360000Y-72540000D03*
X115360000Y-67590000D03*
X114090000Y-67590000D03*
X112820000Y-67590000D03*
X111550000Y-67590000D03*
%TD*%
%TO.C,U4*%
X150035000Y-72530000D03*
X151305000Y-72530000D03*
X152575000Y-72530000D03*
X153845000Y-72530000D03*
X153845000Y-67580000D03*
X152575000Y-67580000D03*
X151305000Y-67580000D03*
X150035000Y-67580000D03*
%TD*%
D17*
%TO.C,REF\u002A\u002A*%
X101410000Y-34570000D03*
%TD*%
D14*
%TO.C,C3*%
X135782500Y-78025000D03*
X137857500Y-78025000D03*
%TD*%
D22*
%TO.C,D1*%
X130525000Y-48300000D03*
X133425000Y-48300000D03*
%TD*%
D23*
%TO.C,FB2*%
X148115000Y-74680000D03*
X148115000Y-72630000D03*
%TD*%
D17*
%TO.C,REF\u002A\u002A*%
X101410000Y-90000000D03*
%TD*%
D14*
%TO.C,C6*%
X135782500Y-75815000D03*
X137857500Y-75815000D03*
%TD*%
D24*
%TO.C,BZ1*%
X111220000Y-53380000D03*
D25*
X118820000Y-53380000D03*
%TD*%
D15*
%TO.C,C10*%
X148120000Y-78915000D03*
X146045000Y-78915000D03*
%TD*%
D20*
%TO.C,USB3*%
X119650000Y-84425000D03*
X106510000Y-84425000D03*
D19*
X116580000Y-81715000D03*
X114080000Y-81715000D03*
X112080000Y-81715000D03*
D18*
X109580000Y-81715000D03*
%TD*%
D26*
%TO.C,U6*%
X128515000Y-46565000D03*
X127245000Y-46565000D03*
X125975000Y-46565000D03*
X124705000Y-46565000D03*
X124705000Y-51515000D03*
X125975000Y-51515000D03*
X127245000Y-51515000D03*
X128515000Y-51515000D03*
%TD*%
D15*
%TO.C,C4*%
X109580000Y-78777500D03*
X107505000Y-78777500D03*
%TD*%
D23*
%TO.C,FB1*%
X109575000Y-74590000D03*
X109575000Y-72540000D03*
%TD*%
D26*
%TO.C,U2*%
X133450000Y-76090000D03*
X132180000Y-76090000D03*
X130910000Y-76090000D03*
X129640000Y-76090000D03*
X129640000Y-81040000D03*
X130910000Y-81040000D03*
X132180000Y-81040000D03*
X133450000Y-81040000D03*
%TD*%
D27*
%TO.C,M1*%
X139215000Y-40320000D03*
D28*
X140050000Y-40320000D03*
D27*
X139215000Y-42860000D03*
D28*
X140050000Y-42860000D03*
D27*
X139215000Y-45400000D03*
D28*
X140050000Y-45400000D03*
D27*
X139215000Y-47940000D03*
D28*
X140050000Y-47940000D03*
D27*
X139215000Y-50480000D03*
D28*
X140050000Y-50480000D03*
D27*
X139215000Y-53020000D03*
D28*
X140050000Y-53020000D03*
D27*
X139215000Y-55560000D03*
D28*
X140050000Y-55560000D03*
X155290000Y-55560000D03*
D29*
X156125000Y-55560000D03*
D28*
X155290000Y-53020000D03*
D29*
X156125000Y-53020000D03*
D28*
X155290000Y-50480000D03*
D29*
X156125000Y-50480000D03*
D28*
X155290000Y-47940000D03*
D29*
X156125000Y-47940000D03*
D28*
X155290000Y-45400000D03*
D29*
X156125000Y-45400000D03*
D28*
X155290000Y-42860000D03*
D29*
X156125000Y-42860000D03*
D28*
X155290000Y-40320000D03*
D29*
X156125000Y-40320000D03*
%TD*%
D15*
%TO.C,C9*%
X109580000Y-76452500D03*
X107505000Y-76452500D03*
%TD*%
D16*
%TO.C,R3*%
X131370000Y-73140000D03*
X133370000Y-73140000D03*
%TD*%
D30*
%TO.C,J1*%
X163440000Y-42870000D03*
D31*
X163440000Y-45410000D03*
X163440000Y-47950000D03*
X163440000Y-50490000D03*
X163440000Y-53030000D03*
X163440000Y-55570000D03*
%TD*%
D18*
%TO.C,USB1*%
X130110000Y-43150000D03*
D19*
X127610000Y-43150000D03*
X125610000Y-43150000D03*
X123110000Y-43150000D03*
D20*
X133180000Y-40440000D03*
X120040000Y-40440000D03*
%TD*%
D32*
%TO.C,U1*%
X128769859Y-62752612D03*
X128769859Y-62252612D03*
X128769859Y-61752612D03*
X128769859Y-61252612D03*
X128769859Y-60752612D03*
X124369859Y-60752612D03*
X124369859Y-61252612D03*
X124369859Y-61752612D03*
X124369859Y-62252612D03*
X124369859Y-62752612D03*
%TD*%
D17*
%TO.C,REF\u002A\u002A*%
X163640000Y-90000000D03*
%TD*%
M02*
