M48
; DRILL file {KiCad 9.0.5} date 2026-02-25T17:52:14-0800
; FORMAT={-:-/ absolute / inch / decimal}
; #@! TF.CreationDate,2026-02-25T17:52:14-08:00
; #@! TF.GenerationSoftware,Kicad,Pcbnew,9.0.5
; #@! TF.FileFunction,Plated,1,2,PTH
FMAT,2
INCH
; #@! TA.AperFunction,Plated,PTH,ViaDrill
T1C0.0118
; #@! TA.AperFunction,Plated,PTH,ComponentDrill
T2C0.0350
; #@! TA.AperFunction,Plated,PTH,ComponentDrill
T3C0.0362
; #@! TA.AperFunction,Plated,PTH,ComponentDrill
T4C0.0394
; #@! TA.AperFunction,Plated,PTH,ComponentDrill
T5C0.0906
%
G90
G05
T1
X4.174Y-3.0102
X4.1744Y-3.1024
X4.2327Y-2.9378
X4.2386Y-3.2169
X4.2657Y-3.3957
X4.3016Y-3.322
X4.5415Y-2.7624
X4.5415Y-2.9311
X4.5709Y-2.5768
X4.5797Y-2.4439
X4.6091Y-3.3224
X4.6191Y-2.4439
X4.6191Y-2.5551
X4.6191Y-2.6014
X4.6406Y-3.3961
X4.6673Y-3.2169
X4.7079Y-2.5634
X4.7264Y-2.501
X4.7549Y-2.5157
X4.7618Y-1.685
X4.7667Y-1.4862
X4.8199Y-1.5906
X4.8465Y-2.4124
X4.8634Y-2.0287
X4.8665Y-1.8303
X4.9Y-2.6193
X4.9102Y-1.928
X4.9213Y-2.1083
X4.9447Y-2.3146
X4.9528Y-2.8791
X4.9947Y-2.3415
X5.0116Y-2.3923
X5.0124Y-2.4588
X5.0132Y-2.4273
X5.0248Y-2.3114
X5.035Y-2.1063
X5.0701Y-2.348
X5.1204Y-2.445
X5.1291Y-2.5472
X5.1295Y-2.6173
X5.1543Y-3.1173
X5.1543Y-3.2724
X5.1565Y-1.5925
X5.1919Y-1.9026
X5.2106Y-1.5098
X5.2116Y-1.6722
X5.2185Y-2.5433
X5.2411Y-2.185
X5.2481Y-2.5669
X5.25Y-2.4616
X5.274Y-1.811
X5.2756Y-1.9911
X5.2833Y-2.1148
X5.2996Y-2.6083
X5.3054Y-2.4366
X5.3073Y-2.1447
X5.3102Y-1.9016
X5.3118Y-2.8795
X5.3394Y-2.7268
X5.35Y-2.4579
X5.3839Y-1.4705
X5.3917Y-2.4063
X5.3921Y-2.3398
X5.393Y-2.7407
X5.3934Y-2.7919
X5.4996Y-2.9854
X5.4996Y-3.0724
X5.5Y-2.4846
X5.5Y-2.589
X5.5508Y-2.4846
X5.5508Y-2.5894
X5.6024Y-2.9831
X5.6878Y-3.022
X5.6878Y-3.1075
X5.6965Y-2.6008
X5.75Y-2.9417
X5.7602Y-3.2177
X5.7886Y-3.3961
X5.7902Y-2.6689
X5.8287Y-3.3244
X6.0406Y-1.6866
X6.0567Y-2.9291
X6.0569Y-2.5831
X6.0569Y-2.7604
X6.1299Y-3.324
X6.161Y-3.3988
X6.1906Y-3.2232
X6.2283Y-1.6878
X6.3331Y-1.6866
T2
X5.5138Y-1.5874
X5.5138Y-1.6874
X5.5138Y-1.7874
X5.5138Y-1.8874
X5.5138Y-1.9874
X5.5138Y-2.0874
X5.5138Y-2.1874
X6.1138Y-1.5874
X6.1138Y-1.6874
X6.1138Y-1.7874
X6.1138Y-1.8874
X6.1138Y-1.9874
X6.1138Y-2.0874
X6.1138Y-2.1874
T3
X4.3142Y-3.2171
X4.4126Y-3.2171
X4.4913Y-3.2171
X4.5898Y-3.2171
X4.8469Y-1.6988
X4.9453Y-1.6988
X5.024Y-1.6988
X5.1224Y-1.6988
X5.8354Y-3.2171
X5.9339Y-3.2171
X6.0126Y-3.2171
X6.111Y-3.2171
T4
X4.3787Y-2.1016
X4.678Y-2.1016
X6.4346Y-1.6878
X6.4346Y-1.7878
X6.4346Y-1.8878
X6.4346Y-1.9878
X6.4346Y-2.0878
X6.4346Y-2.1878
T5
X4.1933Y-3.3238
X4.7106Y-3.3238
X4.726Y-1.5921
X5.2433Y-1.5921
X5.7146Y-3.3238
X6.2319Y-3.3238
M30
