%TF.GenerationSoftware,KiCad,Pcbnew,9.0.5*%
%TF.CreationDate,2026-02-25T17:52:12-08:00*%
%TF.ProjectId,kvm,6b766d2e-6b69-4636-9164-5f7063625858,rev?*%
%TF.SameCoordinates,Original*%
%TF.FileFunction,Legend,Top*%
%TF.FilePolarity,Positive*%
%FSLAX46Y46*%
G04 Gerber Fmt 4.6, Leading zero omitted, Abs format (unit mm)*
G04 Created by KiCad (PCBNEW 9.0.5) date 2026-02-25 17:52:12*
%MOMM*%
%LPD*%
G01*
G04 APERTURE LIST*
%ADD10C,0.300000*%
%ADD11C,0.150000*%
%ADD12C,0.101600*%
%ADD13C,0.120000*%
%ADD14C,0.127000*%
%ADD15C,0.100000*%
G04 APERTURE END LIST*
D10*
X128934510Y-89330828D02*
X128934510Y-87830828D01*
X129791653Y-89330828D02*
X129148796Y-88473685D01*
X129791653Y-87830828D02*
X128934510Y-88687971D01*
X130220225Y-87830828D02*
X130720225Y-89330828D01*
X130720225Y-89330828D02*
X131220225Y-87830828D01*
X131720224Y-89330828D02*
X131720224Y-87830828D01*
X131720224Y-87830828D02*
X132220224Y-88902257D01*
X132220224Y-88902257D02*
X132720224Y-87830828D01*
X132720224Y-87830828D02*
X132720224Y-89330828D01*
X135363082Y-89330828D02*
X134505939Y-89330828D01*
X134934510Y-89330828D02*
X134934510Y-87830828D01*
X134934510Y-87830828D02*
X134791653Y-88045114D01*
X134791653Y-88045114D02*
X134648796Y-88187971D01*
X134648796Y-88187971D02*
X134505939Y-88259400D01*
D11*
X126559580Y-68609166D02*
X126607200Y-68656785D01*
X126607200Y-68656785D02*
X126654819Y-68799642D01*
X126654819Y-68799642D02*
X126654819Y-68894880D01*
X126654819Y-68894880D02*
X126607200Y-69037737D01*
X126607200Y-69037737D02*
X126511961Y-69132975D01*
X126511961Y-69132975D02*
X126416723Y-69180594D01*
X126416723Y-69180594D02*
X126226247Y-69228213D01*
X126226247Y-69228213D02*
X126083390Y-69228213D01*
X126083390Y-69228213D02*
X125892914Y-69180594D01*
X125892914Y-69180594D02*
X125797676Y-69132975D01*
X125797676Y-69132975D02*
X125702438Y-69037737D01*
X125702438Y-69037737D02*
X125654819Y-68894880D01*
X125654819Y-68894880D02*
X125654819Y-68799642D01*
X125654819Y-68799642D02*
X125702438Y-68656785D01*
X125702438Y-68656785D02*
X125750057Y-68609166D01*
X126083390Y-68037737D02*
X126035771Y-68132975D01*
X126035771Y-68132975D02*
X125988152Y-68180594D01*
X125988152Y-68180594D02*
X125892914Y-68228213D01*
X125892914Y-68228213D02*
X125845295Y-68228213D01*
X125845295Y-68228213D02*
X125750057Y-68180594D01*
X125750057Y-68180594D02*
X125702438Y-68132975D01*
X125702438Y-68132975D02*
X125654819Y-68037737D01*
X125654819Y-68037737D02*
X125654819Y-67847261D01*
X125654819Y-67847261D02*
X125702438Y-67752023D01*
X125702438Y-67752023D02*
X125750057Y-67704404D01*
X125750057Y-67704404D02*
X125845295Y-67656785D01*
X125845295Y-67656785D02*
X125892914Y-67656785D01*
X125892914Y-67656785D02*
X125988152Y-67704404D01*
X125988152Y-67704404D02*
X126035771Y-67752023D01*
X126035771Y-67752023D02*
X126083390Y-67847261D01*
X126083390Y-67847261D02*
X126083390Y-68037737D01*
X126083390Y-68037737D02*
X126131009Y-68132975D01*
X126131009Y-68132975D02*
X126178628Y-68180594D01*
X126178628Y-68180594D02*
X126273866Y-68228213D01*
X126273866Y-68228213D02*
X126464342Y-68228213D01*
X126464342Y-68228213D02*
X126559580Y-68180594D01*
X126559580Y-68180594D02*
X126607200Y-68132975D01*
X126607200Y-68132975D02*
X126654819Y-68037737D01*
X126654819Y-68037737D02*
X126654819Y-67847261D01*
X126654819Y-67847261D02*
X126607200Y-67752023D01*
X126607200Y-67752023D02*
X126559580Y-67704404D01*
X126559580Y-67704404D02*
X126464342Y-67656785D01*
X126464342Y-67656785D02*
X126273866Y-67656785D01*
X126273866Y-67656785D02*
X126178628Y-67704404D01*
X126178628Y-67704404D02*
X126131009Y-67752023D01*
X126131009Y-67752023D02*
X126083390Y-67847261D01*
X128769580Y-68599166D02*
X128817200Y-68646785D01*
X128817200Y-68646785D02*
X128864819Y-68789642D01*
X128864819Y-68789642D02*
X128864819Y-68884880D01*
X128864819Y-68884880D02*
X128817200Y-69027737D01*
X128817200Y-69027737D02*
X128721961Y-69122975D01*
X128721961Y-69122975D02*
X128626723Y-69170594D01*
X128626723Y-69170594D02*
X128436247Y-69218213D01*
X128436247Y-69218213D02*
X128293390Y-69218213D01*
X128293390Y-69218213D02*
X128102914Y-69170594D01*
X128102914Y-69170594D02*
X128007676Y-69122975D01*
X128007676Y-69122975D02*
X127912438Y-69027737D01*
X127912438Y-69027737D02*
X127864819Y-68884880D01*
X127864819Y-68884880D02*
X127864819Y-68789642D01*
X127864819Y-68789642D02*
X127912438Y-68646785D01*
X127912438Y-68646785D02*
X127960057Y-68599166D01*
X127864819Y-68265832D02*
X127864819Y-67599166D01*
X127864819Y-67599166D02*
X128864819Y-68027737D01*
X121519819Y-66966666D02*
X121043628Y-67299999D01*
X121519819Y-67538094D02*
X120519819Y-67538094D01*
X120519819Y-67538094D02*
X120519819Y-67157142D01*
X120519819Y-67157142D02*
X120567438Y-67061904D01*
X120567438Y-67061904D02*
X120615057Y-67014285D01*
X120615057Y-67014285D02*
X120710295Y-66966666D01*
X120710295Y-66966666D02*
X120853152Y-66966666D01*
X120853152Y-66966666D02*
X120948390Y-67014285D01*
X120948390Y-67014285D02*
X120996009Y-67061904D01*
X120996009Y-67061904D02*
X121043628Y-67157142D01*
X121043628Y-67157142D02*
X121043628Y-67538094D01*
X120519819Y-66061904D02*
X120519819Y-66538094D01*
X120519819Y-66538094D02*
X120996009Y-66585713D01*
X120996009Y-66585713D02*
X120948390Y-66538094D01*
X120948390Y-66538094D02*
X120900771Y-66442856D01*
X120900771Y-66442856D02*
X120900771Y-66204761D01*
X120900771Y-66204761D02*
X120948390Y-66109523D01*
X120948390Y-66109523D02*
X120996009Y-66061904D01*
X120996009Y-66061904D02*
X121091247Y-66014285D01*
X121091247Y-66014285D02*
X121329342Y-66014285D01*
X121329342Y-66014285D02*
X121424580Y-66061904D01*
X121424580Y-66061904D02*
X121472200Y-66109523D01*
X121472200Y-66109523D02*
X121519819Y-66204761D01*
X121519819Y-66204761D02*
X121519819Y-66442856D01*
X121519819Y-66442856D02*
X121472200Y-66538094D01*
X121472200Y-66538094D02*
X121424580Y-66585713D01*
X114551905Y-42804819D02*
X115123333Y-42804819D01*
X114837619Y-43804819D02*
X114837619Y-42804819D01*
X115456667Y-43804819D02*
X115456667Y-42804819D01*
X115456667Y-42804819D02*
X115837619Y-42804819D01*
X115837619Y-42804819D02*
X115932857Y-42852438D01*
X115932857Y-42852438D02*
X115980476Y-42900057D01*
X115980476Y-42900057D02*
X116028095Y-42995295D01*
X116028095Y-42995295D02*
X116028095Y-43138152D01*
X116028095Y-43138152D02*
X115980476Y-43233390D01*
X115980476Y-43233390D02*
X115932857Y-43281009D01*
X115932857Y-43281009D02*
X115837619Y-43328628D01*
X115837619Y-43328628D02*
X115456667Y-43328628D01*
X116980476Y-43804819D02*
X116409048Y-43804819D01*
X116694762Y-43804819D02*
X116694762Y-42804819D01*
X116694762Y-42804819D02*
X116599524Y-42947676D01*
X116599524Y-42947676D02*
X116504286Y-43042914D01*
X116504286Y-43042914D02*
X116409048Y-43090533D01*
X117837619Y-43138152D02*
X117837619Y-43804819D01*
X117599524Y-42757200D02*
X117361429Y-43471485D01*
X117361429Y-43471485D02*
X117980476Y-43471485D01*
X111148095Y-60884819D02*
X111719523Y-60884819D01*
X111433809Y-61884819D02*
X111433809Y-60884819D01*
X112052857Y-61884819D02*
X112052857Y-60884819D01*
X112052857Y-60884819D02*
X112433809Y-60884819D01*
X112433809Y-60884819D02*
X112529047Y-60932438D01*
X112529047Y-60932438D02*
X112576666Y-60980057D01*
X112576666Y-60980057D02*
X112624285Y-61075295D01*
X112624285Y-61075295D02*
X112624285Y-61218152D01*
X112624285Y-61218152D02*
X112576666Y-61313390D01*
X112576666Y-61313390D02*
X112529047Y-61361009D01*
X112529047Y-61361009D02*
X112433809Y-61408628D01*
X112433809Y-61408628D02*
X112052857Y-61408628D01*
X112957619Y-60884819D02*
X113624285Y-60884819D01*
X113624285Y-60884819D02*
X113195714Y-61884819D01*
X142078095Y-66534819D02*
X142649523Y-66534819D01*
X142363809Y-67534819D02*
X142363809Y-66534819D01*
X142982857Y-67534819D02*
X142982857Y-66534819D01*
X142982857Y-66534819D02*
X143363809Y-66534819D01*
X143363809Y-66534819D02*
X143459047Y-66582438D01*
X143459047Y-66582438D02*
X143506666Y-66630057D01*
X143506666Y-66630057D02*
X143554285Y-66725295D01*
X143554285Y-66725295D02*
X143554285Y-66868152D01*
X143554285Y-66868152D02*
X143506666Y-66963390D01*
X143506666Y-66963390D02*
X143459047Y-67011009D01*
X143459047Y-67011009D02*
X143363809Y-67058628D01*
X143363809Y-67058628D02*
X142982857Y-67058628D01*
X144411428Y-66534819D02*
X144220952Y-66534819D01*
X144220952Y-66534819D02*
X144125714Y-66582438D01*
X144125714Y-66582438D02*
X144078095Y-66630057D01*
X144078095Y-66630057D02*
X143982857Y-66772914D01*
X143982857Y-66772914D02*
X143935238Y-66963390D01*
X143935238Y-66963390D02*
X143935238Y-67344342D01*
X143935238Y-67344342D02*
X143982857Y-67439580D01*
X143982857Y-67439580D02*
X144030476Y-67487200D01*
X144030476Y-67487200D02*
X144125714Y-67534819D01*
X144125714Y-67534819D02*
X144316190Y-67534819D01*
X144316190Y-67534819D02*
X144411428Y-67487200D01*
X144411428Y-67487200D02*
X144459047Y-67439580D01*
X144459047Y-67439580D02*
X144506666Y-67344342D01*
X144506666Y-67344342D02*
X144506666Y-67106247D01*
X144506666Y-67106247D02*
X144459047Y-67011009D01*
X144459047Y-67011009D02*
X144411428Y-66963390D01*
X144411428Y-66963390D02*
X144316190Y-66915771D01*
X144316190Y-66915771D02*
X144125714Y-66915771D01*
X144125714Y-66915771D02*
X144030476Y-66963390D01*
X144030476Y-66963390D02*
X143982857Y-67011009D01*
X143982857Y-67011009D02*
X143935238Y-67106247D01*
X131148095Y-52444819D02*
X131719523Y-52444819D01*
X131433809Y-53444819D02*
X131433809Y-52444819D01*
X132052857Y-53444819D02*
X132052857Y-52444819D01*
X132052857Y-52444819D02*
X132433809Y-52444819D01*
X132433809Y-52444819D02*
X132529047Y-52492438D01*
X132529047Y-52492438D02*
X132576666Y-52540057D01*
X132576666Y-52540057D02*
X132624285Y-52635295D01*
X132624285Y-52635295D02*
X132624285Y-52778152D01*
X132624285Y-52778152D02*
X132576666Y-52873390D01*
X132576666Y-52873390D02*
X132529047Y-52921009D01*
X132529047Y-52921009D02*
X132433809Y-52968628D01*
X132433809Y-52968628D02*
X132052857Y-52968628D01*
X133576666Y-53444819D02*
X133005238Y-53444819D01*
X133290952Y-53444819D02*
X133290952Y-52444819D01*
X133290952Y-52444819D02*
X133195714Y-52587676D01*
X133195714Y-52587676D02*
X133100476Y-52682914D01*
X133100476Y-52682914D02*
X133005238Y-52730533D01*
X129704819Y-57286666D02*
X129228628Y-57619999D01*
X129704819Y-57858094D02*
X128704819Y-57858094D01*
X128704819Y-57858094D02*
X128704819Y-57477142D01*
X128704819Y-57477142D02*
X128752438Y-57381904D01*
X128752438Y-57381904D02*
X128800057Y-57334285D01*
X128800057Y-57334285D02*
X128895295Y-57286666D01*
X128895295Y-57286666D02*
X129038152Y-57286666D01*
X129038152Y-57286666D02*
X129133390Y-57334285D01*
X129133390Y-57334285D02*
X129181009Y-57381904D01*
X129181009Y-57381904D02*
X129228628Y-57477142D01*
X129228628Y-57477142D02*
X129228628Y-57858094D01*
X128800057Y-56905713D02*
X128752438Y-56858094D01*
X128752438Y-56858094D02*
X128704819Y-56762856D01*
X128704819Y-56762856D02*
X128704819Y-56524761D01*
X128704819Y-56524761D02*
X128752438Y-56429523D01*
X128752438Y-56429523D02*
X128800057Y-56381904D01*
X128800057Y-56381904D02*
X128895295Y-56334285D01*
X128895295Y-56334285D02*
X128990533Y-56334285D01*
X128990533Y-56334285D02*
X129133390Y-56381904D01*
X129133390Y-56381904D02*
X129704819Y-56953332D01*
X129704819Y-56953332D02*
X129704819Y-56334285D01*
X135339580Y-50516666D02*
X135387200Y-50564285D01*
X135387200Y-50564285D02*
X135434819Y-50707142D01*
X135434819Y-50707142D02*
X135434819Y-50802380D01*
X135434819Y-50802380D02*
X135387200Y-50945237D01*
X135387200Y-50945237D02*
X135291961Y-51040475D01*
X135291961Y-51040475D02*
X135196723Y-51088094D01*
X135196723Y-51088094D02*
X135006247Y-51135713D01*
X135006247Y-51135713D02*
X134863390Y-51135713D01*
X134863390Y-51135713D02*
X134672914Y-51088094D01*
X134672914Y-51088094D02*
X134577676Y-51040475D01*
X134577676Y-51040475D02*
X134482438Y-50945237D01*
X134482438Y-50945237D02*
X134434819Y-50802380D01*
X134434819Y-50802380D02*
X134434819Y-50707142D01*
X134434819Y-50707142D02*
X134482438Y-50564285D01*
X134482438Y-50564285D02*
X134530057Y-50516666D01*
X135434819Y-49564285D02*
X135434819Y-50135713D01*
X135434819Y-49849999D02*
X134434819Y-49849999D01*
X134434819Y-49849999D02*
X134577676Y-49945237D01*
X134577676Y-49945237D02*
X134672914Y-50040475D01*
X134672914Y-50040475D02*
X134720533Y-50135713D01*
X124304819Y-56466666D02*
X123828628Y-56799999D01*
X124304819Y-57038094D02*
X123304819Y-57038094D01*
X123304819Y-57038094D02*
X123304819Y-56657142D01*
X123304819Y-56657142D02*
X123352438Y-56561904D01*
X123352438Y-56561904D02*
X123400057Y-56514285D01*
X123400057Y-56514285D02*
X123495295Y-56466666D01*
X123495295Y-56466666D02*
X123638152Y-56466666D01*
X123638152Y-56466666D02*
X123733390Y-56514285D01*
X123733390Y-56514285D02*
X123781009Y-56561904D01*
X123781009Y-56561904D02*
X123828628Y-56657142D01*
X123828628Y-56657142D02*
X123828628Y-57038094D01*
X124304819Y-55514285D02*
X124304819Y-56085713D01*
X124304819Y-55799999D02*
X123304819Y-55799999D01*
X123304819Y-55799999D02*
X123447676Y-55895237D01*
X123447676Y-55895237D02*
X123542914Y-55990475D01*
X123542914Y-55990475D02*
X123590533Y-56085713D01*
X135334580Y-46166666D02*
X135382200Y-46214285D01*
X135382200Y-46214285D02*
X135429819Y-46357142D01*
X135429819Y-46357142D02*
X135429819Y-46452380D01*
X135429819Y-46452380D02*
X135382200Y-46595237D01*
X135382200Y-46595237D02*
X135286961Y-46690475D01*
X135286961Y-46690475D02*
X135191723Y-46738094D01*
X135191723Y-46738094D02*
X135001247Y-46785713D01*
X135001247Y-46785713D02*
X134858390Y-46785713D01*
X134858390Y-46785713D02*
X134667914Y-46738094D01*
X134667914Y-46738094D02*
X134572676Y-46690475D01*
X134572676Y-46690475D02*
X134477438Y-46595237D01*
X134477438Y-46595237D02*
X134429819Y-46452380D01*
X134429819Y-46452380D02*
X134429819Y-46357142D01*
X134429819Y-46357142D02*
X134477438Y-46214285D01*
X134477438Y-46214285D02*
X134525057Y-46166666D01*
X134525057Y-45785713D02*
X134477438Y-45738094D01*
X134477438Y-45738094D02*
X134429819Y-45642856D01*
X134429819Y-45642856D02*
X134429819Y-45404761D01*
X134429819Y-45404761D02*
X134477438Y-45309523D01*
X134477438Y-45309523D02*
X134525057Y-45261904D01*
X134525057Y-45261904D02*
X134620295Y-45214285D01*
X134620295Y-45214285D02*
X134715533Y-45214285D01*
X134715533Y-45214285D02*
X134858390Y-45261904D01*
X134858390Y-45261904D02*
X135429819Y-45833332D01*
X135429819Y-45833332D02*
X135429819Y-45214285D01*
X150029580Y-76586666D02*
X150077200Y-76634285D01*
X150077200Y-76634285D02*
X150124819Y-76777142D01*
X150124819Y-76777142D02*
X150124819Y-76872380D01*
X150124819Y-76872380D02*
X150077200Y-77015237D01*
X150077200Y-77015237D02*
X149981961Y-77110475D01*
X149981961Y-77110475D02*
X149886723Y-77158094D01*
X149886723Y-77158094D02*
X149696247Y-77205713D01*
X149696247Y-77205713D02*
X149553390Y-77205713D01*
X149553390Y-77205713D02*
X149362914Y-77158094D01*
X149362914Y-77158094D02*
X149267676Y-77110475D01*
X149267676Y-77110475D02*
X149172438Y-77015237D01*
X149172438Y-77015237D02*
X149124819Y-76872380D01*
X149124819Y-76872380D02*
X149124819Y-76777142D01*
X149124819Y-76777142D02*
X149172438Y-76634285D01*
X149172438Y-76634285D02*
X149220057Y-76586666D01*
X149124819Y-75681904D02*
X149124819Y-76158094D01*
X149124819Y-76158094D02*
X149601009Y-76205713D01*
X149601009Y-76205713D02*
X149553390Y-76158094D01*
X149553390Y-76158094D02*
X149505771Y-76062856D01*
X149505771Y-76062856D02*
X149505771Y-75824761D01*
X149505771Y-75824761D02*
X149553390Y-75729523D01*
X149553390Y-75729523D02*
X149601009Y-75681904D01*
X149601009Y-75681904D02*
X149696247Y-75634285D01*
X149696247Y-75634285D02*
X149934342Y-75634285D01*
X149934342Y-75634285D02*
X150029580Y-75681904D01*
X150029580Y-75681904D02*
X150077200Y-75729523D01*
X150077200Y-75729523D02*
X150124819Y-75824761D01*
X150124819Y-75824761D02*
X150124819Y-76062856D01*
X150124819Y-76062856D02*
X150077200Y-76158094D01*
X150077200Y-76158094D02*
X150029580Y-76205713D01*
X128063333Y-71874819D02*
X127730000Y-71398628D01*
X127491905Y-71874819D02*
X127491905Y-70874819D01*
X127491905Y-70874819D02*
X127872857Y-70874819D01*
X127872857Y-70874819D02*
X127968095Y-70922438D01*
X127968095Y-70922438D02*
X128015714Y-70970057D01*
X128015714Y-70970057D02*
X128063333Y-71065295D01*
X128063333Y-71065295D02*
X128063333Y-71208152D01*
X128063333Y-71208152D02*
X128015714Y-71303390D01*
X128015714Y-71303390D02*
X127968095Y-71351009D01*
X127968095Y-71351009D02*
X127872857Y-71398628D01*
X127872857Y-71398628D02*
X127491905Y-71398628D01*
X128920476Y-71208152D02*
X128920476Y-71874819D01*
X128682381Y-70827200D02*
X128444286Y-71541485D01*
X128444286Y-71541485D02*
X129063333Y-71541485D01*
X150036905Y-84004819D02*
X150036905Y-84814342D01*
X150036905Y-84814342D02*
X150084524Y-84909580D01*
X150084524Y-84909580D02*
X150132143Y-84957200D01*
X150132143Y-84957200D02*
X150227381Y-85004819D01*
X150227381Y-85004819D02*
X150417857Y-85004819D01*
X150417857Y-85004819D02*
X150513095Y-84957200D01*
X150513095Y-84957200D02*
X150560714Y-84909580D01*
X150560714Y-84909580D02*
X150608333Y-84814342D01*
X150608333Y-84814342D02*
X150608333Y-84004819D01*
X151036905Y-84957200D02*
X151179762Y-85004819D01*
X151179762Y-85004819D02*
X151417857Y-85004819D01*
X151417857Y-85004819D02*
X151513095Y-84957200D01*
X151513095Y-84957200D02*
X151560714Y-84909580D01*
X151560714Y-84909580D02*
X151608333Y-84814342D01*
X151608333Y-84814342D02*
X151608333Y-84719104D01*
X151608333Y-84719104D02*
X151560714Y-84623866D01*
X151560714Y-84623866D02*
X151513095Y-84576247D01*
X151513095Y-84576247D02*
X151417857Y-84528628D01*
X151417857Y-84528628D02*
X151227381Y-84481009D01*
X151227381Y-84481009D02*
X151132143Y-84433390D01*
X151132143Y-84433390D02*
X151084524Y-84385771D01*
X151084524Y-84385771D02*
X151036905Y-84290533D01*
X151036905Y-84290533D02*
X151036905Y-84195295D01*
X151036905Y-84195295D02*
X151084524Y-84100057D01*
X151084524Y-84100057D02*
X151132143Y-84052438D01*
X151132143Y-84052438D02*
X151227381Y-84004819D01*
X151227381Y-84004819D02*
X151465476Y-84004819D01*
X151465476Y-84004819D02*
X151608333Y-84052438D01*
X152370238Y-84481009D02*
X152513095Y-84528628D01*
X152513095Y-84528628D02*
X152560714Y-84576247D01*
X152560714Y-84576247D02*
X152608333Y-84671485D01*
X152608333Y-84671485D02*
X152608333Y-84814342D01*
X152608333Y-84814342D02*
X152560714Y-84909580D01*
X152560714Y-84909580D02*
X152513095Y-84957200D01*
X152513095Y-84957200D02*
X152417857Y-85004819D01*
X152417857Y-85004819D02*
X152036905Y-85004819D01*
X152036905Y-85004819D02*
X152036905Y-84004819D01*
X152036905Y-84004819D02*
X152370238Y-84004819D01*
X152370238Y-84004819D02*
X152465476Y-84052438D01*
X152465476Y-84052438D02*
X152513095Y-84100057D01*
X152513095Y-84100057D02*
X152560714Y-84195295D01*
X152560714Y-84195295D02*
X152560714Y-84290533D01*
X152560714Y-84290533D02*
X152513095Y-84385771D01*
X152513095Y-84385771D02*
X152465476Y-84433390D01*
X152465476Y-84433390D02*
X152370238Y-84481009D01*
X152370238Y-84481009D02*
X152036905Y-84481009D01*
X152989286Y-84100057D02*
X153036905Y-84052438D01*
X153036905Y-84052438D02*
X153132143Y-84004819D01*
X153132143Y-84004819D02*
X153370238Y-84004819D01*
X153370238Y-84004819D02*
X153465476Y-84052438D01*
X153465476Y-84052438D02*
X153513095Y-84100057D01*
X153513095Y-84100057D02*
X153560714Y-84195295D01*
X153560714Y-84195295D02*
X153560714Y-84290533D01*
X153560714Y-84290533D02*
X153513095Y-84433390D01*
X153513095Y-84433390D02*
X152941667Y-85004819D01*
X152941667Y-85004819D02*
X153560714Y-85004819D01*
X132979819Y-58991666D02*
X132503628Y-59324999D01*
X132979819Y-59563094D02*
X131979819Y-59563094D01*
X131979819Y-59563094D02*
X131979819Y-59182142D01*
X131979819Y-59182142D02*
X132027438Y-59086904D01*
X132027438Y-59086904D02*
X132075057Y-59039285D01*
X132075057Y-59039285D02*
X132170295Y-58991666D01*
X132170295Y-58991666D02*
X132313152Y-58991666D01*
X132313152Y-58991666D02*
X132408390Y-59039285D01*
X132408390Y-59039285D02*
X132456009Y-59086904D01*
X132456009Y-59086904D02*
X132503628Y-59182142D01*
X132503628Y-59182142D02*
X132503628Y-59563094D01*
X131979819Y-58134523D02*
X131979819Y-58324999D01*
X131979819Y-58324999D02*
X132027438Y-58420237D01*
X132027438Y-58420237D02*
X132075057Y-58467856D01*
X132075057Y-58467856D02*
X132217914Y-58563094D01*
X132217914Y-58563094D02*
X132408390Y-58610713D01*
X132408390Y-58610713D02*
X132789342Y-58610713D01*
X132789342Y-58610713D02*
X132884580Y-58563094D01*
X132884580Y-58563094D02*
X132932200Y-58515475D01*
X132932200Y-58515475D02*
X132979819Y-58420237D01*
X132979819Y-58420237D02*
X132979819Y-58229761D01*
X132979819Y-58229761D02*
X132932200Y-58134523D01*
X132932200Y-58134523D02*
X132884580Y-58086904D01*
X132884580Y-58086904D02*
X132789342Y-58039285D01*
X132789342Y-58039285D02*
X132551247Y-58039285D01*
X132551247Y-58039285D02*
X132456009Y-58086904D01*
X132456009Y-58086904D02*
X132408390Y-58134523D01*
X132408390Y-58134523D02*
X132360771Y-58229761D01*
X132360771Y-58229761D02*
X132360771Y-58420237D01*
X132360771Y-58420237D02*
X132408390Y-58515475D01*
X132408390Y-58515475D02*
X132456009Y-58563094D01*
X132456009Y-58563094D02*
X132551247Y-58610713D01*
X109204819Y-70786904D02*
X110014342Y-70786904D01*
X110014342Y-70786904D02*
X110109580Y-70739285D01*
X110109580Y-70739285D02*
X110157200Y-70691666D01*
X110157200Y-70691666D02*
X110204819Y-70596428D01*
X110204819Y-70596428D02*
X110204819Y-70405952D01*
X110204819Y-70405952D02*
X110157200Y-70310714D01*
X110157200Y-70310714D02*
X110109580Y-70263095D01*
X110109580Y-70263095D02*
X110014342Y-70215476D01*
X110014342Y-70215476D02*
X109204819Y-70215476D01*
X109204819Y-69263095D02*
X109204819Y-69739285D01*
X109204819Y-69739285D02*
X109681009Y-69786904D01*
X109681009Y-69786904D02*
X109633390Y-69739285D01*
X109633390Y-69739285D02*
X109585771Y-69644047D01*
X109585771Y-69644047D02*
X109585771Y-69405952D01*
X109585771Y-69405952D02*
X109633390Y-69310714D01*
X109633390Y-69310714D02*
X109681009Y-69263095D01*
X109681009Y-69263095D02*
X109776247Y-69215476D01*
X109776247Y-69215476D02*
X110014342Y-69215476D01*
X110014342Y-69215476D02*
X110109580Y-69263095D01*
X110109580Y-69263095D02*
X110157200Y-69310714D01*
X110157200Y-69310714D02*
X110204819Y-69405952D01*
X110204819Y-69405952D02*
X110204819Y-69644047D01*
X110204819Y-69644047D02*
X110157200Y-69739285D01*
X110157200Y-69739285D02*
X110109580Y-69786904D01*
X147704819Y-70611904D02*
X148514342Y-70611904D01*
X148514342Y-70611904D02*
X148609580Y-70564285D01*
X148609580Y-70564285D02*
X148657200Y-70516666D01*
X148657200Y-70516666D02*
X148704819Y-70421428D01*
X148704819Y-70421428D02*
X148704819Y-70230952D01*
X148704819Y-70230952D02*
X148657200Y-70135714D01*
X148657200Y-70135714D02*
X148609580Y-70088095D01*
X148609580Y-70088095D02*
X148514342Y-70040476D01*
X148514342Y-70040476D02*
X147704819Y-70040476D01*
X148038152Y-69135714D02*
X148704819Y-69135714D01*
X147657200Y-69373809D02*
X148371485Y-69611904D01*
X148371485Y-69611904D02*
X148371485Y-68992857D01*
X137733333Y-80309580D02*
X137685714Y-80357200D01*
X137685714Y-80357200D02*
X137542857Y-80404819D01*
X137542857Y-80404819D02*
X137447619Y-80404819D01*
X137447619Y-80404819D02*
X137304762Y-80357200D01*
X137304762Y-80357200D02*
X137209524Y-80261961D01*
X137209524Y-80261961D02*
X137161905Y-80166723D01*
X137161905Y-80166723D02*
X137114286Y-79976247D01*
X137114286Y-79976247D02*
X137114286Y-79833390D01*
X137114286Y-79833390D02*
X137161905Y-79642914D01*
X137161905Y-79642914D02*
X137209524Y-79547676D01*
X137209524Y-79547676D02*
X137304762Y-79452438D01*
X137304762Y-79452438D02*
X137447619Y-79404819D01*
X137447619Y-79404819D02*
X137542857Y-79404819D01*
X137542857Y-79404819D02*
X137685714Y-79452438D01*
X137685714Y-79452438D02*
X137733333Y-79500057D01*
X138066667Y-79404819D02*
X138685714Y-79404819D01*
X138685714Y-79404819D02*
X138352381Y-79785771D01*
X138352381Y-79785771D02*
X138495238Y-79785771D01*
X138495238Y-79785771D02*
X138590476Y-79833390D01*
X138590476Y-79833390D02*
X138638095Y-79881009D01*
X138638095Y-79881009D02*
X138685714Y-79976247D01*
X138685714Y-79976247D02*
X138685714Y-80214342D01*
X138685714Y-80214342D02*
X138638095Y-80309580D01*
X138638095Y-80309580D02*
X138590476Y-80357200D01*
X138590476Y-80357200D02*
X138495238Y-80404819D01*
X138495238Y-80404819D02*
X138209524Y-80404819D01*
X138209524Y-80404819D02*
X138114286Y-80357200D01*
X138114286Y-80357200D02*
X138066667Y-80309580D01*
X136304819Y-48878094D02*
X135304819Y-48878094D01*
X135304819Y-48878094D02*
X135304819Y-48639999D01*
X135304819Y-48639999D02*
X135352438Y-48497142D01*
X135352438Y-48497142D02*
X135447676Y-48401904D01*
X135447676Y-48401904D02*
X135542914Y-48354285D01*
X135542914Y-48354285D02*
X135733390Y-48306666D01*
X135733390Y-48306666D02*
X135876247Y-48306666D01*
X135876247Y-48306666D02*
X136066723Y-48354285D01*
X136066723Y-48354285D02*
X136161961Y-48401904D01*
X136161961Y-48401904D02*
X136257200Y-48497142D01*
X136257200Y-48497142D02*
X136304819Y-48639999D01*
X136304819Y-48639999D02*
X136304819Y-48878094D01*
X136304819Y-47354285D02*
X136304819Y-47925713D01*
X136304819Y-47639999D02*
X135304819Y-47639999D01*
X135304819Y-47639999D02*
X135447676Y-47735237D01*
X135447676Y-47735237D02*
X135542914Y-47830475D01*
X135542914Y-47830475D02*
X135590533Y-47925713D01*
X146271009Y-73473333D02*
X146271009Y-73806666D01*
X146794819Y-73806666D02*
X145794819Y-73806666D01*
X145794819Y-73806666D02*
X145794819Y-73330476D01*
X146271009Y-72616190D02*
X146318628Y-72473333D01*
X146318628Y-72473333D02*
X146366247Y-72425714D01*
X146366247Y-72425714D02*
X146461485Y-72378095D01*
X146461485Y-72378095D02*
X146604342Y-72378095D01*
X146604342Y-72378095D02*
X146699580Y-72425714D01*
X146699580Y-72425714D02*
X146747200Y-72473333D01*
X146747200Y-72473333D02*
X146794819Y-72568571D01*
X146794819Y-72568571D02*
X146794819Y-72949523D01*
X146794819Y-72949523D02*
X145794819Y-72949523D01*
X145794819Y-72949523D02*
X145794819Y-72616190D01*
X145794819Y-72616190D02*
X145842438Y-72520952D01*
X145842438Y-72520952D02*
X145890057Y-72473333D01*
X145890057Y-72473333D02*
X145985295Y-72425714D01*
X145985295Y-72425714D02*
X146080533Y-72425714D01*
X146080533Y-72425714D02*
X146175771Y-72473333D01*
X146175771Y-72473333D02*
X146223390Y-72520952D01*
X146223390Y-72520952D02*
X146271009Y-72616190D01*
X146271009Y-72616190D02*
X146271009Y-72949523D01*
X145890057Y-71997142D02*
X145842438Y-71949523D01*
X145842438Y-71949523D02*
X145794819Y-71854285D01*
X145794819Y-71854285D02*
X145794819Y-71616190D01*
X145794819Y-71616190D02*
X145842438Y-71520952D01*
X145842438Y-71520952D02*
X145890057Y-71473333D01*
X145890057Y-71473333D02*
X145985295Y-71425714D01*
X145985295Y-71425714D02*
X146080533Y-71425714D01*
X146080533Y-71425714D02*
X146223390Y-71473333D01*
X146223390Y-71473333D02*
X146794819Y-72044761D01*
X146794819Y-72044761D02*
X146794819Y-71425714D01*
X137773333Y-74339580D02*
X137725714Y-74387200D01*
X137725714Y-74387200D02*
X137582857Y-74434819D01*
X137582857Y-74434819D02*
X137487619Y-74434819D01*
X137487619Y-74434819D02*
X137344762Y-74387200D01*
X137344762Y-74387200D02*
X137249524Y-74291961D01*
X137249524Y-74291961D02*
X137201905Y-74196723D01*
X137201905Y-74196723D02*
X137154286Y-74006247D01*
X137154286Y-74006247D02*
X137154286Y-73863390D01*
X137154286Y-73863390D02*
X137201905Y-73672914D01*
X137201905Y-73672914D02*
X137249524Y-73577676D01*
X137249524Y-73577676D02*
X137344762Y-73482438D01*
X137344762Y-73482438D02*
X137487619Y-73434819D01*
X137487619Y-73434819D02*
X137582857Y-73434819D01*
X137582857Y-73434819D02*
X137725714Y-73482438D01*
X137725714Y-73482438D02*
X137773333Y-73530057D01*
X138630476Y-73434819D02*
X138440000Y-73434819D01*
X138440000Y-73434819D02*
X138344762Y-73482438D01*
X138344762Y-73482438D02*
X138297143Y-73530057D01*
X138297143Y-73530057D02*
X138201905Y-73672914D01*
X138201905Y-73672914D02*
X138154286Y-73863390D01*
X138154286Y-73863390D02*
X138154286Y-74244342D01*
X138154286Y-74244342D02*
X138201905Y-74339580D01*
X138201905Y-74339580D02*
X138249524Y-74387200D01*
X138249524Y-74387200D02*
X138344762Y-74434819D01*
X138344762Y-74434819D02*
X138535238Y-74434819D01*
X138535238Y-74434819D02*
X138630476Y-74387200D01*
X138630476Y-74387200D02*
X138678095Y-74339580D01*
X138678095Y-74339580D02*
X138725714Y-74244342D01*
X138725714Y-74244342D02*
X138725714Y-74006247D01*
X138725714Y-74006247D02*
X138678095Y-73911009D01*
X138678095Y-73911009D02*
X138630476Y-73863390D01*
X138630476Y-73863390D02*
X138535238Y-73815771D01*
X138535238Y-73815771D02*
X138344762Y-73815771D01*
X138344762Y-73815771D02*
X138249524Y-73863390D01*
X138249524Y-73863390D02*
X138201905Y-73911009D01*
X138201905Y-73911009D02*
X138154286Y-74006247D01*
X114369047Y-53331009D02*
X114511904Y-53378628D01*
X114511904Y-53378628D02*
X114559523Y-53426247D01*
X114559523Y-53426247D02*
X114607142Y-53521485D01*
X114607142Y-53521485D02*
X114607142Y-53664342D01*
X114607142Y-53664342D02*
X114559523Y-53759580D01*
X114559523Y-53759580D02*
X114511904Y-53807200D01*
X114511904Y-53807200D02*
X114416666Y-53854819D01*
X114416666Y-53854819D02*
X114035714Y-53854819D01*
X114035714Y-53854819D02*
X114035714Y-52854819D01*
X114035714Y-52854819D02*
X114369047Y-52854819D01*
X114369047Y-52854819D02*
X114464285Y-52902438D01*
X114464285Y-52902438D02*
X114511904Y-52950057D01*
X114511904Y-52950057D02*
X114559523Y-53045295D01*
X114559523Y-53045295D02*
X114559523Y-53140533D01*
X114559523Y-53140533D02*
X114511904Y-53235771D01*
X114511904Y-53235771D02*
X114464285Y-53283390D01*
X114464285Y-53283390D02*
X114369047Y-53331009D01*
X114369047Y-53331009D02*
X114035714Y-53331009D01*
X114940476Y-52854819D02*
X115607142Y-52854819D01*
X115607142Y-52854819D02*
X114940476Y-53854819D01*
X114940476Y-53854819D02*
X115607142Y-53854819D01*
X116511904Y-53854819D02*
X115940476Y-53854819D01*
X116226190Y-53854819D02*
X116226190Y-52854819D01*
X116226190Y-52854819D02*
X116130952Y-52997676D01*
X116130952Y-52997676D02*
X116035714Y-53092914D01*
X116035714Y-53092914D02*
X115940476Y-53140533D01*
X110839048Y-55463866D02*
X111600953Y-55463866D01*
X111220000Y-55844819D02*
X111220000Y-55082914D01*
X150089580Y-79712857D02*
X150137200Y-79760476D01*
X150137200Y-79760476D02*
X150184819Y-79903333D01*
X150184819Y-79903333D02*
X150184819Y-79998571D01*
X150184819Y-79998571D02*
X150137200Y-80141428D01*
X150137200Y-80141428D02*
X150041961Y-80236666D01*
X150041961Y-80236666D02*
X149946723Y-80284285D01*
X149946723Y-80284285D02*
X149756247Y-80331904D01*
X149756247Y-80331904D02*
X149613390Y-80331904D01*
X149613390Y-80331904D02*
X149422914Y-80284285D01*
X149422914Y-80284285D02*
X149327676Y-80236666D01*
X149327676Y-80236666D02*
X149232438Y-80141428D01*
X149232438Y-80141428D02*
X149184819Y-79998571D01*
X149184819Y-79998571D02*
X149184819Y-79903333D01*
X149184819Y-79903333D02*
X149232438Y-79760476D01*
X149232438Y-79760476D02*
X149280057Y-79712857D01*
X150184819Y-78760476D02*
X150184819Y-79331904D01*
X150184819Y-79046190D02*
X149184819Y-79046190D01*
X149184819Y-79046190D02*
X149327676Y-79141428D01*
X149327676Y-79141428D02*
X149422914Y-79236666D01*
X149422914Y-79236666D02*
X149470533Y-79331904D01*
X149184819Y-78141428D02*
X149184819Y-78046190D01*
X149184819Y-78046190D02*
X149232438Y-77950952D01*
X149232438Y-77950952D02*
X149280057Y-77903333D01*
X149280057Y-77903333D02*
X149375295Y-77855714D01*
X149375295Y-77855714D02*
X149565771Y-77808095D01*
X149565771Y-77808095D02*
X149803866Y-77808095D01*
X149803866Y-77808095D02*
X149994342Y-77855714D01*
X149994342Y-77855714D02*
X150089580Y-77903333D01*
X150089580Y-77903333D02*
X150137200Y-77950952D01*
X150137200Y-77950952D02*
X150184819Y-78046190D01*
X150184819Y-78046190D02*
X150184819Y-78141428D01*
X150184819Y-78141428D02*
X150137200Y-78236666D01*
X150137200Y-78236666D02*
X150089580Y-78284285D01*
X150089580Y-78284285D02*
X149994342Y-78331904D01*
X149994342Y-78331904D02*
X149803866Y-78379523D01*
X149803866Y-78379523D02*
X149565771Y-78379523D01*
X149565771Y-78379523D02*
X149375295Y-78331904D01*
X149375295Y-78331904D02*
X149280057Y-78284285D01*
X149280057Y-78284285D02*
X149232438Y-78236666D01*
X149232438Y-78236666D02*
X149184819Y-78141428D01*
X111261905Y-83979819D02*
X111261905Y-84789342D01*
X111261905Y-84789342D02*
X111309524Y-84884580D01*
X111309524Y-84884580D02*
X111357143Y-84932200D01*
X111357143Y-84932200D02*
X111452381Y-84979819D01*
X111452381Y-84979819D02*
X111642857Y-84979819D01*
X111642857Y-84979819D02*
X111738095Y-84932200D01*
X111738095Y-84932200D02*
X111785714Y-84884580D01*
X111785714Y-84884580D02*
X111833333Y-84789342D01*
X111833333Y-84789342D02*
X111833333Y-83979819D01*
X112261905Y-84932200D02*
X112404762Y-84979819D01*
X112404762Y-84979819D02*
X112642857Y-84979819D01*
X112642857Y-84979819D02*
X112738095Y-84932200D01*
X112738095Y-84932200D02*
X112785714Y-84884580D01*
X112785714Y-84884580D02*
X112833333Y-84789342D01*
X112833333Y-84789342D02*
X112833333Y-84694104D01*
X112833333Y-84694104D02*
X112785714Y-84598866D01*
X112785714Y-84598866D02*
X112738095Y-84551247D01*
X112738095Y-84551247D02*
X112642857Y-84503628D01*
X112642857Y-84503628D02*
X112452381Y-84456009D01*
X112452381Y-84456009D02*
X112357143Y-84408390D01*
X112357143Y-84408390D02*
X112309524Y-84360771D01*
X112309524Y-84360771D02*
X112261905Y-84265533D01*
X112261905Y-84265533D02*
X112261905Y-84170295D01*
X112261905Y-84170295D02*
X112309524Y-84075057D01*
X112309524Y-84075057D02*
X112357143Y-84027438D01*
X112357143Y-84027438D02*
X112452381Y-83979819D01*
X112452381Y-83979819D02*
X112690476Y-83979819D01*
X112690476Y-83979819D02*
X112833333Y-84027438D01*
X113595238Y-84456009D02*
X113738095Y-84503628D01*
X113738095Y-84503628D02*
X113785714Y-84551247D01*
X113785714Y-84551247D02*
X113833333Y-84646485D01*
X113833333Y-84646485D02*
X113833333Y-84789342D01*
X113833333Y-84789342D02*
X113785714Y-84884580D01*
X113785714Y-84884580D02*
X113738095Y-84932200D01*
X113738095Y-84932200D02*
X113642857Y-84979819D01*
X113642857Y-84979819D02*
X113261905Y-84979819D01*
X113261905Y-84979819D02*
X113261905Y-83979819D01*
X113261905Y-83979819D02*
X113595238Y-83979819D01*
X113595238Y-83979819D02*
X113690476Y-84027438D01*
X113690476Y-84027438D02*
X113738095Y-84075057D01*
X113738095Y-84075057D02*
X113785714Y-84170295D01*
X113785714Y-84170295D02*
X113785714Y-84265533D01*
X113785714Y-84265533D02*
X113738095Y-84360771D01*
X113738095Y-84360771D02*
X113690476Y-84408390D01*
X113690476Y-84408390D02*
X113595238Y-84456009D01*
X113595238Y-84456009D02*
X113261905Y-84456009D01*
X114166667Y-83979819D02*
X114785714Y-83979819D01*
X114785714Y-83979819D02*
X114452381Y-84360771D01*
X114452381Y-84360771D02*
X114595238Y-84360771D01*
X114595238Y-84360771D02*
X114690476Y-84408390D01*
X114690476Y-84408390D02*
X114738095Y-84456009D01*
X114738095Y-84456009D02*
X114785714Y-84551247D01*
X114785714Y-84551247D02*
X114785714Y-84789342D01*
X114785714Y-84789342D02*
X114738095Y-84884580D01*
X114738095Y-84884580D02*
X114690476Y-84932200D01*
X114690476Y-84932200D02*
X114595238Y-84979819D01*
X114595238Y-84979819D02*
X114309524Y-84979819D01*
X114309524Y-84979819D02*
X114214286Y-84932200D01*
X114214286Y-84932200D02*
X114166667Y-84884580D01*
X122729819Y-49836904D02*
X123539342Y-49836904D01*
X123539342Y-49836904D02*
X123634580Y-49789285D01*
X123634580Y-49789285D02*
X123682200Y-49741666D01*
X123682200Y-49741666D02*
X123729819Y-49646428D01*
X123729819Y-49646428D02*
X123729819Y-49455952D01*
X123729819Y-49455952D02*
X123682200Y-49360714D01*
X123682200Y-49360714D02*
X123634580Y-49313095D01*
X123634580Y-49313095D02*
X123539342Y-49265476D01*
X123539342Y-49265476D02*
X122729819Y-49265476D01*
X122729819Y-48360714D02*
X122729819Y-48551190D01*
X122729819Y-48551190D02*
X122777438Y-48646428D01*
X122777438Y-48646428D02*
X122825057Y-48694047D01*
X122825057Y-48694047D02*
X122967914Y-48789285D01*
X122967914Y-48789285D02*
X123158390Y-48836904D01*
X123158390Y-48836904D02*
X123539342Y-48836904D01*
X123539342Y-48836904D02*
X123634580Y-48789285D01*
X123634580Y-48789285D02*
X123682200Y-48741666D01*
X123682200Y-48741666D02*
X123729819Y-48646428D01*
X123729819Y-48646428D02*
X123729819Y-48455952D01*
X123729819Y-48455952D02*
X123682200Y-48360714D01*
X123682200Y-48360714D02*
X123634580Y-48313095D01*
X123634580Y-48313095D02*
X123539342Y-48265476D01*
X123539342Y-48265476D02*
X123301247Y-48265476D01*
X123301247Y-48265476D02*
X123206009Y-48313095D01*
X123206009Y-48313095D02*
X123158390Y-48360714D01*
X123158390Y-48360714D02*
X123110771Y-48455952D01*
X123110771Y-48455952D02*
X123110771Y-48646428D01*
X123110771Y-48646428D02*
X123158390Y-48741666D01*
X123158390Y-48741666D02*
X123206009Y-48789285D01*
X123206009Y-48789285D02*
X123301247Y-48836904D01*
X104333333Y-79134580D02*
X104285714Y-79182200D01*
X104285714Y-79182200D02*
X104142857Y-79229819D01*
X104142857Y-79229819D02*
X104047619Y-79229819D01*
X104047619Y-79229819D02*
X103904762Y-79182200D01*
X103904762Y-79182200D02*
X103809524Y-79086961D01*
X103809524Y-79086961D02*
X103761905Y-78991723D01*
X103761905Y-78991723D02*
X103714286Y-78801247D01*
X103714286Y-78801247D02*
X103714286Y-78658390D01*
X103714286Y-78658390D02*
X103761905Y-78467914D01*
X103761905Y-78467914D02*
X103809524Y-78372676D01*
X103809524Y-78372676D02*
X103904762Y-78277438D01*
X103904762Y-78277438D02*
X104047619Y-78229819D01*
X104047619Y-78229819D02*
X104142857Y-78229819D01*
X104142857Y-78229819D02*
X104285714Y-78277438D01*
X104285714Y-78277438D02*
X104333333Y-78325057D01*
X105190476Y-78563152D02*
X105190476Y-79229819D01*
X104952381Y-78182200D02*
X104714286Y-78896485D01*
X104714286Y-78896485D02*
X105333333Y-78896485D01*
X107881009Y-73213333D02*
X107881009Y-73546666D01*
X108404819Y-73546666D02*
X107404819Y-73546666D01*
X107404819Y-73546666D02*
X107404819Y-73070476D01*
X107881009Y-72356190D02*
X107928628Y-72213333D01*
X107928628Y-72213333D02*
X107976247Y-72165714D01*
X107976247Y-72165714D02*
X108071485Y-72118095D01*
X108071485Y-72118095D02*
X108214342Y-72118095D01*
X108214342Y-72118095D02*
X108309580Y-72165714D01*
X108309580Y-72165714D02*
X108357200Y-72213333D01*
X108357200Y-72213333D02*
X108404819Y-72308571D01*
X108404819Y-72308571D02*
X108404819Y-72689523D01*
X108404819Y-72689523D02*
X107404819Y-72689523D01*
X107404819Y-72689523D02*
X107404819Y-72356190D01*
X107404819Y-72356190D02*
X107452438Y-72260952D01*
X107452438Y-72260952D02*
X107500057Y-72213333D01*
X107500057Y-72213333D02*
X107595295Y-72165714D01*
X107595295Y-72165714D02*
X107690533Y-72165714D01*
X107690533Y-72165714D02*
X107785771Y-72213333D01*
X107785771Y-72213333D02*
X107833390Y-72260952D01*
X107833390Y-72260952D02*
X107881009Y-72356190D01*
X107881009Y-72356190D02*
X107881009Y-72689523D01*
X108404819Y-71165714D02*
X108404819Y-71737142D01*
X108404819Y-71451428D02*
X107404819Y-71451428D01*
X107404819Y-71451428D02*
X107547676Y-71546666D01*
X107547676Y-71546666D02*
X107642914Y-71641904D01*
X107642914Y-71641904D02*
X107690533Y-71737142D01*
X127534819Y-81581904D02*
X128344342Y-81581904D01*
X128344342Y-81581904D02*
X128439580Y-81534285D01*
X128439580Y-81534285D02*
X128487200Y-81486666D01*
X128487200Y-81486666D02*
X128534819Y-81391428D01*
X128534819Y-81391428D02*
X128534819Y-81200952D01*
X128534819Y-81200952D02*
X128487200Y-81105714D01*
X128487200Y-81105714D02*
X128439580Y-81058095D01*
X128439580Y-81058095D02*
X128344342Y-81010476D01*
X128344342Y-81010476D02*
X127534819Y-81010476D01*
X127630057Y-80581904D02*
X127582438Y-80534285D01*
X127582438Y-80534285D02*
X127534819Y-80439047D01*
X127534819Y-80439047D02*
X127534819Y-80200952D01*
X127534819Y-80200952D02*
X127582438Y-80105714D01*
X127582438Y-80105714D02*
X127630057Y-80058095D01*
X127630057Y-80058095D02*
X127725295Y-80010476D01*
X127725295Y-80010476D02*
X127820533Y-80010476D01*
X127820533Y-80010476D02*
X127963390Y-80058095D01*
X127963390Y-80058095D02*
X128534819Y-80629523D01*
X128534819Y-80629523D02*
X128534819Y-80010476D01*
D12*
X144945952Y-59298479D02*
X144945952Y-58663479D01*
X144945952Y-58663479D02*
X145157619Y-59117050D01*
X145157619Y-59117050D02*
X145369285Y-58663479D01*
X145369285Y-58663479D02*
X145369285Y-59298479D01*
X146004285Y-59298479D02*
X145641428Y-59298479D01*
X145822856Y-59298479D02*
X145822856Y-58663479D01*
X145822856Y-58663479D02*
X145762380Y-58754193D01*
X145762380Y-58754193D02*
X145701904Y-58814669D01*
X145701904Y-58814669D02*
X145641428Y-58844907D01*
D11*
X104433333Y-76809580D02*
X104385714Y-76857200D01*
X104385714Y-76857200D02*
X104242857Y-76904819D01*
X104242857Y-76904819D02*
X104147619Y-76904819D01*
X104147619Y-76904819D02*
X104004762Y-76857200D01*
X104004762Y-76857200D02*
X103909524Y-76761961D01*
X103909524Y-76761961D02*
X103861905Y-76666723D01*
X103861905Y-76666723D02*
X103814286Y-76476247D01*
X103814286Y-76476247D02*
X103814286Y-76333390D01*
X103814286Y-76333390D02*
X103861905Y-76142914D01*
X103861905Y-76142914D02*
X103909524Y-76047676D01*
X103909524Y-76047676D02*
X104004762Y-75952438D01*
X104004762Y-75952438D02*
X104147619Y-75904819D01*
X104147619Y-75904819D02*
X104242857Y-75904819D01*
X104242857Y-75904819D02*
X104385714Y-75952438D01*
X104385714Y-75952438D02*
X104433333Y-76000057D01*
X104909524Y-76904819D02*
X105100000Y-76904819D01*
X105100000Y-76904819D02*
X105195238Y-76857200D01*
X105195238Y-76857200D02*
X105242857Y-76809580D01*
X105242857Y-76809580D02*
X105338095Y-76666723D01*
X105338095Y-76666723D02*
X105385714Y-76476247D01*
X105385714Y-76476247D02*
X105385714Y-76095295D01*
X105385714Y-76095295D02*
X105338095Y-76000057D01*
X105338095Y-76000057D02*
X105290476Y-75952438D01*
X105290476Y-75952438D02*
X105195238Y-75904819D01*
X105195238Y-75904819D02*
X105004762Y-75904819D01*
X105004762Y-75904819D02*
X104909524Y-75952438D01*
X104909524Y-75952438D02*
X104861905Y-76000057D01*
X104861905Y-76000057D02*
X104814286Y-76095295D01*
X104814286Y-76095295D02*
X104814286Y-76333390D01*
X104814286Y-76333390D02*
X104861905Y-76428628D01*
X104861905Y-76428628D02*
X104909524Y-76476247D01*
X104909524Y-76476247D02*
X105004762Y-76523866D01*
X105004762Y-76523866D02*
X105195238Y-76523866D01*
X105195238Y-76523866D02*
X105290476Y-76476247D01*
X105290476Y-76476247D02*
X105338095Y-76428628D01*
X105338095Y-76428628D02*
X105385714Y-76333390D01*
X133863333Y-71964819D02*
X133530000Y-71488628D01*
X133291905Y-71964819D02*
X133291905Y-70964819D01*
X133291905Y-70964819D02*
X133672857Y-70964819D01*
X133672857Y-70964819D02*
X133768095Y-71012438D01*
X133768095Y-71012438D02*
X133815714Y-71060057D01*
X133815714Y-71060057D02*
X133863333Y-71155295D01*
X133863333Y-71155295D02*
X133863333Y-71298152D01*
X133863333Y-71298152D02*
X133815714Y-71393390D01*
X133815714Y-71393390D02*
X133768095Y-71441009D01*
X133768095Y-71441009D02*
X133672857Y-71488628D01*
X133672857Y-71488628D02*
X133291905Y-71488628D01*
X134196667Y-70964819D02*
X134815714Y-70964819D01*
X134815714Y-70964819D02*
X134482381Y-71345771D01*
X134482381Y-71345771D02*
X134625238Y-71345771D01*
X134625238Y-71345771D02*
X134720476Y-71393390D01*
X134720476Y-71393390D02*
X134768095Y-71441009D01*
X134768095Y-71441009D02*
X134815714Y-71536247D01*
X134815714Y-71536247D02*
X134815714Y-71774342D01*
X134815714Y-71774342D02*
X134768095Y-71869580D01*
X134768095Y-71869580D02*
X134720476Y-71917200D01*
X134720476Y-71917200D02*
X134625238Y-71964819D01*
X134625238Y-71964819D02*
X134339524Y-71964819D01*
X134339524Y-71964819D02*
X134244286Y-71917200D01*
X134244286Y-71917200D02*
X134196667Y-71869580D01*
X163081666Y-57764819D02*
X163081666Y-58479104D01*
X163081666Y-58479104D02*
X163034047Y-58621961D01*
X163034047Y-58621961D02*
X162938809Y-58717200D01*
X162938809Y-58717200D02*
X162795952Y-58764819D01*
X162795952Y-58764819D02*
X162700714Y-58764819D01*
X164081666Y-58764819D02*
X163510238Y-58764819D01*
X163795952Y-58764819D02*
X163795952Y-57764819D01*
X163795952Y-57764819D02*
X163700714Y-57907676D01*
X163700714Y-57907676D02*
X163605476Y-58002914D01*
X163605476Y-58002914D02*
X163510238Y-58050533D01*
X124761905Y-40329819D02*
X124761905Y-41139342D01*
X124761905Y-41139342D02*
X124809524Y-41234580D01*
X124809524Y-41234580D02*
X124857143Y-41282200D01*
X124857143Y-41282200D02*
X124952381Y-41329819D01*
X124952381Y-41329819D02*
X125142857Y-41329819D01*
X125142857Y-41329819D02*
X125238095Y-41282200D01*
X125238095Y-41282200D02*
X125285714Y-41234580D01*
X125285714Y-41234580D02*
X125333333Y-41139342D01*
X125333333Y-41139342D02*
X125333333Y-40329819D01*
X125761905Y-41282200D02*
X125904762Y-41329819D01*
X125904762Y-41329819D02*
X126142857Y-41329819D01*
X126142857Y-41329819D02*
X126238095Y-41282200D01*
X126238095Y-41282200D02*
X126285714Y-41234580D01*
X126285714Y-41234580D02*
X126333333Y-41139342D01*
X126333333Y-41139342D02*
X126333333Y-41044104D01*
X126333333Y-41044104D02*
X126285714Y-40948866D01*
X126285714Y-40948866D02*
X126238095Y-40901247D01*
X126238095Y-40901247D02*
X126142857Y-40853628D01*
X126142857Y-40853628D02*
X125952381Y-40806009D01*
X125952381Y-40806009D02*
X125857143Y-40758390D01*
X125857143Y-40758390D02*
X125809524Y-40710771D01*
X125809524Y-40710771D02*
X125761905Y-40615533D01*
X125761905Y-40615533D02*
X125761905Y-40520295D01*
X125761905Y-40520295D02*
X125809524Y-40425057D01*
X125809524Y-40425057D02*
X125857143Y-40377438D01*
X125857143Y-40377438D02*
X125952381Y-40329819D01*
X125952381Y-40329819D02*
X126190476Y-40329819D01*
X126190476Y-40329819D02*
X126333333Y-40377438D01*
X127095238Y-40806009D02*
X127238095Y-40853628D01*
X127238095Y-40853628D02*
X127285714Y-40901247D01*
X127285714Y-40901247D02*
X127333333Y-40996485D01*
X127333333Y-40996485D02*
X127333333Y-41139342D01*
X127333333Y-41139342D02*
X127285714Y-41234580D01*
X127285714Y-41234580D02*
X127238095Y-41282200D01*
X127238095Y-41282200D02*
X127142857Y-41329819D01*
X127142857Y-41329819D02*
X126761905Y-41329819D01*
X126761905Y-41329819D02*
X126761905Y-40329819D01*
X126761905Y-40329819D02*
X127095238Y-40329819D01*
X127095238Y-40329819D02*
X127190476Y-40377438D01*
X127190476Y-40377438D02*
X127238095Y-40425057D01*
X127238095Y-40425057D02*
X127285714Y-40520295D01*
X127285714Y-40520295D02*
X127285714Y-40615533D01*
X127285714Y-40615533D02*
X127238095Y-40710771D01*
X127238095Y-40710771D02*
X127190476Y-40758390D01*
X127190476Y-40758390D02*
X127095238Y-40806009D01*
X127095238Y-40806009D02*
X126761905Y-40806009D01*
X128285714Y-41329819D02*
X127714286Y-41329819D01*
X128000000Y-41329819D02*
X128000000Y-40329819D01*
X128000000Y-40329819D02*
X127904762Y-40472676D01*
X127904762Y-40472676D02*
X127809524Y-40567914D01*
X127809524Y-40567914D02*
X127714286Y-40615533D01*
X122988095Y-59154819D02*
X122988095Y-59964342D01*
X122988095Y-59964342D02*
X123035714Y-60059580D01*
X123035714Y-60059580D02*
X123083333Y-60107200D01*
X123083333Y-60107200D02*
X123178571Y-60154819D01*
X123178571Y-60154819D02*
X123369047Y-60154819D01*
X123369047Y-60154819D02*
X123464285Y-60107200D01*
X123464285Y-60107200D02*
X123511904Y-60059580D01*
X123511904Y-60059580D02*
X123559523Y-59964342D01*
X123559523Y-59964342D02*
X123559523Y-59154819D01*
X124559523Y-60154819D02*
X123988095Y-60154819D01*
X124273809Y-60154819D02*
X124273809Y-59154819D01*
X124273809Y-59154819D02*
X124178571Y-59297676D01*
X124178571Y-59297676D02*
X124083333Y-59392914D01*
X124083333Y-59392914D02*
X123988095Y-59440533D01*
D13*
%TO.C,C8*%
X126945000Y-65318748D02*
X126945000Y-65841252D01*
X125475000Y-65318748D02*
X125475000Y-65841252D01*
%TO.C,C7*%
X129145000Y-65338748D02*
X129145000Y-65861252D01*
X127675000Y-65338748D02*
X127675000Y-65861252D01*
%TO.C,R5*%
X121975000Y-65667064D02*
X121975000Y-65212936D01*
X123445000Y-65667064D02*
X123445000Y-65212936D01*
%TO.C,TP14*%
X118350000Y-45120000D02*
G75*
G02*
X116950000Y-45120000I-700000J0D01*
G01*
X116950000Y-45120000D02*
G75*
G02*
X118350000Y-45120000I700000J0D01*
G01*
%TO.C,TP7*%
X115650000Y-62075000D02*
G75*
G02*
X114250000Y-62075000I-700000J0D01*
G01*
X114250000Y-62075000D02*
G75*
G02*
X115650000Y-62075000I700000J0D01*
G01*
%TO.C,TP6*%
X147010000Y-66500000D02*
G75*
G02*
X145610000Y-66500000I-700000J0D01*
G01*
X145610000Y-66500000D02*
G75*
G02*
X147010000Y-66500000I700000J0D01*
G01*
%TO.C,TP1*%
X130810000Y-54280000D02*
G75*
G02*
X129410000Y-54280000I-700000J0D01*
G01*
X129410000Y-54280000D02*
G75*
G02*
X130810000Y-54280000I700000J0D01*
G01*
%TO.C,R2*%
X126910000Y-56112936D02*
X126910000Y-56567064D01*
X128380000Y-56112936D02*
X128380000Y-56567064D01*
%TO.C,C1*%
X131228748Y-49845000D02*
X131751252Y-49845000D01*
X131228748Y-51315000D02*
X131751252Y-51315000D01*
%TO.C,R1*%
X124860000Y-56112936D02*
X124860000Y-56567064D01*
X126330000Y-56112936D02*
X126330000Y-56567064D01*
%TO.C,C2*%
X131226248Y-45265000D02*
X131748752Y-45265000D01*
X131226248Y-46735000D02*
X131748752Y-46735000D01*
%TO.C,C5*%
X147343752Y-76030000D02*
X146821248Y-76030000D01*
X147343752Y-77500000D02*
X146821248Y-77500000D01*
%TO.C,R4*%
X128202936Y-72405000D02*
X128657064Y-72405000D01*
X128202936Y-73875000D02*
X128657064Y-73875000D01*
%TO.C,USB2*%
X144470000Y-94205000D02*
X144470000Y-94705000D01*
X144470000Y-94705000D02*
X158970000Y-94705000D01*
X145470000Y-80705000D02*
X145470000Y-82705000D01*
X145470000Y-86205000D02*
X145470000Y-94205000D01*
X145470000Y-94205000D02*
X144470000Y-94205000D01*
X147720000Y-80455000D02*
X148720000Y-80455000D01*
X157970000Y-80705000D02*
X145470000Y-80705000D01*
X157970000Y-82705000D02*
X157970000Y-80705000D01*
X157970000Y-94205000D02*
X157970000Y-86205000D01*
X158970000Y-94205000D02*
X157970000Y-94205000D01*
X158970000Y-94705000D02*
X158970000Y-94205000D01*
%TO.C,R6*%
X130085000Y-58212936D02*
X130085000Y-58667064D01*
X131555000Y-58212936D02*
X131555000Y-58667064D01*
%TO.C,U5*%
X110895000Y-68005000D02*
X110990000Y-68005000D01*
X110895000Y-72125000D02*
X110895000Y-68005000D01*
X110990000Y-72125000D02*
X110895000Y-72125000D01*
X115920000Y-68005000D02*
X116015000Y-68005000D01*
X116015000Y-68005000D02*
X116015000Y-72125000D01*
X116015000Y-72125000D02*
X115920000Y-72125000D01*
X110985000Y-72665000D02*
X110655000Y-72905000D01*
X110655000Y-72425000D01*
X110985000Y-72665000D01*
G36*
X110985000Y-72665000D02*
G01*
X110655000Y-72905000D01*
X110655000Y-72425000D01*
X110985000Y-72665000D01*
G37*
%TO.C,U4*%
X149380000Y-67995000D02*
X149475000Y-67995000D01*
X149380000Y-72115000D02*
X149380000Y-67995000D01*
X149475000Y-72115000D02*
X149380000Y-72115000D01*
X154405000Y-67995000D02*
X154500000Y-67995000D01*
X154500000Y-67995000D02*
X154500000Y-72115000D01*
X154500000Y-72115000D02*
X154405000Y-72115000D01*
X149470000Y-72655000D02*
X149140000Y-72895000D01*
X149140000Y-72415000D01*
X149470000Y-72655000D01*
G36*
X149470000Y-72655000D02*
G01*
X149140000Y-72895000D01*
X149140000Y-72415000D01*
X149470000Y-72655000D01*
G37*
%TO.C,C3*%
X136558748Y-77290000D02*
X137081252Y-77290000D01*
X136558748Y-78760000D02*
X137081252Y-78760000D01*
%TO.C,D1*%
X129615000Y-47290000D02*
X129615000Y-49310000D01*
X129615000Y-47290000D02*
X133375000Y-47290000D01*
X129615000Y-49310000D02*
X133375000Y-49310000D01*
%TO.C,FB2*%
X147405000Y-73916252D02*
X147405000Y-73393748D01*
X148825000Y-73916252D02*
X148825000Y-73393748D01*
%TO.C,C6*%
X136558748Y-75080000D02*
X137081252Y-75080000D01*
X136558748Y-76550000D02*
X137081252Y-76550000D01*
%TO.C,BZ1*%
X121120000Y-53380000D02*
G75*
G02*
X108920000Y-53380000I-6100000J0D01*
G01*
X108920000Y-53380000D02*
G75*
G02*
X121120000Y-53380000I6100000J0D01*
G01*
%TO.C,C10*%
X147343752Y-78180000D02*
X146821248Y-78180000D01*
X147343752Y-79650000D02*
X146821248Y-79650000D01*
%TO.C,USB3*%
X120330000Y-94705000D02*
X120330000Y-94205000D01*
X120330000Y-94205000D02*
X119330000Y-94205000D01*
X119330000Y-94205000D02*
X119330000Y-86205000D01*
X119330000Y-82705000D02*
X119330000Y-80705000D01*
X119330000Y-80705000D02*
X106830000Y-80705000D01*
X109080000Y-80455000D02*
X110080000Y-80455000D01*
X106830000Y-94205000D02*
X105830000Y-94205000D01*
X106830000Y-86205000D02*
X106830000Y-94205000D01*
X106830000Y-80705000D02*
X106830000Y-82705000D01*
X105830000Y-94705000D02*
X120330000Y-94705000D01*
X105830000Y-94205000D02*
X105830000Y-94705000D01*
%TO.C,U6*%
X124050000Y-46980000D02*
X124145000Y-46980000D01*
X124050000Y-51100000D02*
X124050000Y-46980000D01*
X124145000Y-51100000D02*
X124050000Y-51100000D01*
X129075000Y-46980000D02*
X129170000Y-46980000D01*
X129170000Y-46980000D02*
X129170000Y-51100000D01*
X129170000Y-51100000D02*
X129075000Y-51100000D01*
X129410000Y-46680000D02*
X129080000Y-46440000D01*
X129410000Y-46200000D01*
X129410000Y-46680000D01*
G36*
X129410000Y-46680000D02*
G01*
X129080000Y-46440000D01*
X129410000Y-46200000D01*
X129410000Y-46680000D01*
G37*
%TO.C,C4*%
X108803752Y-78042500D02*
X108281248Y-78042500D01*
X108803752Y-79512500D02*
X108281248Y-79512500D01*
%TO.C,FB1*%
X108865000Y-73826252D02*
X108865000Y-73303748D01*
X110285000Y-73826252D02*
X110285000Y-73303748D01*
%TO.C,U2*%
X128985000Y-76505000D02*
X129080000Y-76505000D01*
X128985000Y-80625000D02*
X128985000Y-76505000D01*
X129080000Y-80625000D02*
X128985000Y-80625000D01*
X134010000Y-76505000D02*
X134105000Y-76505000D01*
X134105000Y-76505000D02*
X134105000Y-80625000D01*
X134105000Y-80625000D02*
X134010000Y-80625000D01*
X134345000Y-76205000D02*
X134015000Y-75965000D01*
X134345000Y-75725000D01*
X134345000Y-76205000D01*
G36*
X134345000Y-76205000D02*
G01*
X134015000Y-75965000D01*
X134345000Y-75725000D01*
X134345000Y-76205000D01*
G37*
D14*
%TO.C,M1*%
X138780000Y-56449000D02*
X138780000Y-39304000D01*
X140685000Y-58354000D02*
X154655000Y-58354000D01*
X143175000Y-37399000D02*
X143178728Y-36488728D01*
X143678728Y-35989000D02*
X151674000Y-35989000D01*
X152174000Y-36489000D02*
X152174000Y-37399000D01*
D15*
X154655000Y-37399000D02*
X140685000Y-37399000D01*
D14*
X154655000Y-37399000D02*
X140685000Y-37399000D01*
X156560000Y-56449000D02*
X156560000Y-39304000D01*
X138780000Y-39304000D02*
G75*
G02*
X140685000Y-37399000I1905000J0D01*
G01*
X140685000Y-58354000D02*
G75*
G02*
X138780000Y-56449000I1J1905001D01*
G01*
X143178728Y-36488728D02*
G75*
G02*
X143678728Y-35989028I499972J-272D01*
G01*
X151674000Y-35989000D02*
G75*
G02*
X152174000Y-36489000I0J-500000D01*
G01*
X154655000Y-37399000D02*
G75*
G02*
X156560000Y-39304000I0J-1905000D01*
G01*
X156560000Y-56449000D02*
G75*
G02*
X154655000Y-58354000I-1905001J1D01*
G01*
D13*
%TO.C,C9*%
X108803752Y-75717500D02*
X108281248Y-75717500D01*
X108803752Y-77187500D02*
X108281248Y-77187500D01*
%TO.C,R3*%
X132142936Y-72405000D02*
X132597064Y-72405000D01*
X132142936Y-73875000D02*
X132597064Y-73875000D01*
%TO.C,J1*%
X162060000Y-41490000D02*
X163440000Y-41490000D01*
X162060000Y-42870000D02*
X162060000Y-41490000D01*
X162060000Y-44140000D02*
X162060000Y-56950000D01*
X162060000Y-44140000D02*
X164820000Y-44140000D01*
X162060000Y-56950000D02*
X164820000Y-56950000D01*
X164820000Y-44140000D02*
X164820000Y-56950000D01*
%TO.C,USB1*%
X119360000Y-30160000D02*
X119360000Y-30660000D01*
X119360000Y-30660000D02*
X120360000Y-30660000D01*
X120360000Y-30660000D02*
X120360000Y-38660000D01*
X120360000Y-42160000D02*
X120360000Y-44160000D01*
X120360000Y-44160000D02*
X132860000Y-44160000D01*
X130610000Y-44410000D02*
X129610000Y-44410000D01*
X132860000Y-30660000D02*
X133860000Y-30660000D01*
X132860000Y-38660000D02*
X132860000Y-30660000D01*
X132860000Y-44160000D02*
X132860000Y-42160000D01*
X133860000Y-30160000D02*
X119360000Y-30160000D01*
X133860000Y-30660000D02*
X133860000Y-30160000D01*
%TO.C,U1*%
X124959859Y-60142612D02*
X128179859Y-60142612D01*
X124959859Y-60342612D02*
X124959859Y-60142612D01*
X124959859Y-63362612D02*
X124959859Y-63162612D01*
X128179859Y-60142612D02*
X128179859Y-60342612D01*
X128179859Y-63162612D02*
X128179859Y-63362612D01*
X128179859Y-63362612D02*
X124959859Y-63362612D01*
X129009859Y-63492612D02*
X128529859Y-63492612D01*
X128769859Y-63162612D01*
X129009859Y-63492612D01*
G36*
X129009859Y-63492612D02*
G01*
X128529859Y-63492612D01*
X128769859Y-63162612D01*
X129009859Y-63492612D01*
G37*
%TD*%
M02*
