%TF.GenerationSoftware,KiCad,Pcbnew,9.0.5*%
%TF.CreationDate,2026-02-25T17:52:12-08:00*%
%TF.ProjectId,kvm,6b766d2e-6b69-4636-9164-5f7063625858,rev?*%
%TF.SameCoordinates,Original*%
%TF.FileFunction,Copper,L2,Bot*%
%TF.FilePolarity,Positive*%
%FSLAX46Y46*%
G04 Gerber Fmt 4.6, Leading zero omitted, Abs format (unit mm)*
G04 Created by KiCad (PCBNEW 9.0.5) date 2026-02-25 17:52:12*
%MOMM*%
%LPD*%
G01*
G04 APERTURE LIST*
%TA.AperFunction,ComponentPad*%
%ADD10R,1.600000X1.600000*%
%TD*%
%TA.AperFunction,ComponentPad*%
%ADD11C,1.600000*%
%TD*%
%TA.AperFunction,ComponentPad*%
%ADD12C,3.000000*%
%TD*%
%TA.AperFunction,ComponentPad*%
%ADD13R,2.000000X2.000000*%
%TD*%
%TA.AperFunction,ComponentPad*%
%ADD14C,2.000000*%
%TD*%
%TA.AperFunction,ComponentPad*%
%ADD15C,1.524000*%
%TD*%
%TA.AperFunction,ComponentPad*%
%ADD16R,1.700000X1.700000*%
%TD*%
%TA.AperFunction,ComponentPad*%
%ADD17C,1.700000*%
%TD*%
%TA.AperFunction,ViaPad*%
%ADD18C,0.600000*%
%TD*%
%TA.AperFunction,Conductor*%
%ADD19C,0.200000*%
%TD*%
%TA.AperFunction,Conductor*%
%ADD20C,0.500000*%
%TD*%
G04 APERTURE END LIST*
D10*
%TO.P,USB2,1,VBUS*%
%TO.N,/VCC_A_CON*%
X148220000Y-81715000D03*
D11*
%TO.P,USB2,2,D-*%
%TO.N,/D1-*%
X150720000Y-81715000D03*
%TO.P,USB2,3,D+*%
%TO.N,/D1+*%
X152720000Y-81715000D03*
%TO.P,USB2,4,GND*%
%TO.N,GND*%
X155220000Y-81715000D03*
D12*
%TO.P,USB2,5,Shield*%
X145150000Y-84425000D03*
X158290000Y-84425000D03*
%TD*%
D13*
%TO.P,BZ1,1,+*%
%TO.N,/SOUND*%
X111220000Y-53380000D03*
D14*
%TO.P,BZ1,2,-*%
%TO.N,GND*%
X118820000Y-53380000D03*
%TD*%
D12*
%TO.P,USB3,5,Shield*%
%TO.N,GND*%
X119650000Y-84425000D03*
X106510000Y-84425000D03*
D11*
%TO.P,USB3,4,GND*%
X116580000Y-81715000D03*
%TO.P,USB3,3,D+*%
%TO.N,/D2+*%
X114080000Y-81715000D03*
%TO.P,USB3,2,D-*%
%TO.N,/D2-*%
X112080000Y-81715000D03*
D10*
%TO.P,USB3,1,VBUS*%
%TO.N,/VCC_B_CON*%
X109580000Y-81715000D03*
%TD*%
D15*
%TO.P,M1,1,P26_A0_D0*%
%TO.N,unconnected-(M1-P26_A0_D0-Pad1)*%
X140050000Y-40320000D03*
%TO.P,M1,2,P27_A1_D1*%
%TO.N,/SOUND*%
X140050000Y-42860000D03*
%TO.P,M1,3,P28_A2_D2*%
%TO.N,/USB_PWR_EN_A*%
X140050000Y-45400000D03*
%TO.P,M1,4,P29_A3_D3*%
%TO.N,/USB_PWR_EN_B*%
X140050000Y-47940000D03*
%TO.P,M1,5,P6_SDA_D4*%
%TO.N,/USB_SW_EN*%
X140050000Y-50480000D03*
%TO.P,M1,6,P7_SCL_D5*%
%TO.N,/USB_SW_SEL*%
X140050000Y-53020000D03*
%TO.P,M1,7,P0_D6_TX*%
%TO.N,unconnected-(M1-P0_D6_TX-Pad7)*%
X140050000Y-55560000D03*
%TO.P,M1,8,P1_D7_RX*%
%TO.N,/RF1*%
X155290000Y-55560000D03*
%TO.P,M1,9,P2_D8_SCK*%
%TO.N,/RF2*%
X155290000Y-53020000D03*
%TO.P,M1,10,P4_D9_MISO*%
%TO.N,/RF3*%
X155290000Y-50480000D03*
%TO.P,M1,11,P3_D10_MOSI*%
%TO.N,/RF4*%
X155290000Y-47940000D03*
%TO.P,M1,12,3V3*%
%TO.N,3V3*%
X155290000Y-45400000D03*
%TO.P,M1,13,GND*%
%TO.N,GND*%
X155290000Y-42860000D03*
%TO.P,M1,14,VBUS*%
%TO.N,VBUS*%
X155290000Y-40320000D03*
%TD*%
D16*
%TO.P,J1,1,Pin_1*%
%TO.N,GND*%
X163440000Y-42870000D03*
D17*
%TO.P,J1,2,Pin_2*%
%TO.N,3V3*%
X163440000Y-45410000D03*
%TO.P,J1,3,Pin_3*%
%TO.N,/RF4*%
X163440000Y-47950000D03*
%TO.P,J1,4,Pin_4*%
%TO.N,/RF3*%
X163440000Y-50490000D03*
%TO.P,J1,5,Pin_5*%
%TO.N,/RF2*%
X163440000Y-53030000D03*
%TO.P,J1,6,Pin_6*%
%TO.N,/RF1*%
X163440000Y-55570000D03*
%TD*%
D10*
%TO.P,USB1,1,VBUS*%
%TO.N,VBUS*%
X130110000Y-43150000D03*
D11*
%TO.P,USB1,2,D-*%
%TO.N,/D_CON-*%
X127610000Y-43150000D03*
%TO.P,USB1,3,D+*%
%TO.N,/D_CON+*%
X125610000Y-43150000D03*
%TO.P,USB1,4,GND*%
%TO.N,GND*%
X123110000Y-43150000D03*
D12*
%TO.P,USB1,5,Shield*%
X133180000Y-40440000D03*
X120040000Y-40440000D03*
%TD*%
D18*
%TO.N,/SOUND*%
X136750000Y-37350000D03*
%TO.N,GND*%
X132350000Y-38350000D03*
X127890000Y-53500000D03*
X133960000Y-46000000D03*
X147070000Y-67790000D03*
X125800000Y-73130000D03*
X134880000Y-48300000D03*
X139690000Y-75830000D03*
X147030000Y-86260000D03*
X153845000Y-65610000D03*
X116100000Y-65450000D03*
X134000000Y-50575000D03*
X144690000Y-66060000D03*
X130920000Y-79180000D03*
X135620000Y-69260000D03*
X146050000Y-74720000D03*
X121075000Y-37750000D03*
X139690000Y-78040000D03*
X124720000Y-48970000D03*
X153845000Y-70115000D03*
X115355000Y-70165000D03*
X123610000Y-46490000D03*
X106020000Y-76460000D03*
X132375000Y-42475000D03*
X155700000Y-84430000D03*
X144470000Y-78930000D03*
X108350000Y-86250000D03*
X115355000Y-74450000D03*
X117870000Y-86260000D03*
X133125000Y-55500000D03*
X118550000Y-81710000D03*
X144470000Y-76760000D03*
X128780000Y-59640000D03*
X134920000Y-73140000D03*
X117070000Y-84390000D03*
X148050000Y-84440000D03*
X130975000Y-40450000D03*
X160860000Y-42840000D03*
X120950000Y-42800000D03*
X119580000Y-65110000D03*
X107660000Y-81710000D03*
X157240000Y-81870000D03*
X125000000Y-53550000D03*
X124460000Y-66530000D03*
X142300000Y-75770000D03*
X109260000Y-84380000D03*
X130920000Y-83120000D03*
X131875000Y-48325000D03*
X122425000Y-40400000D03*
X123530000Y-51530000D03*
X134610000Y-66250000D03*
X156490000Y-86330000D03*
X135890000Y-62430000D03*
X153840000Y-74400000D03*
X130280000Y-64700000D03*
X107510000Y-74620000D03*
X158200000Y-42870000D03*
X106030000Y-78800000D03*
X146310000Y-81730000D03*
X153430000Y-42840000D03*
X130290000Y-66480000D03*
%TO.N,VBUS*%
X136960000Y-59430000D03*
X136992500Y-70915000D03*
X136950000Y-61120000D03*
X136982500Y-69615000D03*
%TO.N,VCC_B*%
X117325000Y-62075000D03*
X117325000Y-66075000D03*
X117325000Y-64900000D03*
X116325000Y-62075000D03*
%TO.N,/USB_PWR_EN_A*%
X140990000Y-63110000D03*
X140990000Y-65770000D03*
%TO.N,/USB_SW_EN*%
X133350000Y-62525000D03*
X134195000Y-53715000D03*
%TO.N,/USB_SW_SEL*%
X134757250Y-61889466D03*
X134805000Y-54475000D03*
%TO.N,/USB_PWR_EN_B*%
X139700000Y-63110000D03*
X139700000Y-65760000D03*
%TO.N,/D+*%
X125595000Y-58790000D03*
X127295000Y-60765000D03*
%TO.N,/D-*%
X127630000Y-58710000D03*
X126865000Y-59475000D03*
%TO.N,/D2-*%
X120050000Y-63525000D03*
X123100000Y-61275000D03*
%TO.N,/D2+*%
X120775000Y-63900000D03*
X127334084Y-61652612D03*
%TO.N,/D1+*%
X130058235Y-62103235D03*
X132550000Y-64600000D03*
%TO.N,/D1-*%
X127315310Y-62452394D03*
X133302000Y-65200000D03*
%TD*%
D19*
%TO.N,/SOUND*%
X112480000Y-33910000D02*
X111220000Y-35170000D01*
X133320000Y-33910000D02*
X112480000Y-33910000D01*
X136750000Y-37340000D02*
X133320000Y-33910000D01*
X136750000Y-37350000D02*
X136750000Y-37340000D01*
X111220000Y-35170000D02*
X111220000Y-53380000D01*
D20*
%TO.N,VBUS*%
X136960000Y-59430000D02*
X136960000Y-61110000D01*
X136960000Y-61110000D02*
X136950000Y-61120000D01*
X136982500Y-61152500D02*
X136982500Y-69615000D01*
X136950000Y-61120000D02*
X136982500Y-61152500D01*
X136982500Y-69615000D02*
X136982500Y-70905000D01*
X136982500Y-70905000D02*
X136992500Y-70915000D01*
%TO.N,VCC_B*%
X117325000Y-66075000D02*
X117325000Y-64900000D01*
X117325000Y-63150000D02*
X117325000Y-62075000D01*
X117325000Y-64900000D02*
X117325000Y-63150000D01*
X116325000Y-62100000D02*
X117325000Y-63100000D01*
X116325000Y-62075000D02*
X116325000Y-62100000D01*
X117325000Y-63100000D02*
X117325000Y-63150000D01*
D19*
%TO.N,/USB_PWR_EN_A*%
X140990000Y-65770000D02*
X140990000Y-63110000D01*
%TO.N,/USB_SW_EN*%
X134195000Y-53715000D02*
X134195000Y-61680000D01*
X134195000Y-61680000D02*
X133350000Y-62525000D01*
%TO.N,/USB_SW_SEL*%
X134596000Y-54684000D02*
X134596000Y-61728216D01*
X134805000Y-54475000D02*
X134596000Y-54684000D01*
X134596000Y-61728216D02*
X134757250Y-61889466D01*
%TO.N,/USB_PWR_EN_B*%
X139700000Y-65760000D02*
X139700000Y-63110000D01*
%TO.N,/D+*%
X125595000Y-58790000D02*
X125595000Y-59565000D01*
X125595000Y-59565000D02*
X126795000Y-60765000D01*
X126795000Y-60765000D02*
X127295000Y-60765000D01*
%TO.N,/D-*%
X126865000Y-59475000D02*
X127630000Y-58710000D01*
%TO.N,/D2-*%
X123077612Y-61252612D02*
X123100000Y-61275000D01*
X120300057Y-63525000D02*
X122560057Y-61265000D01*
X122560057Y-61265000D02*
X122995000Y-61265000D01*
X120050000Y-63525000D02*
X120300057Y-63525000D01*
X122995000Y-61265000D02*
X123007388Y-61252612D01*
X123007388Y-61252612D02*
X123077612Y-61252612D01*
%TO.N,/D2+*%
X120775000Y-63900000D02*
X120775000Y-63617157D01*
X120775000Y-63617157D02*
X122467157Y-61925000D01*
X125297445Y-61925000D02*
X125569833Y-61652612D01*
X125569833Y-61652612D02*
X127334084Y-61652612D01*
X122467157Y-61925000D02*
X125297445Y-61925000D01*
%TO.N,/D1+*%
X132550000Y-64600000D02*
X132452500Y-64502500D01*
X132452500Y-64502500D02*
X132452500Y-64497500D01*
X132452500Y-64497500D02*
X130058235Y-62103235D01*
%TO.N,/D1-*%
X127862916Y-63000000D02*
X127315310Y-62452394D01*
X131949000Y-64848943D02*
X131949000Y-64574000D01*
X130375000Y-63000000D02*
X127862916Y-63000000D01*
X133301000Y-65201000D02*
X132301057Y-65201000D01*
X131949000Y-64574000D02*
X130375000Y-63000000D01*
X132301057Y-65201000D02*
X131949000Y-64848943D01*
X133302000Y-65200000D02*
X133301000Y-65201000D01*
%TD*%
%TA.AperFunction,Conductor*%
%TO.N,GND*%
G36*
X165358171Y-32895354D02*
G01*
X165425205Y-32915049D01*
X165470951Y-32967860D01*
X165482149Y-33019334D01*
X165486569Y-60025816D01*
X165491694Y-91350500D01*
X165491739Y-91620980D01*
X165472065Y-91688022D01*
X165419269Y-91733786D01*
X165367739Y-91745000D01*
X99615373Y-91745000D01*
X99548334Y-91725315D01*
X99502579Y-91672511D01*
X99491373Y-91621000D01*
X99491373Y-89893713D01*
X100059500Y-89893713D01*
X100059500Y-90106286D01*
X100092753Y-90316239D01*
X100158444Y-90518414D01*
X100254951Y-90707820D01*
X100379890Y-90879786D01*
X100530213Y-91030109D01*
X100702179Y-91155048D01*
X100702181Y-91155049D01*
X100702184Y-91155051D01*
X100891588Y-91251557D01*
X101093757Y-91317246D01*
X101303713Y-91350500D01*
X101303714Y-91350500D01*
X101516286Y-91350500D01*
X101516287Y-91350500D01*
X101726243Y-91317246D01*
X101928412Y-91251557D01*
X102117816Y-91155051D01*
X102139789Y-91139086D01*
X102289786Y-91030109D01*
X102289788Y-91030106D01*
X102289792Y-91030104D01*
X102440104Y-90879792D01*
X102440106Y-90879788D01*
X102440109Y-90879786D01*
X102565048Y-90707820D01*
X102565047Y-90707820D01*
X102565051Y-90707816D01*
X102661557Y-90518412D01*
X102727246Y-90316243D01*
X102760500Y-90106287D01*
X102760500Y-89893713D01*
X162289500Y-89893713D01*
X162289500Y-90106286D01*
X162322753Y-90316239D01*
X162388444Y-90518414D01*
X162484951Y-90707820D01*
X162609890Y-90879786D01*
X162760213Y-91030109D01*
X162932179Y-91155048D01*
X162932181Y-91155049D01*
X162932184Y-91155051D01*
X163121588Y-91251557D01*
X163323757Y-91317246D01*
X163533713Y-91350500D01*
X163533714Y-91350500D01*
X163746286Y-91350500D01*
X163746287Y-91350500D01*
X163956243Y-91317246D01*
X164158412Y-91251557D01*
X164347816Y-91155051D01*
X164369789Y-91139086D01*
X164519786Y-91030109D01*
X164519788Y-91030106D01*
X164519792Y-91030104D01*
X164670104Y-90879792D01*
X164670106Y-90879788D01*
X164670109Y-90879786D01*
X164795048Y-90707820D01*
X164795047Y-90707820D01*
X164795051Y-90707816D01*
X164891557Y-90518412D01*
X164957246Y-90316243D01*
X164990500Y-90106287D01*
X164990500Y-89893713D01*
X164957246Y-89683757D01*
X164891557Y-89481588D01*
X164795051Y-89292184D01*
X164795049Y-89292181D01*
X164795048Y-89292179D01*
X164670109Y-89120213D01*
X164519786Y-88969890D01*
X164347820Y-88844951D01*
X164158414Y-88748444D01*
X164158413Y-88748443D01*
X164158412Y-88748443D01*
X163956243Y-88682754D01*
X163956241Y-88682753D01*
X163956240Y-88682753D01*
X163794957Y-88657208D01*
X163746287Y-88649500D01*
X163533713Y-88649500D01*
X163485042Y-88657208D01*
X163323760Y-88682753D01*
X163121585Y-88748444D01*
X162932179Y-88844951D01*
X162760213Y-88969890D01*
X162609890Y-89120213D01*
X162484951Y-89292179D01*
X162388444Y-89481585D01*
X162322753Y-89683760D01*
X162289500Y-89893713D01*
X102760500Y-89893713D01*
X102727246Y-89683757D01*
X102661557Y-89481588D01*
X102565051Y-89292184D01*
X102565049Y-89292181D01*
X102565048Y-89292179D01*
X102440109Y-89120213D01*
X102289786Y-88969890D01*
X102117820Y-88844951D01*
X101928414Y-88748444D01*
X101928413Y-88748443D01*
X101928412Y-88748443D01*
X101726243Y-88682754D01*
X101726241Y-88682753D01*
X101726240Y-88682753D01*
X101564957Y-88657208D01*
X101516287Y-88649500D01*
X101303713Y-88649500D01*
X101255042Y-88657208D01*
X101093760Y-88682753D01*
X100891585Y-88748444D01*
X100702179Y-88844951D01*
X100530213Y-88969890D01*
X100379890Y-89120213D01*
X100254951Y-89292179D01*
X100158444Y-89481585D01*
X100092753Y-89683760D01*
X100059500Y-89893713D01*
X99491373Y-89893713D01*
X99491373Y-84293905D01*
X104510000Y-84293905D01*
X104510000Y-84556094D01*
X104544220Y-84816009D01*
X104544222Y-84816020D01*
X104612075Y-85069255D01*
X104712404Y-85311471D01*
X104712409Y-85311482D01*
X104843488Y-85538516D01*
X104843494Y-85538524D01*
X104930080Y-85651365D01*
X105537912Y-85043532D01*
X105632829Y-85174175D01*
X105760825Y-85302171D01*
X105891465Y-85397086D01*
X105283633Y-86004917D01*
X105283633Y-86004918D01*
X105396475Y-86091505D01*
X105396483Y-86091511D01*
X105623517Y-86222590D01*
X105623528Y-86222595D01*
X105865744Y-86322924D01*
X106118979Y-86390777D01*
X106118990Y-86390779D01*
X106378905Y-86424999D01*
X106378920Y-86425000D01*
X106641080Y-86425000D01*
X106641094Y-86424999D01*
X106901009Y-86390779D01*
X106901020Y-86390777D01*
X107154255Y-86322924D01*
X107396471Y-86222595D01*
X107396482Y-86222590D01*
X107623516Y-86091511D01*
X107623534Y-86091499D01*
X107736365Y-86004919D01*
X107736365Y-86004917D01*
X107128534Y-85397086D01*
X107259175Y-85302171D01*
X107387171Y-85174175D01*
X107482086Y-85043534D01*
X108089917Y-85651365D01*
X108089919Y-85651365D01*
X108176499Y-85538534D01*
X108176511Y-85538516D01*
X108307590Y-85311482D01*
X108307595Y-85311471D01*
X108407924Y-85069255D01*
X108475777Y-84816020D01*
X108475779Y-84816009D01*
X108509999Y-84556094D01*
X108510000Y-84556080D01*
X108510000Y-84293919D01*
X108509999Y-84293905D01*
X117650000Y-84293905D01*
X117650000Y-84556094D01*
X117684220Y-84816009D01*
X117684222Y-84816020D01*
X117752075Y-85069255D01*
X117852404Y-85311471D01*
X117852409Y-85311482D01*
X117983488Y-85538516D01*
X117983494Y-85538524D01*
X118070080Y-85651365D01*
X118677912Y-85043532D01*
X118772829Y-85174175D01*
X118900825Y-85302171D01*
X119031465Y-85397086D01*
X118423633Y-86004917D01*
X118423633Y-86004918D01*
X118536475Y-86091505D01*
X118536483Y-86091511D01*
X118763517Y-86222590D01*
X118763528Y-86222595D01*
X119005744Y-86322924D01*
X119258979Y-86390777D01*
X119258990Y-86390779D01*
X119518905Y-86424999D01*
X119518920Y-86425000D01*
X119781080Y-86425000D01*
X119781094Y-86424999D01*
X120041009Y-86390779D01*
X120041020Y-86390777D01*
X120294255Y-86322924D01*
X120536471Y-86222595D01*
X120536482Y-86222590D01*
X120763516Y-86091511D01*
X120763534Y-86091499D01*
X120876365Y-86004919D01*
X120876365Y-86004917D01*
X120268534Y-85397086D01*
X120399175Y-85302171D01*
X120527171Y-85174175D01*
X120622086Y-85043534D01*
X121229917Y-85651365D01*
X121229919Y-85651365D01*
X121316499Y-85538534D01*
X121316511Y-85538516D01*
X121447590Y-85311482D01*
X121447595Y-85311471D01*
X121547924Y-85069255D01*
X121615777Y-84816020D01*
X121615779Y-84816009D01*
X121649999Y-84556094D01*
X121650000Y-84556080D01*
X121650000Y-84293919D01*
X121649999Y-84293905D01*
X143150000Y-84293905D01*
X143150000Y-84556094D01*
X143184220Y-84816009D01*
X143184222Y-84816020D01*
X143252075Y-85069255D01*
X143352404Y-85311471D01*
X143352409Y-85311482D01*
X143483488Y-85538516D01*
X143483494Y-85538524D01*
X143570080Y-85651365D01*
X144177912Y-85043532D01*
X144272829Y-85174175D01*
X144400825Y-85302171D01*
X144531465Y-85397086D01*
X143923633Y-86004917D01*
X143923633Y-86004918D01*
X144036475Y-86091505D01*
X144036483Y-86091511D01*
X144263517Y-86222590D01*
X144263528Y-86222595D01*
X144505744Y-86322924D01*
X144758979Y-86390777D01*
X144758990Y-86390779D01*
X145018905Y-86424999D01*
X145018920Y-86425000D01*
X145281080Y-86425000D01*
X145281094Y-86424999D01*
X145541009Y-86390779D01*
X145541020Y-86390777D01*
X145794255Y-86322924D01*
X146036471Y-86222595D01*
X146036482Y-86222590D01*
X146263516Y-86091511D01*
X146263534Y-86091499D01*
X146376365Y-86004919D01*
X146376365Y-86004917D01*
X145768534Y-85397086D01*
X145899175Y-85302171D01*
X146027171Y-85174175D01*
X146122086Y-85043534D01*
X146729917Y-85651365D01*
X146729919Y-85651365D01*
X146816499Y-85538534D01*
X146816511Y-85538516D01*
X146947590Y-85311482D01*
X146947595Y-85311471D01*
X147047924Y-85069255D01*
X147115777Y-84816020D01*
X147115779Y-84816009D01*
X147149999Y-84556094D01*
X147150000Y-84556080D01*
X147150000Y-84293919D01*
X147149999Y-84293905D01*
X156290000Y-84293905D01*
X156290000Y-84556094D01*
X156324220Y-84816009D01*
X156324222Y-84816020D01*
X156392075Y-85069255D01*
X156492404Y-85311471D01*
X156492409Y-85311482D01*
X156623488Y-85538516D01*
X156623494Y-85538524D01*
X156710080Y-85651365D01*
X157317912Y-85043532D01*
X157412829Y-85174175D01*
X157540825Y-85302171D01*
X157671465Y-85397086D01*
X157063633Y-86004917D01*
X157063633Y-86004918D01*
X157176475Y-86091505D01*
X157176483Y-86091511D01*
X157403517Y-86222590D01*
X157403528Y-86222595D01*
X157645744Y-86322924D01*
X157898979Y-86390777D01*
X157898990Y-86390779D01*
X158158905Y-86424999D01*
X158158920Y-86425000D01*
X158421080Y-86425000D01*
X158421094Y-86424999D01*
X158681009Y-86390779D01*
X158681020Y-86390777D01*
X158934255Y-86322924D01*
X159176471Y-86222595D01*
X159176482Y-86222590D01*
X159403516Y-86091511D01*
X159403534Y-86091499D01*
X159516365Y-86004919D01*
X159516365Y-86004917D01*
X158908534Y-85397086D01*
X159039175Y-85302171D01*
X159167171Y-85174175D01*
X159262086Y-85043534D01*
X159869917Y-85651365D01*
X159869919Y-85651365D01*
X159956499Y-85538534D01*
X159956511Y-85538516D01*
X160087590Y-85311482D01*
X160087595Y-85311471D01*
X160187924Y-85069255D01*
X160255777Y-84816020D01*
X160255779Y-84816009D01*
X160289999Y-84556094D01*
X160290000Y-84556080D01*
X160290000Y-84293919D01*
X160289999Y-84293905D01*
X160255779Y-84033990D01*
X160255777Y-84033979D01*
X160187924Y-83780744D01*
X160087595Y-83538528D01*
X160087590Y-83538517D01*
X159956511Y-83311483D01*
X159956505Y-83311475D01*
X159869918Y-83198633D01*
X159869917Y-83198633D01*
X159262085Y-83806464D01*
X159167171Y-83675825D01*
X159039175Y-83547829D01*
X158908532Y-83452912D01*
X159516365Y-82845080D01*
X159403524Y-82758494D01*
X159403516Y-82758488D01*
X159176482Y-82627409D01*
X159176471Y-82627404D01*
X158934255Y-82527075D01*
X158681020Y-82459222D01*
X158681009Y-82459220D01*
X158421094Y-82425000D01*
X158158905Y-82425000D01*
X157898990Y-82459220D01*
X157898979Y-82459222D01*
X157645744Y-82527075D01*
X157403528Y-82627404D01*
X157403517Y-82627409D01*
X157176471Y-82758496D01*
X157063633Y-82845079D01*
X157063633Y-82845080D01*
X157671466Y-83452913D01*
X157540825Y-83547829D01*
X157412829Y-83675825D01*
X157317913Y-83806466D01*
X156710080Y-83198633D01*
X156710079Y-83198633D01*
X156623496Y-83311471D01*
X156492409Y-83538517D01*
X156492404Y-83538528D01*
X156392075Y-83780744D01*
X156324222Y-84033979D01*
X156324220Y-84033990D01*
X156290000Y-84293905D01*
X147149999Y-84293905D01*
X147115779Y-84033990D01*
X147115777Y-84033979D01*
X147047924Y-83780744D01*
X146947595Y-83538528D01*
X146947590Y-83538517D01*
X146816511Y-83311483D01*
X146816505Y-83311475D01*
X146729918Y-83198633D01*
X146729917Y-83198633D01*
X146122085Y-83806465D01*
X146027171Y-83675825D01*
X145899175Y-83547829D01*
X145768532Y-83452912D01*
X146376365Y-82845080D01*
X146263524Y-82758494D01*
X146263516Y-82758488D01*
X146036482Y-82627409D01*
X146036471Y-82627404D01*
X145794255Y-82527075D01*
X145541020Y-82459222D01*
X145541009Y-82459220D01*
X145281094Y-82425000D01*
X145018905Y-82425000D01*
X144758990Y-82459220D01*
X144758979Y-82459222D01*
X144505744Y-82527075D01*
X144263528Y-82627404D01*
X144263517Y-82627409D01*
X144036471Y-82758496D01*
X143923633Y-82845079D01*
X143923633Y-82845080D01*
X144531466Y-83452913D01*
X144400825Y-83547829D01*
X144272829Y-83675825D01*
X144177913Y-83806466D01*
X143570080Y-83198633D01*
X143570079Y-83198633D01*
X143483496Y-83311471D01*
X143352409Y-83538517D01*
X143352404Y-83538528D01*
X143252075Y-83780744D01*
X143184222Y-84033979D01*
X143184220Y-84033990D01*
X143150000Y-84293905D01*
X121649999Y-84293905D01*
X121615779Y-84033990D01*
X121615777Y-84033979D01*
X121547924Y-83780744D01*
X121447595Y-83538528D01*
X121447590Y-83538517D01*
X121316511Y-83311483D01*
X121316505Y-83311475D01*
X121229918Y-83198633D01*
X121229917Y-83198633D01*
X120622085Y-83806464D01*
X120527171Y-83675825D01*
X120399175Y-83547829D01*
X120268532Y-83452912D01*
X120876365Y-82845080D01*
X120763524Y-82758494D01*
X120763516Y-82758488D01*
X120536482Y-82627409D01*
X120536471Y-82627404D01*
X120294255Y-82527075D01*
X120041020Y-82459222D01*
X120041009Y-82459220D01*
X119781094Y-82425000D01*
X119518905Y-82425000D01*
X119258990Y-82459220D01*
X119258979Y-82459222D01*
X119005744Y-82527075D01*
X118763528Y-82627404D01*
X118763517Y-82627409D01*
X118536471Y-82758496D01*
X118423633Y-82845079D01*
X118423633Y-82845080D01*
X119031466Y-83452913D01*
X118900825Y-83547829D01*
X118772829Y-83675825D01*
X118677913Y-83806466D01*
X118070080Y-83198633D01*
X118070079Y-83198633D01*
X117983496Y-83311471D01*
X117852409Y-83538517D01*
X117852404Y-83538528D01*
X117752075Y-83780744D01*
X117684222Y-84033979D01*
X117684220Y-84033990D01*
X117650000Y-84293905D01*
X108509999Y-84293905D01*
X108475779Y-84033990D01*
X108475777Y-84033979D01*
X108407924Y-83780744D01*
X108307595Y-83538528D01*
X108307590Y-83538517D01*
X108176511Y-83311483D01*
X108176505Y-83311475D01*
X108089918Y-83198633D01*
X108089917Y-83198633D01*
X107482085Y-83806464D01*
X107387171Y-83675825D01*
X107259175Y-83547829D01*
X107128532Y-83452912D01*
X107736365Y-82845080D01*
X107623524Y-82758494D01*
X107623516Y-82758488D01*
X107396482Y-82627409D01*
X107396471Y-82627404D01*
X107154255Y-82527075D01*
X106901020Y-82459222D01*
X106901009Y-82459220D01*
X106641094Y-82425000D01*
X106378905Y-82425000D01*
X106118990Y-82459220D01*
X106118979Y-82459222D01*
X105865744Y-82527075D01*
X105623528Y-82627404D01*
X105623517Y-82627409D01*
X105396471Y-82758496D01*
X105283633Y-82845079D01*
X105283633Y-82845080D01*
X105891466Y-83452913D01*
X105760825Y-83547829D01*
X105632829Y-83675825D01*
X105537913Y-83806466D01*
X104930080Y-83198633D01*
X104930079Y-83198633D01*
X104843496Y-83311471D01*
X104712409Y-83538517D01*
X104712404Y-83538528D01*
X104612075Y-83780744D01*
X104544222Y-84033979D01*
X104544220Y-84033990D01*
X104510000Y-84293905D01*
X99491373Y-84293905D01*
X99491373Y-80890321D01*
X108529500Y-80890321D01*
X108529500Y-82539678D01*
X108544032Y-82612735D01*
X108544033Y-82612739D01*
X108544034Y-82612740D01*
X108599399Y-82695601D01*
X108643595Y-82725131D01*
X108682260Y-82750966D01*
X108682264Y-82750967D01*
X108755321Y-82765499D01*
X108755324Y-82765500D01*
X108755326Y-82765500D01*
X110404676Y-82765500D01*
X110404677Y-82765499D01*
X110477740Y-82750966D01*
X110560601Y-82695601D01*
X110615966Y-82612740D01*
X110630500Y-82539674D01*
X110630500Y-81611530D01*
X111029500Y-81611530D01*
X111029500Y-81818469D01*
X111069868Y-82021412D01*
X111069870Y-82021420D01*
X111149059Y-82212598D01*
X111206541Y-82298626D01*
X111264024Y-82384657D01*
X111410342Y-82530975D01*
X111410345Y-82530977D01*
X111582402Y-82645941D01*
X111773580Y-82725130D01*
X111976530Y-82765499D01*
X111976534Y-82765500D01*
X111976535Y-82765500D01*
X112183466Y-82765500D01*
X112183467Y-82765499D01*
X112386420Y-82725130D01*
X112577598Y-82645941D01*
X112749655Y-82530977D01*
X112895977Y-82384655D01*
X112976898Y-82263546D01*
X113030509Y-82218742D01*
X113099834Y-82210035D01*
X113162862Y-82240189D01*
X113183100Y-82263545D01*
X113232924Y-82338112D01*
X113264024Y-82384657D01*
X113410342Y-82530975D01*
X113410345Y-82530977D01*
X113582402Y-82645941D01*
X113773580Y-82725130D01*
X113976530Y-82765499D01*
X113976534Y-82765500D01*
X113976535Y-82765500D01*
X114183466Y-82765500D01*
X114183467Y-82765499D01*
X114386420Y-82725130D01*
X114577598Y-82645941D01*
X114749655Y-82530977D01*
X114895977Y-82384655D01*
X115010941Y-82212598D01*
X115086211Y-82030880D01*
X115130051Y-81976478D01*
X115196345Y-81954413D01*
X115264044Y-81971692D01*
X115311655Y-82022829D01*
X115318702Y-82040015D01*
X115375244Y-82214031D01*
X115468141Y-82396350D01*
X115468147Y-82396359D01*
X115500523Y-82440921D01*
X115500524Y-82440922D01*
X116129697Y-81811749D01*
X116151349Y-81892553D01*
X116211909Y-81997446D01*
X116297554Y-82083091D01*
X116402447Y-82143651D01*
X116483249Y-82165302D01*
X115854076Y-82794474D01*
X115898650Y-82826859D01*
X116080968Y-82919755D01*
X116275582Y-82982990D01*
X116477683Y-83015000D01*
X116682317Y-83015000D01*
X116884417Y-82982990D01*
X117079031Y-82919755D01*
X117261351Y-82826858D01*
X117261353Y-82826857D01*
X117305921Y-82794475D01*
X117305921Y-82794474D01*
X116676749Y-82165302D01*
X116757553Y-82143651D01*
X116862446Y-82083091D01*
X116948091Y-81997446D01*
X117008651Y-81892553D01*
X117030302Y-81811749D01*
X117659474Y-82440921D01*
X117691859Y-82396349D01*
X117784755Y-82214031D01*
X117847990Y-82019417D01*
X117880000Y-81817317D01*
X117880000Y-81612682D01*
X117847990Y-81410582D01*
X117784755Y-81215968D01*
X117691859Y-81033650D01*
X117659474Y-80989076D01*
X117030302Y-81618249D01*
X117008651Y-81537447D01*
X116948091Y-81432554D01*
X116862446Y-81346909D01*
X116757553Y-81286349D01*
X116676748Y-81264697D01*
X117051125Y-80890321D01*
X147169500Y-80890321D01*
X147169500Y-82539678D01*
X147184032Y-82612735D01*
X147184033Y-82612739D01*
X147184034Y-82612740D01*
X147239399Y-82695601D01*
X147283595Y-82725131D01*
X147322260Y-82750966D01*
X147322264Y-82750967D01*
X147395321Y-82765499D01*
X147395324Y-82765500D01*
X147395326Y-82765500D01*
X149044676Y-82765500D01*
X149044677Y-82765499D01*
X149117740Y-82750966D01*
X149200601Y-82695601D01*
X149255966Y-82612740D01*
X149270500Y-82539674D01*
X149270500Y-81611530D01*
X149669500Y-81611530D01*
X149669500Y-81818469D01*
X149709868Y-82021412D01*
X149709870Y-82021420D01*
X149789059Y-82212598D01*
X149846541Y-82298626D01*
X149904024Y-82384657D01*
X150050342Y-82530975D01*
X150050345Y-82530977D01*
X150222402Y-82645941D01*
X150413580Y-82725130D01*
X150616530Y-82765499D01*
X150616534Y-82765500D01*
X150616535Y-82765500D01*
X150823466Y-82765500D01*
X150823467Y-82765499D01*
X151026420Y-82725130D01*
X151217598Y-82645941D01*
X151389655Y-82530977D01*
X151535977Y-82384655D01*
X151616898Y-82263546D01*
X151670509Y-82218742D01*
X151739834Y-82210035D01*
X151802862Y-82240189D01*
X151823100Y-82263545D01*
X151872924Y-82338112D01*
X151904024Y-82384657D01*
X152050342Y-82530975D01*
X152050345Y-82530977D01*
X152222402Y-82645941D01*
X152413580Y-82725130D01*
X152616530Y-82765499D01*
X152616534Y-82765500D01*
X152616535Y-82765500D01*
X152823466Y-82765500D01*
X152823467Y-82765499D01*
X153026420Y-82725130D01*
X153217598Y-82645941D01*
X153389655Y-82530977D01*
X153535977Y-82384655D01*
X153650941Y-82212598D01*
X153726211Y-82030880D01*
X153770051Y-81976478D01*
X153836345Y-81954413D01*
X153904044Y-81971692D01*
X153951655Y-82022829D01*
X153958702Y-82040015D01*
X154015244Y-82214031D01*
X154108141Y-82396350D01*
X154108147Y-82396359D01*
X154140523Y-82440921D01*
X154140524Y-82440922D01*
X154769697Y-81811748D01*
X154791349Y-81892553D01*
X154851909Y-81997446D01*
X154937554Y-82083091D01*
X155042447Y-82143651D01*
X155123249Y-82165302D01*
X154494076Y-82794474D01*
X154538650Y-82826859D01*
X154720968Y-82919755D01*
X154915582Y-82982990D01*
X155117683Y-83015000D01*
X155322317Y-83015000D01*
X155524417Y-82982990D01*
X155719031Y-82919755D01*
X155901351Y-82826858D01*
X155901353Y-82826857D01*
X155945921Y-82794475D01*
X155945921Y-82794474D01*
X155316749Y-82165302D01*
X155397553Y-82143651D01*
X155502446Y-82083091D01*
X155588091Y-81997446D01*
X155648651Y-81892553D01*
X155670302Y-81811749D01*
X156299474Y-82440921D01*
X156331859Y-82396349D01*
X156424755Y-82214031D01*
X156487990Y-82019417D01*
X156520000Y-81817317D01*
X156520000Y-81612682D01*
X156487990Y-81410582D01*
X156424755Y-81215968D01*
X156331859Y-81033650D01*
X156299474Y-80989077D01*
X156299474Y-80989076D01*
X155670302Y-81618249D01*
X155648651Y-81537447D01*
X155588091Y-81432554D01*
X155502446Y-81346909D01*
X155397553Y-81286349D01*
X155316748Y-81264697D01*
X155945922Y-80635524D01*
X155945921Y-80635523D01*
X155901359Y-80603147D01*
X155901350Y-80603141D01*
X155719031Y-80510244D01*
X155524417Y-80447009D01*
X155322317Y-80415000D01*
X155117683Y-80415000D01*
X154915582Y-80447009D01*
X154720968Y-80510244D01*
X154538644Y-80603143D01*
X154494077Y-80635523D01*
X154494077Y-80635524D01*
X155123250Y-81264697D01*
X155042447Y-81286349D01*
X154937554Y-81346909D01*
X154851909Y-81432554D01*
X154791349Y-81537447D01*
X154769697Y-81618250D01*
X154140524Y-80989077D01*
X154140523Y-80989077D01*
X154108143Y-81033644D01*
X154015244Y-81215968D01*
X153958702Y-81389984D01*
X153919264Y-81447659D01*
X153854905Y-81474857D01*
X153786058Y-81462942D01*
X153734583Y-81415697D01*
X153726213Y-81399125D01*
X153650941Y-81217402D01*
X153535977Y-81045345D01*
X153535975Y-81045342D01*
X153389657Y-80899024D01*
X153220332Y-80785886D01*
X153217598Y-80784059D01*
X153026420Y-80704870D01*
X153026412Y-80704868D01*
X152823469Y-80664500D01*
X152823465Y-80664500D01*
X152616535Y-80664500D01*
X152616530Y-80664500D01*
X152413587Y-80704868D01*
X152413579Y-80704870D01*
X152222403Y-80784058D01*
X152050342Y-80899024D01*
X151904025Y-81045341D01*
X151904019Y-81045349D01*
X151823102Y-81166451D01*
X151769490Y-81211257D01*
X151700165Y-81219964D01*
X151637138Y-81189810D01*
X151616898Y-81166451D01*
X151535980Y-81045349D01*
X151535974Y-81045341D01*
X151389657Y-80899024D01*
X151220332Y-80785886D01*
X151217598Y-80784059D01*
X151026420Y-80704870D01*
X151026412Y-80704868D01*
X150823469Y-80664500D01*
X150823465Y-80664500D01*
X150616535Y-80664500D01*
X150616530Y-80664500D01*
X150413587Y-80704868D01*
X150413579Y-80704870D01*
X150222403Y-80784058D01*
X150050342Y-80899024D01*
X149904024Y-81045342D01*
X149789058Y-81217403D01*
X149709870Y-81408579D01*
X149709868Y-81408587D01*
X149669500Y-81611530D01*
X149270500Y-81611530D01*
X149270500Y-80890326D01*
X149270500Y-80890323D01*
X149270499Y-80890321D01*
X149255967Y-80817264D01*
X149255966Y-80817260D01*
X149233782Y-80784059D01*
X149200601Y-80734399D01*
X149117740Y-80679034D01*
X149117739Y-80679033D01*
X149117735Y-80679032D01*
X149044677Y-80664500D01*
X149044674Y-80664500D01*
X147395326Y-80664500D01*
X147395323Y-80664500D01*
X147322264Y-80679032D01*
X147322260Y-80679033D01*
X147239399Y-80734399D01*
X147184033Y-80817260D01*
X147184032Y-80817264D01*
X147169500Y-80890321D01*
X117051125Y-80890321D01*
X117305922Y-80635524D01*
X117305921Y-80635523D01*
X117261359Y-80603147D01*
X117261350Y-80603141D01*
X117079031Y-80510244D01*
X116884417Y-80447009D01*
X116682317Y-80415000D01*
X116477683Y-80415000D01*
X116275582Y-80447009D01*
X116080968Y-80510244D01*
X115898644Y-80603143D01*
X115854077Y-80635523D01*
X115854077Y-80635524D01*
X116483250Y-81264697D01*
X116402447Y-81286349D01*
X116297554Y-81346909D01*
X116211909Y-81432554D01*
X116151349Y-81537447D01*
X116129697Y-81618250D01*
X115500524Y-80989077D01*
X115500523Y-80989077D01*
X115468143Y-81033644D01*
X115375244Y-81215968D01*
X115318702Y-81389984D01*
X115279264Y-81447659D01*
X115214905Y-81474857D01*
X115146058Y-81462942D01*
X115094583Y-81415697D01*
X115086213Y-81399125D01*
X115010941Y-81217402D01*
X114895977Y-81045345D01*
X114895975Y-81045342D01*
X114749657Y-80899024D01*
X114580332Y-80785886D01*
X114577598Y-80784059D01*
X114386420Y-80704870D01*
X114386412Y-80704868D01*
X114183469Y-80664500D01*
X114183465Y-80664500D01*
X113976535Y-80664500D01*
X113976530Y-80664500D01*
X113773587Y-80704868D01*
X113773579Y-80704870D01*
X113582403Y-80784058D01*
X113410342Y-80899024D01*
X113264025Y-81045341D01*
X113264019Y-81045349D01*
X113183102Y-81166451D01*
X113129490Y-81211257D01*
X113060165Y-81219964D01*
X112997138Y-81189810D01*
X112976898Y-81166451D01*
X112895980Y-81045349D01*
X112895974Y-81045341D01*
X112749657Y-80899024D01*
X112580332Y-80785886D01*
X112577598Y-80784059D01*
X112386420Y-80704870D01*
X112386412Y-80704868D01*
X112183469Y-80664500D01*
X112183465Y-80664500D01*
X111976535Y-80664500D01*
X111976530Y-80664500D01*
X111773587Y-80704868D01*
X111773579Y-80704870D01*
X111582403Y-80784058D01*
X111410342Y-80899024D01*
X111264024Y-81045342D01*
X111149058Y-81217403D01*
X111069870Y-81408579D01*
X111069868Y-81408587D01*
X111029500Y-81611530D01*
X110630500Y-81611530D01*
X110630500Y-80890326D01*
X110630500Y-80890323D01*
X110630499Y-80890321D01*
X110615967Y-80817264D01*
X110615966Y-80817260D01*
X110593782Y-80784059D01*
X110560601Y-80734399D01*
X110477740Y-80679034D01*
X110477739Y-80679033D01*
X110477735Y-80679032D01*
X110404677Y-80664500D01*
X110404674Y-80664500D01*
X108755326Y-80664500D01*
X108755323Y-80664500D01*
X108682264Y-80679032D01*
X108682260Y-80679033D01*
X108599399Y-80734399D01*
X108544033Y-80817260D01*
X108544032Y-80817264D01*
X108529500Y-80890321D01*
X99491373Y-80890321D01*
X99491373Y-62002525D01*
X115774500Y-62002525D01*
X115774500Y-62147475D01*
X115808805Y-62275500D01*
X115812017Y-62287488D01*
X115884488Y-62413011D01*
X115884490Y-62413013D01*
X115884491Y-62413015D01*
X115986985Y-62515509D01*
X116081000Y-62569788D01*
X116106679Y-62589493D01*
X116788181Y-63270995D01*
X116821666Y-63332318D01*
X116824500Y-63358676D01*
X116824500Y-64632710D01*
X116815063Y-64680159D01*
X116812016Y-64687513D01*
X116796831Y-64744186D01*
X116774500Y-64827525D01*
X116774500Y-64972475D01*
X116812016Y-65112485D01*
X116812017Y-65112488D01*
X116815059Y-65119831D01*
X116824500Y-65167288D01*
X116824500Y-65807710D01*
X116815063Y-65855159D01*
X116812016Y-65862513D01*
X116809437Y-65872139D01*
X116774500Y-66002525D01*
X116774500Y-66147475D01*
X116810810Y-66282984D01*
X116812017Y-66287488D01*
X116884488Y-66413011D01*
X116884490Y-66413013D01*
X116884491Y-66413015D01*
X116986985Y-66515509D01*
X116986986Y-66515510D01*
X116986988Y-66515511D01*
X117112511Y-66587982D01*
X117112512Y-66587982D01*
X117112515Y-66587984D01*
X117252525Y-66625500D01*
X117252528Y-66625500D01*
X117397472Y-66625500D01*
X117397475Y-66625500D01*
X117537485Y-66587984D01*
X117663015Y-66515509D01*
X117765509Y-66413015D01*
X117837984Y-66287485D01*
X117875500Y-66147475D01*
X117875500Y-66002525D01*
X117837984Y-65862515D01*
X117837983Y-65862513D01*
X117834937Y-65855159D01*
X117825500Y-65807710D01*
X117825500Y-65167288D01*
X117834941Y-65119831D01*
X117837982Y-65112488D01*
X117837981Y-65112488D01*
X117837984Y-65112485D01*
X117875500Y-64972475D01*
X117875500Y-64827525D01*
X117837984Y-64687515D01*
X117837983Y-64687513D01*
X117834937Y-64680159D01*
X117825500Y-64632710D01*
X117825500Y-63452525D01*
X119499500Y-63452525D01*
X119499500Y-63597475D01*
X119523631Y-63687531D01*
X119537017Y-63737488D01*
X119609488Y-63863011D01*
X119609490Y-63863013D01*
X119609491Y-63863015D01*
X119711985Y-63965509D01*
X119711986Y-63965510D01*
X119711988Y-63965511D01*
X119837511Y-64037982D01*
X119837512Y-64037982D01*
X119837515Y-64037984D01*
X119977525Y-64075500D01*
X119977528Y-64075500D01*
X120122473Y-64075500D01*
X120122475Y-64075500D01*
X120132920Y-64072701D01*
X120202768Y-64074362D01*
X120260631Y-64113522D01*
X120272401Y-64130473D01*
X120334491Y-64238015D01*
X120436985Y-64340509D01*
X120436986Y-64340510D01*
X120436988Y-64340511D01*
X120562511Y-64412982D01*
X120562512Y-64412982D01*
X120562515Y-64412984D01*
X120702525Y-64450500D01*
X120702528Y-64450500D01*
X120847472Y-64450500D01*
X120847475Y-64450500D01*
X120987485Y-64412984D01*
X121113015Y-64340509D01*
X121215509Y-64238015D01*
X121287984Y-64112485D01*
X121325500Y-63972475D01*
X121325500Y-63827525D01*
X121287987Y-63687526D01*
X121289650Y-63617681D01*
X121320079Y-63567758D01*
X122576019Y-62311819D01*
X122637342Y-62278334D01*
X122663700Y-62275500D01*
X125343587Y-62275500D01*
X125343589Y-62275500D01*
X125432733Y-62251614D01*
X125512657Y-62205470D01*
X125678696Y-62039431D01*
X125740019Y-62005946D01*
X125766377Y-62003112D01*
X126724266Y-62003112D01*
X126791305Y-62022797D01*
X126837060Y-62075601D01*
X126847004Y-62144759D01*
X126831653Y-62189112D01*
X126802327Y-62239905D01*
X126802326Y-62239909D01*
X126764810Y-62379919D01*
X126764810Y-62524869D01*
X126798205Y-62649500D01*
X126802327Y-62664882D01*
X126874798Y-62790405D01*
X126874800Y-62790407D01*
X126874801Y-62790409D01*
X126977295Y-62892903D01*
X126977296Y-62892904D01*
X126977298Y-62892905D01*
X127102821Y-62965376D01*
X127102822Y-62965376D01*
X127102825Y-62965378D01*
X127242835Y-63002894D01*
X127318766Y-63002894D01*
X127385805Y-63022579D01*
X127406447Y-63039213D01*
X127647704Y-63280470D01*
X127703208Y-63312515D01*
X127703210Y-63312516D01*
X127727625Y-63326613D01*
X127727627Y-63326613D01*
X127727628Y-63326614D01*
X127816772Y-63350500D01*
X130178456Y-63350500D01*
X130245495Y-63370185D01*
X130266137Y-63386819D01*
X131562181Y-64682863D01*
X131595666Y-64744186D01*
X131598500Y-64770544D01*
X131598500Y-64895086D01*
X131613347Y-64950499D01*
X131613348Y-64950499D01*
X131613348Y-64950500D01*
X131619235Y-64972472D01*
X131622387Y-64984233D01*
X131668527Y-65064151D01*
X131668529Y-65064154D01*
X131668530Y-65064155D01*
X132085845Y-65481470D01*
X132165769Y-65527614D01*
X132254913Y-65551500D01*
X132347201Y-65551500D01*
X132823614Y-65551500D01*
X132890653Y-65571185D01*
X132911295Y-65587819D01*
X132963985Y-65640509D01*
X132963986Y-65640510D01*
X132963988Y-65640511D01*
X133089511Y-65712982D01*
X133089512Y-65712982D01*
X133089515Y-65712984D01*
X133229525Y-65750500D01*
X133229528Y-65750500D01*
X133374472Y-65750500D01*
X133374475Y-65750500D01*
X133514485Y-65712984D01*
X133640015Y-65640509D01*
X133742509Y-65538015D01*
X133814984Y-65412485D01*
X133852500Y-65272475D01*
X133852500Y-65127525D01*
X133814984Y-64987515D01*
X133793613Y-64950500D01*
X133742511Y-64861988D01*
X133742506Y-64861982D01*
X133640017Y-64759493D01*
X133640011Y-64759488D01*
X133514488Y-64687017D01*
X133514489Y-64687017D01*
X133498986Y-64682863D01*
X133374475Y-64649500D01*
X133229525Y-64649500D01*
X133224500Y-64649500D01*
X133157461Y-64629815D01*
X133111706Y-64577011D01*
X133102662Y-64535439D01*
X133101561Y-64535585D01*
X133100500Y-64527528D01*
X133100500Y-64527525D01*
X133062984Y-64387515D01*
X133035843Y-64340506D01*
X132990511Y-64261988D01*
X132990506Y-64261982D01*
X132888017Y-64159493D01*
X132888011Y-64159488D01*
X132762488Y-64087017D01*
X132762489Y-64087017D01*
X132751006Y-64083940D01*
X132622475Y-64049500D01*
X132622472Y-64049500D01*
X132551544Y-64049500D01*
X132484505Y-64029815D01*
X132463863Y-64013181D01*
X130903207Y-62452525D01*
X132799500Y-62452525D01*
X132799500Y-62597475D01*
X132837016Y-62737485D01*
X132837017Y-62737488D01*
X132909488Y-62863011D01*
X132909490Y-62863013D01*
X132909491Y-62863015D01*
X133011985Y-62965509D01*
X133011986Y-62965510D01*
X133011988Y-62965511D01*
X133137511Y-63037982D01*
X133137512Y-63037982D01*
X133137515Y-63037984D01*
X133277525Y-63075500D01*
X133277528Y-63075500D01*
X133422472Y-63075500D01*
X133422475Y-63075500D01*
X133562485Y-63037984D01*
X133688015Y-62965509D01*
X133790509Y-62863015D01*
X133862984Y-62737485D01*
X133900500Y-62597475D01*
X133900500Y-62521543D01*
X133920185Y-62454504D01*
X133936815Y-62433866D01*
X134142291Y-62228389D01*
X134203612Y-62194906D01*
X134273303Y-62199890D01*
X134317651Y-62228391D01*
X134419235Y-62329975D01*
X134419236Y-62329976D01*
X134419238Y-62329977D01*
X134544761Y-62402448D01*
X134544762Y-62402448D01*
X134544765Y-62402450D01*
X134684775Y-62439966D01*
X134684778Y-62439966D01*
X134829722Y-62439966D01*
X134829725Y-62439966D01*
X134969735Y-62402450D01*
X135095265Y-62329975D01*
X135197759Y-62227481D01*
X135270234Y-62101951D01*
X135307750Y-61961941D01*
X135307750Y-61816991D01*
X135270234Y-61676981D01*
X135245703Y-61634493D01*
X135197761Y-61551454D01*
X135197756Y-61551448D01*
X135095267Y-61448959D01*
X135095265Y-61448957D01*
X135028481Y-61410399D01*
X135008499Y-61398862D01*
X134960284Y-61348294D01*
X134946500Y-61291475D01*
X134946500Y-61047525D01*
X136399500Y-61047525D01*
X136399500Y-61192475D01*
X136437016Y-61332485D01*
X136465386Y-61381623D01*
X136482000Y-61443624D01*
X136482000Y-69347710D01*
X136472563Y-69395159D01*
X136469516Y-69402513D01*
X136450758Y-69472520D01*
X136432000Y-69542525D01*
X136432000Y-69687475D01*
X136469516Y-69827485D01*
X136469517Y-69827488D01*
X136472559Y-69834831D01*
X136482000Y-69882288D01*
X136482000Y-70676919D01*
X136477774Y-70709012D01*
X136442000Y-70842525D01*
X136442000Y-70987475D01*
X136479516Y-71127485D01*
X136479517Y-71127488D01*
X136551988Y-71253011D01*
X136551990Y-71253013D01*
X136551991Y-71253015D01*
X136654485Y-71355509D01*
X136654486Y-71355510D01*
X136654488Y-71355511D01*
X136780011Y-71427982D01*
X136780012Y-71427982D01*
X136780015Y-71427984D01*
X136920025Y-71465500D01*
X136920028Y-71465500D01*
X137064972Y-71465500D01*
X137064975Y-71465500D01*
X137204985Y-71427984D01*
X137330515Y-71355509D01*
X137433009Y-71253015D01*
X137505484Y-71127485D01*
X137543000Y-70987475D01*
X137543000Y-70842525D01*
X137505484Y-70702515D01*
X137499611Y-70692342D01*
X137483000Y-70630345D01*
X137483000Y-69882288D01*
X137492441Y-69834831D01*
X137495482Y-69827488D01*
X137495481Y-69827488D01*
X137495484Y-69827485D01*
X137533000Y-69687475D01*
X137533000Y-69542525D01*
X137495484Y-69402515D01*
X137495483Y-69402513D01*
X137492437Y-69395159D01*
X137483000Y-69347710D01*
X137483000Y-63037525D01*
X139149500Y-63037525D01*
X139149500Y-63182475D01*
X139184344Y-63312514D01*
X139187017Y-63322488D01*
X139259488Y-63448011D01*
X139259493Y-63448017D01*
X139313181Y-63501705D01*
X139346666Y-63563028D01*
X139349500Y-63589386D01*
X139349500Y-65280614D01*
X139329815Y-65347653D01*
X139313181Y-65368295D01*
X139259493Y-65421982D01*
X139259488Y-65421988D01*
X139187017Y-65547511D01*
X139187016Y-65547515D01*
X139149500Y-65687525D01*
X139149500Y-65832475D01*
X139187016Y-65972485D01*
X139187017Y-65972488D01*
X139259488Y-66098011D01*
X139259490Y-66098013D01*
X139259491Y-66098015D01*
X139361985Y-66200509D01*
X139361986Y-66200510D01*
X139361988Y-66200511D01*
X139487511Y-66272982D01*
X139487512Y-66272982D01*
X139487515Y-66272984D01*
X139627525Y-66310500D01*
X139627528Y-66310500D01*
X139772472Y-66310500D01*
X139772475Y-66310500D01*
X139912485Y-66272984D01*
X140038015Y-66200509D01*
X140140509Y-66098015D01*
X140212984Y-65972485D01*
X140223886Y-65931798D01*
X140260250Y-65872139D01*
X140323097Y-65841610D01*
X140392472Y-65849905D01*
X140446350Y-65894390D01*
X140463433Y-65931796D01*
X140477016Y-65982485D01*
X140477017Y-65982488D01*
X140549488Y-66108011D01*
X140549490Y-66108013D01*
X140549491Y-66108015D01*
X140651985Y-66210509D01*
X140651986Y-66210510D01*
X140651988Y-66210511D01*
X140777511Y-66282982D01*
X140777512Y-66282982D01*
X140777515Y-66282984D01*
X140917525Y-66320500D01*
X140917528Y-66320500D01*
X141062472Y-66320500D01*
X141062475Y-66320500D01*
X141202485Y-66282984D01*
X141328015Y-66210509D01*
X141430509Y-66108015D01*
X141502984Y-65982485D01*
X141540500Y-65842475D01*
X141540500Y-65697525D01*
X141502984Y-65557515D01*
X141499511Y-65551500D01*
X141430511Y-65431988D01*
X141430506Y-65431982D01*
X141376819Y-65378295D01*
X141343334Y-65316972D01*
X141340500Y-65290614D01*
X141340500Y-63589386D01*
X141360185Y-63522347D01*
X141376819Y-63501705D01*
X141430509Y-63448015D01*
X141502984Y-63322485D01*
X141540500Y-63182475D01*
X141540500Y-63037525D01*
X141502984Y-62897515D01*
X141500322Y-62892905D01*
X141430511Y-62771988D01*
X141430506Y-62771982D01*
X141328017Y-62669493D01*
X141328011Y-62669488D01*
X141202488Y-62597017D01*
X141202489Y-62597017D01*
X141174409Y-62589493D01*
X141062475Y-62559500D01*
X140917525Y-62559500D01*
X140805591Y-62589493D01*
X140777511Y-62597017D01*
X140651988Y-62669488D01*
X140651982Y-62669493D01*
X140549493Y-62771982D01*
X140549488Y-62771988D01*
X140477017Y-62897511D01*
X140464775Y-62943200D01*
X140428409Y-63002860D01*
X140365562Y-63033389D01*
X140296187Y-63025094D01*
X140242309Y-62980608D01*
X140225225Y-62943200D01*
X140212984Y-62897515D01*
X140210322Y-62892905D01*
X140140511Y-62771988D01*
X140140506Y-62771982D01*
X140038017Y-62669493D01*
X140038011Y-62669488D01*
X139912488Y-62597017D01*
X139912489Y-62597017D01*
X139884409Y-62589493D01*
X139772475Y-62559500D01*
X139627525Y-62559500D01*
X139515591Y-62589493D01*
X139487511Y-62597017D01*
X139361988Y-62669488D01*
X139361982Y-62669493D01*
X139259493Y-62771982D01*
X139259488Y-62771988D01*
X139187017Y-62897511D01*
X139187016Y-62897515D01*
X139149500Y-63037525D01*
X137483000Y-63037525D01*
X137483000Y-61274110D01*
X137487225Y-61242017D01*
X137490093Y-61231314D01*
X137500500Y-61192475D01*
X137500500Y-61047525D01*
X137464725Y-60914012D01*
X137460500Y-60881919D01*
X137460500Y-59697288D01*
X137469941Y-59649831D01*
X137472982Y-59642488D01*
X137472981Y-59642488D01*
X137472984Y-59642485D01*
X137510500Y-59502475D01*
X137510500Y-59357525D01*
X137472984Y-59217515D01*
X137434296Y-59150506D01*
X137400511Y-59091988D01*
X137400506Y-59091982D01*
X137298017Y-58989493D01*
X137298011Y-58989488D01*
X137172488Y-58917017D01*
X137172489Y-58917017D01*
X137161006Y-58913940D01*
X137032475Y-58879500D01*
X136887525Y-58879500D01*
X136758993Y-58913940D01*
X136747511Y-58917017D01*
X136621988Y-58989488D01*
X136621982Y-58989493D01*
X136519493Y-59091982D01*
X136519488Y-59091988D01*
X136447017Y-59217511D01*
X136447016Y-59217515D01*
X136409500Y-59357525D01*
X136409500Y-59502475D01*
X136439153Y-59613140D01*
X136447017Y-59642488D01*
X136450059Y-59649831D01*
X136459500Y-59697288D01*
X136459500Y-60835345D01*
X136459493Y-60835369D01*
X136459500Y-60835392D01*
X136454464Y-60870325D01*
X136450288Y-60884526D01*
X136437016Y-60907515D01*
X136399500Y-61047525D01*
X134946500Y-61047525D01*
X134946500Y-55659725D01*
X139037499Y-55659725D01*
X139076408Y-55855329D01*
X139076411Y-55855339D01*
X139152730Y-56039592D01*
X139152737Y-56039605D01*
X139263539Y-56205430D01*
X139263542Y-56205434D01*
X139404565Y-56346457D01*
X139404569Y-56346460D01*
X139570394Y-56457262D01*
X139570407Y-56457269D01*
X139754660Y-56533588D01*
X139754665Y-56533590D01*
X139754669Y-56533590D01*
X139754670Y-56533591D01*
X139950274Y-56572500D01*
X139950277Y-56572500D01*
X140149725Y-56572500D01*
X140281324Y-56546322D01*
X140345335Y-56533590D01*
X140529599Y-56457266D01*
X140695431Y-56346460D01*
X140836460Y-56205431D01*
X140947266Y-56039599D01*
X141023590Y-55855335D01*
X141062500Y-55659725D01*
X154277499Y-55659725D01*
X154316408Y-55855329D01*
X154316411Y-55855339D01*
X154392730Y-56039592D01*
X154392737Y-56039605D01*
X154503539Y-56205430D01*
X154503542Y-56205434D01*
X154644565Y-56346457D01*
X154644569Y-56346460D01*
X154810394Y-56457262D01*
X154810407Y-56457269D01*
X154994660Y-56533588D01*
X154994665Y-56533590D01*
X154994669Y-56533590D01*
X154994670Y-56533591D01*
X155190274Y-56572500D01*
X155190277Y-56572500D01*
X155389725Y-56572500D01*
X155521324Y-56546322D01*
X155585335Y-56533590D01*
X155769599Y-56457266D01*
X155935431Y-56346460D01*
X156076460Y-56205431D01*
X156187266Y-56039599D01*
X156263590Y-55855335D01*
X156302500Y-55659723D01*
X156302500Y-55483389D01*
X162339500Y-55483389D01*
X162339500Y-55656611D01*
X162366598Y-55827701D01*
X162420127Y-55992445D01*
X162498768Y-56146788D01*
X162600586Y-56286928D01*
X162723072Y-56409414D01*
X162863212Y-56511232D01*
X163017555Y-56589873D01*
X163182299Y-56643402D01*
X163353389Y-56670500D01*
X163353390Y-56670500D01*
X163526610Y-56670500D01*
X163526611Y-56670500D01*
X163697701Y-56643402D01*
X163862445Y-56589873D01*
X164016788Y-56511232D01*
X164156928Y-56409414D01*
X164279414Y-56286928D01*
X164381232Y-56146788D01*
X164459873Y-55992445D01*
X164513402Y-55827701D01*
X164540500Y-55656611D01*
X164540500Y-55483389D01*
X164513402Y-55312299D01*
X164459873Y-55147555D01*
X164381232Y-54993212D01*
X164279414Y-54853072D01*
X164156928Y-54730586D01*
X164016788Y-54628768D01*
X163862445Y-54550127D01*
X163697701Y-54496598D01*
X163697699Y-54496597D01*
X163697698Y-54496597D01*
X163566271Y-54475781D01*
X163526611Y-54469500D01*
X163353389Y-54469500D01*
X163313728Y-54475781D01*
X163182302Y-54496597D01*
X163017552Y-54550128D01*
X162863211Y-54628768D01*
X162783256Y-54686859D01*
X162723072Y-54730586D01*
X162723070Y-54730588D01*
X162723069Y-54730588D01*
X162600588Y-54853069D01*
X162600588Y-54853070D01*
X162600586Y-54853072D01*
X162581022Y-54880000D01*
X162498768Y-54993211D01*
X162420128Y-55147552D01*
X162366597Y-55312302D01*
X162343161Y-55460274D01*
X162339500Y-55483389D01*
X156302500Y-55483389D01*
X156302500Y-55460277D01*
X156302500Y-55460274D01*
X156263591Y-55264670D01*
X156263590Y-55264669D01*
X156263590Y-55264665D01*
X156195484Y-55100241D01*
X156187269Y-55080407D01*
X156187262Y-55080394D01*
X156076460Y-54914569D01*
X156076457Y-54914565D01*
X155935434Y-54773542D01*
X155935430Y-54773539D01*
X155769605Y-54662737D01*
X155769592Y-54662730D01*
X155585339Y-54586411D01*
X155585329Y-54586408D01*
X155389725Y-54547500D01*
X155389723Y-54547500D01*
X155190277Y-54547500D01*
X155190275Y-54547500D01*
X154994670Y-54586408D01*
X154994660Y-54586411D01*
X154810407Y-54662730D01*
X154810394Y-54662737D01*
X154644569Y-54773539D01*
X154644565Y-54773542D01*
X154503542Y-54914565D01*
X154503539Y-54914569D01*
X154392737Y-55080394D01*
X154392730Y-55080407D01*
X154316411Y-55264660D01*
X154316408Y-55264670D01*
X154277500Y-55460274D01*
X154277500Y-55460277D01*
X154277500Y-55659723D01*
X154277500Y-55659725D01*
X154277499Y-55659725D01*
X141062500Y-55659725D01*
X141062500Y-55659723D01*
X141062500Y-55460277D01*
X141062500Y-55460274D01*
X141023591Y-55264670D01*
X141023590Y-55264669D01*
X141023590Y-55264665D01*
X140955484Y-55100241D01*
X140947269Y-55080407D01*
X140947262Y-55080394D01*
X140836460Y-54914569D01*
X140836457Y-54914565D01*
X140695434Y-54773542D01*
X140695430Y-54773539D01*
X140529605Y-54662737D01*
X140529592Y-54662730D01*
X140345339Y-54586411D01*
X140345329Y-54586408D01*
X140149725Y-54547500D01*
X140149723Y-54547500D01*
X139950277Y-54547500D01*
X139950275Y-54547500D01*
X139754670Y-54586408D01*
X139754660Y-54586411D01*
X139570407Y-54662730D01*
X139570394Y-54662737D01*
X139404569Y-54773539D01*
X139404565Y-54773542D01*
X139263542Y-54914565D01*
X139263539Y-54914569D01*
X139152737Y-55080394D01*
X139152730Y-55080407D01*
X139076411Y-55264660D01*
X139076408Y-55264670D01*
X139037500Y-55460274D01*
X139037500Y-55460277D01*
X139037500Y-55659723D01*
X139037500Y-55659725D01*
X139037499Y-55659725D01*
X134946500Y-55659725D01*
X134946500Y-55100241D01*
X134966185Y-55033202D01*
X135011524Y-54993915D01*
X135010446Y-54992048D01*
X135017485Y-54987984D01*
X135143015Y-54915509D01*
X135245509Y-54813015D01*
X135317984Y-54687485D01*
X135355500Y-54547475D01*
X135355500Y-54402525D01*
X135317984Y-54262515D01*
X135262361Y-54166174D01*
X135245511Y-54136988D01*
X135245506Y-54136982D01*
X135143017Y-54034493D01*
X135143011Y-54034488D01*
X135017488Y-53962017D01*
X135017489Y-53962017D01*
X134994294Y-53955802D01*
X134877475Y-53924500D01*
X134868855Y-53924500D01*
X134801816Y-53904815D01*
X134756061Y-53852011D01*
X134747608Y-53795602D01*
X134745500Y-53795602D01*
X134745500Y-53642527D01*
X134745500Y-53642525D01*
X134707984Y-53502515D01*
X134706300Y-53499599D01*
X134635511Y-53376988D01*
X134635506Y-53376982D01*
X134533017Y-53274493D01*
X134533011Y-53274488D01*
X134407488Y-53202017D01*
X134407489Y-53202017D01*
X134396006Y-53198940D01*
X134267475Y-53164500D01*
X134122525Y-53164500D01*
X133993993Y-53198940D01*
X133982511Y-53202017D01*
X133856988Y-53274488D01*
X133856982Y-53274493D01*
X133754493Y-53376982D01*
X133754488Y-53376988D01*
X133682017Y-53502511D01*
X133682016Y-53502515D01*
X133644500Y-53642525D01*
X133644500Y-53787475D01*
X133675942Y-53904815D01*
X133682017Y-53927488D01*
X133754488Y-54053011D01*
X133754493Y-54053017D01*
X133808181Y-54106705D01*
X133841666Y-54168028D01*
X133844500Y-54194386D01*
X133844500Y-61483456D01*
X133824815Y-61550495D01*
X133808181Y-61571137D01*
X133441137Y-61938181D01*
X133379814Y-61971666D01*
X133353456Y-61974500D01*
X133277525Y-61974500D01*
X133148993Y-62008940D01*
X133137511Y-62012017D01*
X133011988Y-62084488D01*
X133011982Y-62084493D01*
X132909493Y-62186982D01*
X132909488Y-62186988D01*
X132837017Y-62312511D01*
X132837016Y-62312515D01*
X132799500Y-62452525D01*
X130903207Y-62452525D01*
X130645054Y-62194372D01*
X130611569Y-62133049D01*
X130608735Y-62106691D01*
X130608735Y-62030762D01*
X130608735Y-62030760D01*
X130571219Y-61890750D01*
X130554917Y-61862515D01*
X130498746Y-61765223D01*
X130498741Y-61765217D01*
X130396252Y-61662728D01*
X130396246Y-61662723D01*
X130270723Y-61590252D01*
X130270724Y-61590252D01*
X130259241Y-61587175D01*
X130130710Y-61552735D01*
X129985760Y-61552735D01*
X129857228Y-61587175D01*
X129845746Y-61590252D01*
X129720223Y-61662723D01*
X129720217Y-61662728D01*
X129617728Y-61765217D01*
X129617723Y-61765223D01*
X129545252Y-61890746D01*
X129545251Y-61890750D01*
X129507735Y-62030760D01*
X129507735Y-62175710D01*
X129537686Y-62287488D01*
X129545252Y-62315723D01*
X129617723Y-62441246D01*
X129622673Y-62447696D01*
X129620569Y-62449310D01*
X129647780Y-62499142D01*
X129642796Y-62568834D01*
X129600924Y-62624767D01*
X129535460Y-62649184D01*
X129526614Y-62649500D01*
X128059460Y-62649500D01*
X128030019Y-62640855D01*
X128000033Y-62634332D01*
X127995017Y-62630577D01*
X127992421Y-62629815D01*
X127971779Y-62613181D01*
X127902129Y-62543531D01*
X127868644Y-62482208D01*
X127865810Y-62455850D01*
X127865810Y-62379921D01*
X127865810Y-62379919D01*
X127828294Y-62239909D01*
X127764534Y-62129474D01*
X127748062Y-62061577D01*
X127770914Y-61995550D01*
X127773553Y-61991980D01*
X127774580Y-61990639D01*
X127774593Y-61990627D01*
X127847068Y-61865097D01*
X127884584Y-61725087D01*
X127884584Y-61580137D01*
X127847068Y-61440127D01*
X127842868Y-61432853D01*
X127774595Y-61314600D01*
X127774590Y-61314594D01*
X127736941Y-61276945D01*
X127703456Y-61215622D01*
X127708440Y-61145930D01*
X127731442Y-61110143D01*
X127730560Y-61109466D01*
X127735506Y-61103019D01*
X127735507Y-61103016D01*
X127735509Y-61103015D01*
X127807984Y-60977485D01*
X127845500Y-60837475D01*
X127845500Y-60692525D01*
X127807984Y-60552515D01*
X127735509Y-60426985D01*
X127633015Y-60324491D01*
X127633013Y-60324490D01*
X127633011Y-60324488D01*
X127507488Y-60252017D01*
X127507489Y-60252017D01*
X127496006Y-60248940D01*
X127367475Y-60214500D01*
X127222525Y-60214500D01*
X127082515Y-60252016D01*
X127082514Y-60252016D01*
X127082512Y-60252017D01*
X126971667Y-60316013D01*
X126903767Y-60332485D01*
X126837740Y-60309632D01*
X126821987Y-60296306D01*
X126762862Y-60237181D01*
X126729377Y-60175858D01*
X126734361Y-60106166D01*
X126776233Y-60050233D01*
X126841697Y-60025816D01*
X126850543Y-60025500D01*
X126937472Y-60025500D01*
X126937475Y-60025500D01*
X127077485Y-59987984D01*
X127203015Y-59915509D01*
X127305509Y-59813015D01*
X127377984Y-59687485D01*
X127415500Y-59547475D01*
X127415500Y-59471543D01*
X127424144Y-59442102D01*
X127430668Y-59412116D01*
X127434422Y-59407100D01*
X127435185Y-59404504D01*
X127451819Y-59383862D01*
X127538862Y-59296819D01*
X127600185Y-59263334D01*
X127626543Y-59260500D01*
X127702472Y-59260500D01*
X127702475Y-59260500D01*
X127842485Y-59222984D01*
X127968015Y-59150509D01*
X128070509Y-59048015D01*
X128142984Y-58922485D01*
X128180500Y-58782475D01*
X128180500Y-58637525D01*
X128142984Y-58497515D01*
X128116695Y-58451982D01*
X128070511Y-58371988D01*
X128070506Y-58371982D01*
X127968017Y-58269493D01*
X127968011Y-58269488D01*
X127842488Y-58197017D01*
X127842489Y-58197017D01*
X127831006Y-58193940D01*
X127702475Y-58159500D01*
X127557525Y-58159500D01*
X127428993Y-58193940D01*
X127417511Y-58197017D01*
X127291988Y-58269488D01*
X127291982Y-58269493D01*
X127189493Y-58371982D01*
X127189488Y-58371988D01*
X127117017Y-58497511D01*
X127117016Y-58497515D01*
X127079500Y-58637525D01*
X127079500Y-58637527D01*
X127079500Y-58713456D01*
X127070855Y-58742896D01*
X127064332Y-58772883D01*
X127060577Y-58777898D01*
X127059815Y-58780495D01*
X127043181Y-58801137D01*
X126956137Y-58888181D01*
X126894814Y-58921666D01*
X126868456Y-58924500D01*
X126792525Y-58924500D01*
X126663993Y-58958940D01*
X126652511Y-58962017D01*
X126526988Y-59034488D01*
X126526982Y-59034493D01*
X126424493Y-59136982D01*
X126424488Y-59136988D01*
X126352017Y-59262511D01*
X126350175Y-59269386D01*
X126314500Y-59402525D01*
X126314500Y-59402527D01*
X126314500Y-59489456D01*
X126308261Y-59510701D01*
X126306682Y-59532790D01*
X126298609Y-59543573D01*
X126294815Y-59556495D01*
X126278081Y-59570994D01*
X126264810Y-59588723D01*
X126252189Y-59593430D01*
X126242011Y-59602250D01*
X126220093Y-59605401D01*
X126199346Y-59613140D01*
X126186185Y-59610277D01*
X126172853Y-59612194D01*
X126152709Y-59602994D01*
X126131073Y-59598288D01*
X126113347Y-59585019D01*
X126109297Y-59583169D01*
X126102819Y-59577137D01*
X125981819Y-59456137D01*
X125948334Y-59394814D01*
X125945500Y-59368456D01*
X125945500Y-59269386D01*
X125965185Y-59202347D01*
X125981819Y-59181705D01*
X126035509Y-59128015D01*
X126107984Y-59002485D01*
X126145500Y-58862475D01*
X126145500Y-58717525D01*
X126107984Y-58577515D01*
X126035509Y-58451985D01*
X125933015Y-58349491D01*
X125933013Y-58349490D01*
X125933011Y-58349488D01*
X125807488Y-58277017D01*
X125807489Y-58277017D01*
X125779409Y-58269493D01*
X125667475Y-58239500D01*
X125522525Y-58239500D01*
X125410591Y-58269493D01*
X125382511Y-58277017D01*
X125256988Y-58349488D01*
X125256982Y-58349493D01*
X125154493Y-58451982D01*
X125154488Y-58451988D01*
X125082017Y-58577511D01*
X125082016Y-58577515D01*
X125044500Y-58717525D01*
X125044500Y-58862475D01*
X125078534Y-58989491D01*
X125082017Y-59002488D01*
X125154488Y-59128011D01*
X125154493Y-59128017D01*
X125208181Y-59181705D01*
X125241666Y-59243028D01*
X125244500Y-59269386D01*
X125244500Y-59611145D01*
X125265685Y-59690209D01*
X125268385Y-59700287D01*
X125268387Y-59700291D01*
X125314527Y-59780208D01*
X125314529Y-59780211D01*
X125314530Y-59780212D01*
X126514531Y-60980212D01*
X126579788Y-61045469D01*
X126632260Y-61075764D01*
X126640063Y-61082150D01*
X126654314Y-61103009D01*
X126671747Y-61121294D01*
X126673688Y-61131369D01*
X126679477Y-61139842D01*
X126680188Y-61165094D01*
X126684969Y-61189901D01*
X126681155Y-61199427D01*
X126681444Y-61209684D01*
X126668388Y-61231314D01*
X126659000Y-61254765D01*
X126650642Y-61260716D01*
X126645340Y-61269502D01*
X126622665Y-61280638D01*
X126602086Y-61295293D01*
X126588009Y-61297659D01*
X126582626Y-61300304D01*
X126576487Y-61299597D01*
X126561531Y-61302112D01*
X125523689Y-61302112D01*
X125434545Y-61325998D01*
X125434542Y-61325999D01*
X125354624Y-61372139D01*
X125354619Y-61372143D01*
X125188582Y-61538181D01*
X125127259Y-61571666D01*
X125100901Y-61574500D01*
X123751268Y-61574500D01*
X123684229Y-61554815D01*
X123638474Y-61502011D01*
X123628530Y-61432853D01*
X123631490Y-61418419D01*
X123650500Y-61347475D01*
X123650500Y-61202525D01*
X123612984Y-61062515D01*
X123604329Y-61047525D01*
X123540511Y-60936988D01*
X123540506Y-60936982D01*
X123438017Y-60834493D01*
X123438011Y-60834488D01*
X123312488Y-60762017D01*
X123312489Y-60762017D01*
X123301006Y-60758940D01*
X123172475Y-60724500D01*
X123027525Y-60724500D01*
X122898993Y-60758940D01*
X122887511Y-60762017D01*
X122761988Y-60834488D01*
X122761982Y-60834493D01*
X122718295Y-60878181D01*
X122656972Y-60911666D01*
X122630614Y-60914500D01*
X122513913Y-60914500D01*
X122429997Y-60936984D01*
X122429998Y-60936985D01*
X122424768Y-60938386D01*
X122344848Y-60984527D01*
X122344843Y-60984531D01*
X120356384Y-62972989D01*
X120295061Y-63006474D01*
X120236611Y-63005083D01*
X120122475Y-62974500D01*
X119977525Y-62974500D01*
X119863389Y-63005083D01*
X119837511Y-63012017D01*
X119711988Y-63084488D01*
X119711982Y-63084493D01*
X119609493Y-63186982D01*
X119609488Y-63186988D01*
X119537017Y-63312511D01*
X119534344Y-63322488D01*
X119499500Y-63452525D01*
X117825500Y-63452525D01*
X117825500Y-62342288D01*
X117834941Y-62294831D01*
X117837982Y-62287488D01*
X117837981Y-62287488D01*
X117837984Y-62287485D01*
X117875500Y-62147475D01*
X117875500Y-62002525D01*
X117837984Y-61862515D01*
X117781812Y-61765223D01*
X117765511Y-61736988D01*
X117765506Y-61736982D01*
X117663017Y-61634493D01*
X117663011Y-61634488D01*
X117537488Y-61562017D01*
X117537489Y-61562017D01*
X117526006Y-61558940D01*
X117397475Y-61524500D01*
X117252525Y-61524500D01*
X117123993Y-61558940D01*
X117112511Y-61562017D01*
X116986988Y-61634488D01*
X116986982Y-61634493D01*
X116912681Y-61708795D01*
X116851358Y-61742280D01*
X116781666Y-61737296D01*
X116737319Y-61708795D01*
X116663017Y-61634493D01*
X116663011Y-61634488D01*
X116537488Y-61562017D01*
X116537489Y-61562017D01*
X116526006Y-61558940D01*
X116397475Y-61524500D01*
X116252525Y-61524500D01*
X116123993Y-61558940D01*
X116112511Y-61562017D01*
X115986988Y-61634488D01*
X115986982Y-61634493D01*
X115884493Y-61736982D01*
X115884488Y-61736988D01*
X115812017Y-61862511D01*
X115812016Y-61862515D01*
X115774500Y-62002525D01*
X99491373Y-62002525D01*
X99491373Y-52355321D01*
X109969500Y-52355321D01*
X109969500Y-54404678D01*
X109984032Y-54477735D01*
X109984033Y-54477739D01*
X109989892Y-54486507D01*
X110039399Y-54560601D01*
X110102343Y-54602658D01*
X110122260Y-54615966D01*
X110122264Y-54615967D01*
X110195321Y-54630499D01*
X110195324Y-54630500D01*
X110195326Y-54630500D01*
X112244676Y-54630500D01*
X112244677Y-54630499D01*
X112317740Y-54615966D01*
X112400601Y-54560601D01*
X112443366Y-54496598D01*
X112450108Y-54486508D01*
X112450108Y-54486507D01*
X112455965Y-54477741D01*
X112455964Y-54477741D01*
X112455966Y-54477740D01*
X112470500Y-54404674D01*
X112470500Y-53261947D01*
X117320000Y-53261947D01*
X117320000Y-53498052D01*
X117356934Y-53731247D01*
X117429897Y-53955802D01*
X117537087Y-54166174D01*
X117597338Y-54249104D01*
X117597340Y-54249105D01*
X118337037Y-53509408D01*
X118354075Y-53572993D01*
X118419901Y-53687007D01*
X118512993Y-53780099D01*
X118627007Y-53845925D01*
X118690590Y-53862962D01*
X117950893Y-54602658D01*
X118033828Y-54662914D01*
X118244197Y-54770102D01*
X118468752Y-54843065D01*
X118468751Y-54843065D01*
X118701948Y-54880000D01*
X118938052Y-54880000D01*
X119171247Y-54843065D01*
X119395802Y-54770102D01*
X119606163Y-54662918D01*
X119606169Y-54662914D01*
X119689104Y-54602658D01*
X119689105Y-54602658D01*
X118949408Y-53862962D01*
X119012993Y-53845925D01*
X119127007Y-53780099D01*
X119220099Y-53687007D01*
X119285925Y-53572993D01*
X119302962Y-53509408D01*
X120042658Y-54249105D01*
X120042658Y-54249104D01*
X120102914Y-54166169D01*
X120102918Y-54166163D01*
X120210102Y-53955802D01*
X120283065Y-53731247D01*
X120320000Y-53498052D01*
X120320000Y-53261947D01*
X120297474Y-53119725D01*
X139037499Y-53119725D01*
X139076408Y-53315329D01*
X139076411Y-53315339D01*
X139152730Y-53499592D01*
X139152737Y-53499605D01*
X139263539Y-53665430D01*
X139263542Y-53665434D01*
X139404565Y-53806457D01*
X139404569Y-53806460D01*
X139570394Y-53917262D01*
X139570407Y-53917269D01*
X139754660Y-53993588D01*
X139754665Y-53993590D01*
X139754669Y-53993590D01*
X139754670Y-53993591D01*
X139950274Y-54032500D01*
X139950277Y-54032500D01*
X140149725Y-54032500D01*
X140281324Y-54006322D01*
X140345335Y-53993590D01*
X140504928Y-53927485D01*
X140529592Y-53917269D01*
X140529592Y-53917268D01*
X140529599Y-53917266D01*
X140695431Y-53806460D01*
X140836460Y-53665431D01*
X140947266Y-53499599D01*
X141023590Y-53315335D01*
X141062500Y-53119725D01*
X154277499Y-53119725D01*
X154316408Y-53315329D01*
X154316411Y-53315339D01*
X154392730Y-53499592D01*
X154392737Y-53499605D01*
X154503539Y-53665430D01*
X154503542Y-53665434D01*
X154644565Y-53806457D01*
X154644569Y-53806460D01*
X154810394Y-53917262D01*
X154810407Y-53917269D01*
X154994660Y-53993588D01*
X154994665Y-53993590D01*
X154994669Y-53993590D01*
X154994670Y-53993591D01*
X155190274Y-54032500D01*
X155190277Y-54032500D01*
X155389725Y-54032500D01*
X155521324Y-54006322D01*
X155585335Y-53993590D01*
X155744928Y-53927485D01*
X155769592Y-53917269D01*
X155769592Y-53917268D01*
X155769599Y-53917266D01*
X155935431Y-53806460D01*
X156076460Y-53665431D01*
X156187266Y-53499599D01*
X156263590Y-53315335D01*
X156302500Y-53119723D01*
X156302500Y-52943389D01*
X162339500Y-52943389D01*
X162339500Y-53116610D01*
X162364505Y-53274491D01*
X162366598Y-53287701D01*
X162420127Y-53452445D01*
X162498768Y-53606788D01*
X162600586Y-53746928D01*
X162723072Y-53869414D01*
X162863212Y-53971232D01*
X163017555Y-54049873D01*
X163182299Y-54103402D01*
X163353389Y-54130500D01*
X163353390Y-54130500D01*
X163526610Y-54130500D01*
X163526611Y-54130500D01*
X163697701Y-54103402D01*
X163862445Y-54049873D01*
X164016788Y-53971232D01*
X164156928Y-53869414D01*
X164279414Y-53746928D01*
X164381232Y-53606788D01*
X164459873Y-53452445D01*
X164513402Y-53287701D01*
X164540500Y-53116611D01*
X164540500Y-52943389D01*
X164513402Y-52772299D01*
X164459873Y-52607555D01*
X164381232Y-52453212D01*
X164279414Y-52313072D01*
X164156928Y-52190586D01*
X164016788Y-52088768D01*
X163862445Y-52010127D01*
X163697701Y-51956598D01*
X163697699Y-51956597D01*
X163697698Y-51956597D01*
X163566271Y-51935781D01*
X163526611Y-51929500D01*
X163353389Y-51929500D01*
X163313728Y-51935781D01*
X163182302Y-51956597D01*
X163017552Y-52010128D01*
X162863211Y-52088768D01*
X162807149Y-52129500D01*
X162723072Y-52190586D01*
X162723070Y-52190588D01*
X162723069Y-52190588D01*
X162600588Y-52313069D01*
X162600588Y-52313070D01*
X162600586Y-52313072D01*
X162569890Y-52355321D01*
X162498768Y-52453211D01*
X162420128Y-52607552D01*
X162366597Y-52772302D01*
X162339500Y-52943389D01*
X156302500Y-52943389D01*
X156302500Y-52920277D01*
X156302500Y-52920274D01*
X156263591Y-52724670D01*
X156263590Y-52724669D01*
X156263590Y-52724665D01*
X156209396Y-52593828D01*
X156187269Y-52540407D01*
X156187262Y-52540394D01*
X156076460Y-52374569D01*
X156076457Y-52374565D01*
X155935434Y-52233542D01*
X155935430Y-52233539D01*
X155769605Y-52122737D01*
X155769592Y-52122730D01*
X155585339Y-52046411D01*
X155585329Y-52046408D01*
X155389725Y-52007500D01*
X155389723Y-52007500D01*
X155190277Y-52007500D01*
X155190275Y-52007500D01*
X154994670Y-52046408D01*
X154994660Y-52046411D01*
X154810407Y-52122730D01*
X154810394Y-52122737D01*
X154644569Y-52233539D01*
X154644565Y-52233542D01*
X154503542Y-52374565D01*
X154503539Y-52374569D01*
X154392737Y-52540394D01*
X154392730Y-52540407D01*
X154316411Y-52724660D01*
X154316408Y-52724670D01*
X154277500Y-52920274D01*
X154277500Y-52920277D01*
X154277500Y-53119723D01*
X154277500Y-53119725D01*
X154277499Y-53119725D01*
X141062500Y-53119725D01*
X141062500Y-53119723D01*
X141062500Y-52920277D01*
X141062500Y-52920274D01*
X141023591Y-52724670D01*
X141023590Y-52724669D01*
X141023590Y-52724665D01*
X140969396Y-52593828D01*
X140947269Y-52540407D01*
X140947262Y-52540394D01*
X140836460Y-52374569D01*
X140836457Y-52374565D01*
X140695434Y-52233542D01*
X140695430Y-52233539D01*
X140529605Y-52122737D01*
X140529592Y-52122730D01*
X140345339Y-52046411D01*
X140345329Y-52046408D01*
X140149725Y-52007500D01*
X140149723Y-52007500D01*
X139950277Y-52007500D01*
X139950275Y-52007500D01*
X139754670Y-52046408D01*
X139754660Y-52046411D01*
X139570407Y-52122730D01*
X139570394Y-52122737D01*
X139404569Y-52233539D01*
X139404565Y-52233542D01*
X139263542Y-52374565D01*
X139263539Y-52374569D01*
X139152737Y-52540394D01*
X139152730Y-52540407D01*
X139076411Y-52724660D01*
X139076408Y-52724670D01*
X139037500Y-52920274D01*
X139037500Y-52920277D01*
X139037500Y-53119723D01*
X139037500Y-53119725D01*
X139037499Y-53119725D01*
X120297474Y-53119725D01*
X120283065Y-53028751D01*
X120258291Y-52952503D01*
X120210102Y-52804195D01*
X120102914Y-52593828D01*
X120042658Y-52510894D01*
X120042658Y-52510893D01*
X119302962Y-53250590D01*
X119285925Y-53187007D01*
X119220099Y-53072993D01*
X119127007Y-52979901D01*
X119012993Y-52914075D01*
X118949409Y-52897037D01*
X119689105Y-52157340D01*
X119689104Y-52157338D01*
X119606174Y-52097087D01*
X119395802Y-51989897D01*
X119171247Y-51916934D01*
X119171248Y-51916934D01*
X118938052Y-51880000D01*
X118701948Y-51880000D01*
X118468752Y-51916934D01*
X118244197Y-51989897D01*
X118033830Y-52097084D01*
X117950894Y-52157340D01*
X118690591Y-52897037D01*
X118627007Y-52914075D01*
X118512993Y-52979901D01*
X118419901Y-53072993D01*
X118354075Y-53187007D01*
X118337037Y-53250591D01*
X117597340Y-52510894D01*
X117537084Y-52593830D01*
X117429897Y-52804197D01*
X117356934Y-53028752D01*
X117320000Y-53261947D01*
X112470500Y-53261947D01*
X112470500Y-52355326D01*
X112470500Y-52355323D01*
X112470499Y-52355321D01*
X112455967Y-52282264D01*
X112455966Y-52282262D01*
X112455966Y-52282260D01*
X112400601Y-52199399D01*
X112317740Y-52144034D01*
X112317739Y-52144033D01*
X112317735Y-52144032D01*
X112244677Y-52129500D01*
X112244674Y-52129500D01*
X111694500Y-52129500D01*
X111627461Y-52109815D01*
X111581706Y-52057011D01*
X111570500Y-52005500D01*
X111570500Y-50579725D01*
X139037499Y-50579725D01*
X139076408Y-50775329D01*
X139076411Y-50775339D01*
X139152730Y-50959592D01*
X139152737Y-50959605D01*
X139263539Y-51125430D01*
X139263542Y-51125434D01*
X139404565Y-51266457D01*
X139404569Y-51266460D01*
X139570394Y-51377262D01*
X139570407Y-51377269D01*
X139754660Y-51453588D01*
X139754665Y-51453590D01*
X139754669Y-51453590D01*
X139754670Y-51453591D01*
X139950274Y-51492500D01*
X139950277Y-51492500D01*
X140149725Y-51492500D01*
X140281324Y-51466322D01*
X140345335Y-51453590D01*
X140529599Y-51377266D01*
X140695431Y-51266460D01*
X140836460Y-51125431D01*
X140947266Y-50959599D01*
X141023590Y-50775335D01*
X141062500Y-50579725D01*
X154277499Y-50579725D01*
X154316408Y-50775329D01*
X154316411Y-50775339D01*
X154392730Y-50959592D01*
X154392737Y-50959605D01*
X154503539Y-51125430D01*
X154503542Y-51125434D01*
X154644565Y-51266457D01*
X154644569Y-51266460D01*
X154810394Y-51377262D01*
X154810407Y-51377269D01*
X154994660Y-51453588D01*
X154994665Y-51453590D01*
X154994669Y-51453590D01*
X154994670Y-51453591D01*
X155190274Y-51492500D01*
X155190277Y-51492500D01*
X155389725Y-51492500D01*
X155521324Y-51466322D01*
X155585335Y-51453590D01*
X155769599Y-51377266D01*
X155935431Y-51266460D01*
X156076460Y-51125431D01*
X156187266Y-50959599D01*
X156263590Y-50775335D01*
X156302500Y-50579723D01*
X156302500Y-50403389D01*
X162339500Y-50403389D01*
X162339500Y-50576611D01*
X162366598Y-50747701D01*
X162420127Y-50912445D01*
X162498768Y-51066788D01*
X162600586Y-51206928D01*
X162723072Y-51329414D01*
X162863212Y-51431232D01*
X163017555Y-51509873D01*
X163182299Y-51563402D01*
X163353389Y-51590500D01*
X163353390Y-51590500D01*
X163526610Y-51590500D01*
X163526611Y-51590500D01*
X163697701Y-51563402D01*
X163862445Y-51509873D01*
X164016788Y-51431232D01*
X164156928Y-51329414D01*
X164279414Y-51206928D01*
X164381232Y-51066788D01*
X164459873Y-50912445D01*
X164513402Y-50747701D01*
X164540500Y-50576611D01*
X164540500Y-50403389D01*
X164513402Y-50232299D01*
X164459873Y-50067555D01*
X164381232Y-49913212D01*
X164279414Y-49773072D01*
X164156928Y-49650586D01*
X164016788Y-49548768D01*
X163862445Y-49470127D01*
X163697701Y-49416598D01*
X163697699Y-49416597D01*
X163697698Y-49416597D01*
X163566271Y-49395781D01*
X163526611Y-49389500D01*
X163353389Y-49389500D01*
X163313728Y-49395781D01*
X163182302Y-49416597D01*
X163017552Y-49470128D01*
X162863211Y-49548768D01*
X162783256Y-49606859D01*
X162723072Y-49650586D01*
X162723070Y-49650588D01*
X162723069Y-49650588D01*
X162600588Y-49773069D01*
X162600588Y-49773070D01*
X162600586Y-49773072D01*
X162556859Y-49833256D01*
X162498768Y-49913211D01*
X162420128Y-50067552D01*
X162366597Y-50232302D01*
X162343161Y-50380274D01*
X162339500Y-50403389D01*
X156302500Y-50403389D01*
X156302500Y-50380277D01*
X156302500Y-50380274D01*
X156263591Y-50184670D01*
X156263590Y-50184669D01*
X156263590Y-50184665D01*
X156215081Y-50067552D01*
X156187269Y-50000407D01*
X156187262Y-50000394D01*
X156076460Y-49834569D01*
X156076457Y-49834565D01*
X155935434Y-49693542D01*
X155935430Y-49693539D01*
X155769605Y-49582737D01*
X155769592Y-49582730D01*
X155585339Y-49506411D01*
X155585329Y-49506408D01*
X155389725Y-49467500D01*
X155389723Y-49467500D01*
X155190277Y-49467500D01*
X155190275Y-49467500D01*
X154994670Y-49506408D01*
X154994660Y-49506411D01*
X154810407Y-49582730D01*
X154810394Y-49582737D01*
X154644569Y-49693539D01*
X154644565Y-49693542D01*
X154503542Y-49834565D01*
X154503539Y-49834569D01*
X154392737Y-50000394D01*
X154392730Y-50000407D01*
X154316411Y-50184660D01*
X154316408Y-50184670D01*
X154277500Y-50380274D01*
X154277500Y-50380277D01*
X154277500Y-50579723D01*
X154277500Y-50579725D01*
X154277499Y-50579725D01*
X141062500Y-50579725D01*
X141062500Y-50579723D01*
X141062500Y-50380277D01*
X141062500Y-50380274D01*
X141023591Y-50184670D01*
X141023590Y-50184669D01*
X141023590Y-50184665D01*
X140975081Y-50067552D01*
X140947269Y-50000407D01*
X140947262Y-50000394D01*
X140836460Y-49834569D01*
X140836457Y-49834565D01*
X140695434Y-49693542D01*
X140695430Y-49693539D01*
X140529605Y-49582737D01*
X140529592Y-49582730D01*
X140345339Y-49506411D01*
X140345329Y-49506408D01*
X140149725Y-49467500D01*
X140149723Y-49467500D01*
X139950277Y-49467500D01*
X139950275Y-49467500D01*
X139754670Y-49506408D01*
X139754660Y-49506411D01*
X139570407Y-49582730D01*
X139570394Y-49582737D01*
X139404569Y-49693539D01*
X139404565Y-49693542D01*
X139263542Y-49834565D01*
X139263539Y-49834569D01*
X139152737Y-50000394D01*
X139152730Y-50000407D01*
X139076411Y-50184660D01*
X139076408Y-50184670D01*
X139037500Y-50380274D01*
X139037500Y-50380277D01*
X139037500Y-50579723D01*
X139037500Y-50579725D01*
X139037499Y-50579725D01*
X111570500Y-50579725D01*
X111570500Y-48039725D01*
X139037499Y-48039725D01*
X139076408Y-48235329D01*
X139076411Y-48235339D01*
X139152730Y-48419592D01*
X139152737Y-48419605D01*
X139263539Y-48585430D01*
X139263542Y-48585434D01*
X139404565Y-48726457D01*
X139404569Y-48726460D01*
X139570394Y-48837262D01*
X139570407Y-48837269D01*
X139754660Y-48913588D01*
X139754665Y-48913590D01*
X139754669Y-48913590D01*
X139754670Y-48913591D01*
X139950274Y-48952500D01*
X139950277Y-48952500D01*
X140149725Y-48952500D01*
X140281324Y-48926322D01*
X140345335Y-48913590D01*
X140529599Y-48837266D01*
X140695431Y-48726460D01*
X140836460Y-48585431D01*
X140947266Y-48419599D01*
X141023590Y-48235335D01*
X141062500Y-48039725D01*
X154277499Y-48039725D01*
X154316408Y-48235329D01*
X154316411Y-48235339D01*
X154392730Y-48419592D01*
X154392737Y-48419605D01*
X154503539Y-48585430D01*
X154503542Y-48585434D01*
X154644565Y-48726457D01*
X154644569Y-48726460D01*
X154810394Y-48837262D01*
X154810407Y-48837269D01*
X154994660Y-48913588D01*
X154994665Y-48913590D01*
X154994669Y-48913590D01*
X154994670Y-48913591D01*
X155190274Y-48952500D01*
X155190277Y-48952500D01*
X155389725Y-48952500D01*
X155521324Y-48926322D01*
X155585335Y-48913590D01*
X155769599Y-48837266D01*
X155935431Y-48726460D01*
X156076460Y-48585431D01*
X156187266Y-48419599D01*
X156263590Y-48235335D01*
X156302500Y-48039723D01*
X156302500Y-47863389D01*
X162339500Y-47863389D01*
X162339500Y-48036611D01*
X162366598Y-48207701D01*
X162420127Y-48372445D01*
X162498768Y-48526788D01*
X162600586Y-48666928D01*
X162723072Y-48789414D01*
X162863212Y-48891232D01*
X163017555Y-48969873D01*
X163182299Y-49023402D01*
X163353389Y-49050500D01*
X163353390Y-49050500D01*
X163526610Y-49050500D01*
X163526611Y-49050500D01*
X163697701Y-49023402D01*
X163862445Y-48969873D01*
X164016788Y-48891232D01*
X164156928Y-48789414D01*
X164279414Y-48666928D01*
X164381232Y-48526788D01*
X164459873Y-48372445D01*
X164513402Y-48207701D01*
X164540500Y-48036611D01*
X164540500Y-47863389D01*
X164513402Y-47692299D01*
X164459873Y-47527555D01*
X164381232Y-47373212D01*
X164279414Y-47233072D01*
X164156928Y-47110586D01*
X164016788Y-47008768D01*
X163862445Y-46930127D01*
X163697701Y-46876598D01*
X163697699Y-46876597D01*
X163697698Y-46876597D01*
X163566271Y-46855781D01*
X163526611Y-46849500D01*
X163353389Y-46849500D01*
X163313728Y-46855781D01*
X163182302Y-46876597D01*
X163017552Y-46930128D01*
X162863211Y-47008768D01*
X162783256Y-47066859D01*
X162723072Y-47110586D01*
X162723070Y-47110588D01*
X162723069Y-47110588D01*
X162600588Y-47233069D01*
X162600588Y-47233070D01*
X162600586Y-47233072D01*
X162556859Y-47293256D01*
X162498768Y-47373211D01*
X162420128Y-47527552D01*
X162366597Y-47692302D01*
X162343161Y-47840274D01*
X162339500Y-47863389D01*
X156302500Y-47863389D01*
X156302500Y-47840277D01*
X156302500Y-47840274D01*
X156263591Y-47644670D01*
X156263590Y-47644669D01*
X156263590Y-47644665D01*
X156215081Y-47527552D01*
X156187269Y-47460407D01*
X156187262Y-47460394D01*
X156076460Y-47294569D01*
X156076457Y-47294565D01*
X155935434Y-47153542D01*
X155935430Y-47153539D01*
X155769605Y-47042737D01*
X155769592Y-47042730D01*
X155585339Y-46966411D01*
X155585329Y-46966408D01*
X155389725Y-46927500D01*
X155389723Y-46927500D01*
X155190277Y-46927500D01*
X155190275Y-46927500D01*
X154994670Y-46966408D01*
X154994660Y-46966411D01*
X154810407Y-47042730D01*
X154810394Y-47042737D01*
X154644569Y-47153539D01*
X154644565Y-47153542D01*
X154503542Y-47294565D01*
X154503539Y-47294569D01*
X154392737Y-47460394D01*
X154392730Y-47460407D01*
X154316411Y-47644660D01*
X154316408Y-47644670D01*
X154277500Y-47840274D01*
X154277500Y-47840277D01*
X154277500Y-48039723D01*
X154277500Y-48039725D01*
X154277499Y-48039725D01*
X141062500Y-48039725D01*
X141062500Y-48039723D01*
X141062500Y-47840277D01*
X141062500Y-47840274D01*
X141023591Y-47644670D01*
X141023590Y-47644669D01*
X141023590Y-47644665D01*
X140975081Y-47527552D01*
X140947269Y-47460407D01*
X140947262Y-47460394D01*
X140836460Y-47294569D01*
X140836457Y-47294565D01*
X140695434Y-47153542D01*
X140695430Y-47153539D01*
X140529605Y-47042737D01*
X140529592Y-47042730D01*
X140345339Y-46966411D01*
X140345329Y-46966408D01*
X140149725Y-46927500D01*
X140149723Y-46927500D01*
X139950277Y-46927500D01*
X139950275Y-46927500D01*
X139754670Y-46966408D01*
X139754660Y-46966411D01*
X139570407Y-47042730D01*
X139570394Y-47042737D01*
X139404569Y-47153539D01*
X139404565Y-47153542D01*
X139263542Y-47294565D01*
X139263539Y-47294569D01*
X139152737Y-47460394D01*
X139152730Y-47460407D01*
X139076411Y-47644660D01*
X139076408Y-47644670D01*
X139037500Y-47840274D01*
X139037500Y-47840277D01*
X139037500Y-48039723D01*
X139037500Y-48039725D01*
X139037499Y-48039725D01*
X111570500Y-48039725D01*
X111570500Y-45499725D01*
X139037499Y-45499725D01*
X139076408Y-45695329D01*
X139076411Y-45695339D01*
X139152730Y-45879592D01*
X139152737Y-45879605D01*
X139263539Y-46045430D01*
X139263542Y-46045434D01*
X139404565Y-46186457D01*
X139404569Y-46186460D01*
X139570394Y-46297262D01*
X139570407Y-46297269D01*
X139754660Y-46373588D01*
X139754665Y-46373590D01*
X139754669Y-46373590D01*
X139754670Y-46373591D01*
X139950274Y-46412500D01*
X139950277Y-46412500D01*
X140149725Y-46412500D01*
X140281324Y-46386322D01*
X140345335Y-46373590D01*
X140529599Y-46297266D01*
X140695431Y-46186460D01*
X140836460Y-46045431D01*
X140947266Y-45879599D01*
X141023590Y-45695335D01*
X141062500Y-45499725D01*
X154277499Y-45499725D01*
X154316408Y-45695329D01*
X154316411Y-45695339D01*
X154392730Y-45879592D01*
X154392737Y-45879605D01*
X154503539Y-46045430D01*
X154503542Y-46045434D01*
X154644565Y-46186457D01*
X154644569Y-46186460D01*
X154810394Y-46297262D01*
X154810407Y-46297269D01*
X154994660Y-46373588D01*
X154994665Y-46373590D01*
X154994669Y-46373590D01*
X154994670Y-46373591D01*
X155190274Y-46412500D01*
X155190277Y-46412500D01*
X155389725Y-46412500D01*
X155521324Y-46386322D01*
X155585335Y-46373590D01*
X155769599Y-46297266D01*
X155935431Y-46186460D01*
X156076460Y-46045431D01*
X156187266Y-45879599D01*
X156263590Y-45695335D01*
X156302500Y-45499723D01*
X156302500Y-45300277D01*
X156302500Y-45300274D01*
X156263591Y-45104670D01*
X156263590Y-45104669D01*
X156263590Y-45104665D01*
X156215081Y-44987552D01*
X156187269Y-44920407D01*
X156187262Y-44920394D01*
X156076460Y-44754569D01*
X156076457Y-44754565D01*
X155935434Y-44613542D01*
X155935430Y-44613539D01*
X155769605Y-44502737D01*
X155769592Y-44502730D01*
X155585339Y-44426411D01*
X155585329Y-44426408D01*
X155389725Y-44387500D01*
X155389723Y-44387500D01*
X155190277Y-44387500D01*
X155190275Y-44387500D01*
X154994670Y-44426408D01*
X154994660Y-44426411D01*
X154810407Y-44502730D01*
X154810394Y-44502737D01*
X154644569Y-44613539D01*
X154644565Y-44613542D01*
X154503542Y-44754565D01*
X154503539Y-44754569D01*
X154392737Y-44920394D01*
X154392730Y-44920407D01*
X154316411Y-45104660D01*
X154316408Y-45104670D01*
X154277500Y-45300274D01*
X154277500Y-45300277D01*
X154277500Y-45499723D01*
X154277500Y-45499725D01*
X154277499Y-45499725D01*
X141062500Y-45499725D01*
X141062500Y-45499723D01*
X141062500Y-45300277D01*
X141062500Y-45300274D01*
X141023591Y-45104670D01*
X141023590Y-45104669D01*
X141023590Y-45104665D01*
X140975081Y-44987552D01*
X140947269Y-44920407D01*
X140947262Y-44920394D01*
X140836460Y-44754569D01*
X140836457Y-44754565D01*
X140695434Y-44613542D01*
X140695430Y-44613539D01*
X140529605Y-44502737D01*
X140529592Y-44502730D01*
X140345339Y-44426411D01*
X140345329Y-44426408D01*
X140149725Y-44387500D01*
X140149723Y-44387500D01*
X139950277Y-44387500D01*
X139950275Y-44387500D01*
X139754670Y-44426408D01*
X139754660Y-44426411D01*
X139570407Y-44502730D01*
X139570394Y-44502737D01*
X139404569Y-44613539D01*
X139404565Y-44613542D01*
X139263542Y-44754565D01*
X139263539Y-44754569D01*
X139152737Y-44920394D01*
X139152730Y-44920407D01*
X139076411Y-45104660D01*
X139076408Y-45104670D01*
X139037500Y-45300274D01*
X139037500Y-45300277D01*
X139037500Y-45499723D01*
X139037500Y-45499725D01*
X139037499Y-45499725D01*
X111570500Y-45499725D01*
X111570500Y-43047682D01*
X121810000Y-43047682D01*
X121810000Y-43252317D01*
X121842009Y-43454417D01*
X121905244Y-43649031D01*
X121998141Y-43831350D01*
X121998147Y-43831359D01*
X122030523Y-43875921D01*
X122030524Y-43875922D01*
X122659697Y-43246749D01*
X122681349Y-43327553D01*
X122741909Y-43432446D01*
X122827554Y-43518091D01*
X122932447Y-43578651D01*
X123013249Y-43600302D01*
X122384076Y-44229474D01*
X122428650Y-44261859D01*
X122610968Y-44354755D01*
X122805582Y-44417990D01*
X123007683Y-44450000D01*
X123212317Y-44450000D01*
X123414417Y-44417990D01*
X123609031Y-44354755D01*
X123791349Y-44261859D01*
X123835921Y-44229474D01*
X123206749Y-43600302D01*
X123287553Y-43578651D01*
X123392446Y-43518091D01*
X123478091Y-43432446D01*
X123538651Y-43327553D01*
X123560302Y-43246749D01*
X124189474Y-43875921D01*
X124221859Y-43831349D01*
X124314754Y-43649031D01*
X124371297Y-43475015D01*
X124410735Y-43417340D01*
X124475094Y-43390142D01*
X124543940Y-43402057D01*
X124595416Y-43449301D01*
X124603789Y-43465881D01*
X124679057Y-43647596D01*
X124794024Y-43819657D01*
X124940342Y-43965975D01*
X124940345Y-43965977D01*
X125112402Y-44080941D01*
X125303580Y-44160130D01*
X125506530Y-44200499D01*
X125506534Y-44200500D01*
X125506535Y-44200500D01*
X125713466Y-44200500D01*
X125713467Y-44200499D01*
X125916420Y-44160130D01*
X126107598Y-44080941D01*
X126279655Y-43965977D01*
X126425977Y-43819655D01*
X126506898Y-43698546D01*
X126560509Y-43653742D01*
X126629834Y-43645035D01*
X126692862Y-43675189D01*
X126713100Y-43698545D01*
X126752334Y-43757262D01*
X126794024Y-43819657D01*
X126940342Y-43965975D01*
X126940345Y-43965977D01*
X127112402Y-44080941D01*
X127303580Y-44160130D01*
X127506530Y-44200499D01*
X127506534Y-44200500D01*
X127506535Y-44200500D01*
X127713466Y-44200500D01*
X127713467Y-44200499D01*
X127916420Y-44160130D01*
X128107598Y-44080941D01*
X128279655Y-43965977D01*
X128425977Y-43819655D01*
X128540941Y-43647598D01*
X128620130Y-43456420D01*
X128660500Y-43253465D01*
X128660500Y-43046535D01*
X128620130Y-42843580D01*
X128540941Y-42652402D01*
X128425977Y-42480345D01*
X128425975Y-42480342D01*
X128279657Y-42334024D01*
X128266632Y-42325321D01*
X129059500Y-42325321D01*
X129059500Y-43974678D01*
X129074032Y-44047735D01*
X129074033Y-44047739D01*
X129074034Y-44047740D01*
X129129399Y-44130601D01*
X129212260Y-44185966D01*
X129212264Y-44185967D01*
X129285321Y-44200499D01*
X129285324Y-44200500D01*
X129285326Y-44200500D01*
X130934676Y-44200500D01*
X130934677Y-44200499D01*
X131007740Y-44185966D01*
X131090601Y-44130601D01*
X131145966Y-44047740D01*
X131160500Y-43974674D01*
X131160500Y-42959725D01*
X139037499Y-42959725D01*
X139076408Y-43155329D01*
X139076411Y-43155339D01*
X139152730Y-43339592D01*
X139152737Y-43339605D01*
X139263539Y-43505430D01*
X139263542Y-43505434D01*
X139404565Y-43646457D01*
X139404569Y-43646460D01*
X139570394Y-43757262D01*
X139570407Y-43757269D01*
X139749257Y-43831350D01*
X139754665Y-43833590D01*
X139754669Y-43833590D01*
X139754670Y-43833591D01*
X139950274Y-43872500D01*
X139950277Y-43872500D01*
X140149725Y-43872500D01*
X140281324Y-43846322D01*
X140345335Y-43833590D01*
X140529599Y-43757266D01*
X140695431Y-43646460D01*
X140836460Y-43505431D01*
X140947266Y-43339599D01*
X141023590Y-43155335D01*
X141045233Y-43046530D01*
X141062500Y-42959725D01*
X141062500Y-42760678D01*
X154028000Y-42760678D01*
X154028000Y-42959321D01*
X154059075Y-43155520D01*
X154059075Y-43155523D01*
X154120457Y-43344437D01*
X154210641Y-43521432D01*
X154237730Y-43558715D01*
X154237731Y-43558716D01*
X154852352Y-42944094D01*
X154875792Y-43031571D01*
X154934311Y-43132930D01*
X155017070Y-43215689D01*
X155118429Y-43274208D01*
X155205905Y-43297647D01*
X154591283Y-43912268D01*
X154591283Y-43912269D01*
X154628567Y-43939358D01*
X154805562Y-44029542D01*
X154994477Y-44090924D01*
X155190679Y-44122000D01*
X155389321Y-44122000D01*
X155585520Y-44090924D01*
X155585523Y-44090924D01*
X155774437Y-44029542D01*
X155951425Y-43939362D01*
X155988716Y-43912268D01*
X155374095Y-43297647D01*
X155461571Y-43274208D01*
X155562930Y-43215689D01*
X155645689Y-43132930D01*
X155704208Y-43031571D01*
X155727647Y-42944094D01*
X156342268Y-43558715D01*
X156369362Y-43521425D01*
X156459542Y-43344437D01*
X156520924Y-43155523D01*
X156520924Y-43155520D01*
X156537758Y-43049240D01*
X156552000Y-42959321D01*
X156552000Y-42760678D01*
X156520924Y-42564479D01*
X156520924Y-42564476D01*
X156459542Y-42375562D01*
X156369358Y-42198567D01*
X156342268Y-42161283D01*
X155727647Y-42775904D01*
X155704208Y-42688429D01*
X155645689Y-42587070D01*
X155562930Y-42504311D01*
X155461571Y-42445792D01*
X155374094Y-42422352D01*
X155824292Y-41972155D01*
X162090000Y-41972155D01*
X162090000Y-42620000D01*
X163006988Y-42620000D01*
X162974075Y-42677007D01*
X162940000Y-42804174D01*
X162940000Y-42935826D01*
X162974075Y-43062993D01*
X163006988Y-43120000D01*
X162090000Y-43120000D01*
X162090000Y-43767844D01*
X162096401Y-43827372D01*
X162096403Y-43827379D01*
X162146645Y-43962086D01*
X162146649Y-43962093D01*
X162232809Y-44077187D01*
X162232812Y-44077190D01*
X162347906Y-44163350D01*
X162347913Y-44163354D01*
X162482620Y-44213596D01*
X162482627Y-44213598D01*
X162542155Y-44219999D01*
X162542172Y-44220000D01*
X162834949Y-44220000D01*
X162901988Y-44239685D01*
X162947743Y-44292489D01*
X162957687Y-44361647D01*
X162928662Y-44425203D01*
X162891244Y-44454485D01*
X162863211Y-44468768D01*
X162783256Y-44526859D01*
X162723072Y-44570586D01*
X162723070Y-44570588D01*
X162723069Y-44570588D01*
X162600588Y-44693069D01*
X162600588Y-44693070D01*
X162600586Y-44693072D01*
X162556859Y-44753256D01*
X162498768Y-44833211D01*
X162420128Y-44987552D01*
X162366597Y-45152302D01*
X162343161Y-45300274D01*
X162339500Y-45323389D01*
X162339500Y-45496611D01*
X162366598Y-45667701D01*
X162420127Y-45832445D01*
X162498768Y-45986788D01*
X162600586Y-46126928D01*
X162723072Y-46249414D01*
X162863212Y-46351232D01*
X163017555Y-46429873D01*
X163182299Y-46483402D01*
X163353389Y-46510500D01*
X163353390Y-46510500D01*
X163526610Y-46510500D01*
X163526611Y-46510500D01*
X163697701Y-46483402D01*
X163862445Y-46429873D01*
X164016788Y-46351232D01*
X164156928Y-46249414D01*
X164279414Y-46126928D01*
X164381232Y-45986788D01*
X164459873Y-45832445D01*
X164513402Y-45667701D01*
X164540500Y-45496611D01*
X164540500Y-45323389D01*
X164513402Y-45152299D01*
X164459873Y-44987555D01*
X164381232Y-44833212D01*
X164279414Y-44693072D01*
X164156928Y-44570586D01*
X164016788Y-44468768D01*
X163988756Y-44454485D01*
X163937960Y-44406510D01*
X163921165Y-44338689D01*
X163943703Y-44272554D01*
X163998418Y-44229103D01*
X164045051Y-44220000D01*
X164337828Y-44220000D01*
X164337844Y-44219999D01*
X164397372Y-44213598D01*
X164397379Y-44213596D01*
X164532086Y-44163354D01*
X164532093Y-44163350D01*
X164647187Y-44077190D01*
X164647190Y-44077187D01*
X164733350Y-43962093D01*
X164733354Y-43962086D01*
X164783596Y-43827379D01*
X164783598Y-43827372D01*
X164789999Y-43767844D01*
X164790000Y-43767827D01*
X164790000Y-43120000D01*
X163873012Y-43120000D01*
X163905925Y-43062993D01*
X163940000Y-42935826D01*
X163940000Y-42804174D01*
X163905925Y-42677007D01*
X163873012Y-42620000D01*
X164790000Y-42620000D01*
X164790000Y-41972172D01*
X164789999Y-41972155D01*
X164783598Y-41912627D01*
X164783596Y-41912620D01*
X164733354Y-41777913D01*
X164733350Y-41777906D01*
X164647190Y-41662812D01*
X164647187Y-41662809D01*
X164532093Y-41576649D01*
X164532086Y-41576645D01*
X164397379Y-41526403D01*
X164397372Y-41526401D01*
X164337844Y-41520000D01*
X163690000Y-41520000D01*
X163690000Y-42436988D01*
X163632993Y-42404075D01*
X163505826Y-42370000D01*
X163374174Y-42370000D01*
X163247007Y-42404075D01*
X163190000Y-42436988D01*
X163190000Y-41520000D01*
X162542155Y-41520000D01*
X162482627Y-41526401D01*
X162482620Y-41526403D01*
X162347913Y-41576645D01*
X162347906Y-41576649D01*
X162232812Y-41662809D01*
X162232809Y-41662812D01*
X162146649Y-41777906D01*
X162146645Y-41777913D01*
X162096403Y-41912620D01*
X162096401Y-41912627D01*
X162090000Y-41972155D01*
X155824292Y-41972155D01*
X155988716Y-41807731D01*
X155988715Y-41807730D01*
X155951432Y-41780641D01*
X155774437Y-41690457D01*
X155585522Y-41629075D01*
X155389321Y-41598000D01*
X155190679Y-41598000D01*
X154994479Y-41629075D01*
X154994476Y-41629075D01*
X154805562Y-41690457D01*
X154628564Y-41780643D01*
X154591283Y-41807729D01*
X154591282Y-41807730D01*
X155205906Y-42422352D01*
X155118429Y-42445792D01*
X155017070Y-42504311D01*
X154934311Y-42587070D01*
X154875792Y-42688429D01*
X154852352Y-42775905D01*
X154237730Y-42161282D01*
X154237729Y-42161283D01*
X154210643Y-42198564D01*
X154120457Y-42375562D01*
X154059075Y-42564476D01*
X154059075Y-42564479D01*
X154028000Y-42760678D01*
X141062500Y-42760678D01*
X141062500Y-42760274D01*
X141023591Y-42564670D01*
X141023590Y-42564669D01*
X141023590Y-42564665D01*
X141023512Y-42564476D01*
X140947269Y-42380407D01*
X140947262Y-42380394D01*
X140836460Y-42214569D01*
X140836457Y-42214565D01*
X140695434Y-42073542D01*
X140695430Y-42073539D01*
X140529602Y-41962735D01*
X140529596Y-41962732D01*
X140345339Y-41886411D01*
X140345329Y-41886408D01*
X140149725Y-41847500D01*
X140149723Y-41847500D01*
X139950277Y-41847500D01*
X139950275Y-41847500D01*
X139754670Y-41886408D01*
X139754660Y-41886411D01*
X139570407Y-41962730D01*
X139570394Y-41962737D01*
X139404569Y-42073539D01*
X139404565Y-42073542D01*
X139263542Y-42214565D01*
X139263539Y-42214569D01*
X139152737Y-42380394D01*
X139152730Y-42380407D01*
X139076411Y-42564660D01*
X139076408Y-42564670D01*
X139037500Y-42760274D01*
X139037500Y-42760277D01*
X139037500Y-42959723D01*
X139037500Y-42959725D01*
X139037499Y-42959725D01*
X131160500Y-42959725D01*
X131160500Y-42325326D01*
X131160500Y-42325323D01*
X131160499Y-42325321D01*
X131145967Y-42252264D01*
X131145966Y-42252260D01*
X131123782Y-42219059D01*
X131090601Y-42169399D01*
X131007740Y-42114034D01*
X131007739Y-42114033D01*
X131007735Y-42114032D01*
X130934677Y-42099500D01*
X130934674Y-42099500D01*
X129285326Y-42099500D01*
X129285323Y-42099500D01*
X129212264Y-42114032D01*
X129212260Y-42114033D01*
X129129399Y-42169399D01*
X129074033Y-42252260D01*
X129074032Y-42252264D01*
X129059500Y-42325321D01*
X128266632Y-42325321D01*
X128135339Y-42237595D01*
X128107598Y-42219059D01*
X128096758Y-42214569D01*
X127916420Y-42139870D01*
X127916412Y-42139868D01*
X127713469Y-42099500D01*
X127713465Y-42099500D01*
X127506535Y-42099500D01*
X127506530Y-42099500D01*
X127303587Y-42139868D01*
X127303579Y-42139870D01*
X127112403Y-42219058D01*
X126940342Y-42334024D01*
X126794025Y-42480341D01*
X126794019Y-42480349D01*
X126713102Y-42601451D01*
X126659490Y-42646257D01*
X126590165Y-42654964D01*
X126527138Y-42624810D01*
X126506898Y-42601451D01*
X126425980Y-42480349D01*
X126425974Y-42480341D01*
X126279657Y-42334024D01*
X126135339Y-42237595D01*
X126107598Y-42219059D01*
X126096758Y-42214569D01*
X125916420Y-42139870D01*
X125916412Y-42139868D01*
X125713469Y-42099500D01*
X125713465Y-42099500D01*
X125506535Y-42099500D01*
X125506530Y-42099500D01*
X125303587Y-42139868D01*
X125303579Y-42139870D01*
X125112403Y-42219058D01*
X124940342Y-42334024D01*
X124794024Y-42480342D01*
X124679057Y-42652403D01*
X124603789Y-42834118D01*
X124559948Y-42888521D01*
X124493654Y-42910586D01*
X124425954Y-42893307D01*
X124378344Y-42842169D01*
X124371297Y-42824984D01*
X124314755Y-42650968D01*
X124221859Y-42468650D01*
X124189474Y-42424077D01*
X124189474Y-42424076D01*
X123560302Y-43053249D01*
X123538651Y-42972447D01*
X123478091Y-42867554D01*
X123392446Y-42781909D01*
X123287553Y-42721349D01*
X123206748Y-42699697D01*
X123835922Y-42070524D01*
X123835921Y-42070523D01*
X123791359Y-42038147D01*
X123791350Y-42038141D01*
X123609031Y-41945244D01*
X123414417Y-41882009D01*
X123212317Y-41850000D01*
X123007683Y-41850000D01*
X122805582Y-41882009D01*
X122610968Y-41945244D01*
X122428644Y-42038143D01*
X122384077Y-42070523D01*
X122384077Y-42070524D01*
X123013250Y-42699697D01*
X122932447Y-42721349D01*
X122827554Y-42781909D01*
X122741909Y-42867554D01*
X122681349Y-42972447D01*
X122659697Y-43053250D01*
X122030524Y-42424077D01*
X122030523Y-42424077D01*
X121998143Y-42468644D01*
X121905244Y-42650968D01*
X121842009Y-42845582D01*
X121810000Y-43047682D01*
X111570500Y-43047682D01*
X111570500Y-40308905D01*
X118040000Y-40308905D01*
X118040000Y-40571094D01*
X118074220Y-40831009D01*
X118074222Y-40831020D01*
X118142075Y-41084255D01*
X118242404Y-41326471D01*
X118242409Y-41326482D01*
X118373488Y-41553516D01*
X118373494Y-41553524D01*
X118460080Y-41666365D01*
X119067912Y-41058532D01*
X119162829Y-41189175D01*
X119290825Y-41317171D01*
X119421465Y-41412086D01*
X118813633Y-42019917D01*
X118813633Y-42019918D01*
X118926475Y-42106505D01*
X118926483Y-42106511D01*
X119153517Y-42237590D01*
X119153528Y-42237595D01*
X119395744Y-42337924D01*
X119648979Y-42405777D01*
X119648990Y-42405779D01*
X119908905Y-42439999D01*
X119908920Y-42440000D01*
X120171080Y-42440000D01*
X120171094Y-42439999D01*
X120431009Y-42405779D01*
X120431020Y-42405777D01*
X120684255Y-42337924D01*
X120926471Y-42237595D01*
X120926482Y-42237590D01*
X121153516Y-42106511D01*
X121153534Y-42106499D01*
X121266365Y-42019920D01*
X121266365Y-42019917D01*
X120658534Y-41412086D01*
X120789175Y-41317171D01*
X120917171Y-41189175D01*
X121012086Y-41058534D01*
X121619917Y-41666365D01*
X121619919Y-41666365D01*
X121706499Y-41553534D01*
X121706511Y-41553516D01*
X121837590Y-41326482D01*
X121837595Y-41326471D01*
X121937924Y-41084255D01*
X122005777Y-40831020D01*
X122005779Y-40831009D01*
X122039999Y-40571094D01*
X122040000Y-40571080D01*
X122040000Y-40308919D01*
X122039999Y-40308905D01*
X131180000Y-40308905D01*
X131180000Y-40571094D01*
X131214220Y-40831009D01*
X131214222Y-40831020D01*
X131282075Y-41084255D01*
X131382404Y-41326471D01*
X131382409Y-41326482D01*
X131513488Y-41553516D01*
X131513494Y-41553524D01*
X131600080Y-41666365D01*
X132207912Y-41058532D01*
X132302829Y-41189175D01*
X132430825Y-41317171D01*
X132561465Y-41412086D01*
X131953633Y-42019917D01*
X131953633Y-42019918D01*
X132066475Y-42106505D01*
X132066483Y-42106511D01*
X132293517Y-42237590D01*
X132293528Y-42237595D01*
X132535744Y-42337924D01*
X132788979Y-42405777D01*
X132788990Y-42405779D01*
X133048905Y-42439999D01*
X133048920Y-42440000D01*
X133311080Y-42440000D01*
X133311094Y-42439999D01*
X133571009Y-42405779D01*
X133571020Y-42405777D01*
X133824255Y-42337924D01*
X134066471Y-42237595D01*
X134066482Y-42237590D01*
X134293516Y-42106511D01*
X134293534Y-42106499D01*
X134406365Y-42019919D01*
X134406365Y-42019917D01*
X133798534Y-41412086D01*
X133929175Y-41317171D01*
X134057171Y-41189175D01*
X134152086Y-41058534D01*
X134759917Y-41666365D01*
X134759919Y-41666365D01*
X134846499Y-41553534D01*
X134846511Y-41553516D01*
X134977590Y-41326482D01*
X134977595Y-41326471D01*
X135077924Y-41084255D01*
X135145777Y-40831020D01*
X135145779Y-40831009D01*
X135179999Y-40571094D01*
X135180000Y-40571080D01*
X135180000Y-40419725D01*
X139037499Y-40419725D01*
X139076408Y-40615329D01*
X139076411Y-40615339D01*
X139152730Y-40799592D01*
X139152737Y-40799605D01*
X139263539Y-40965430D01*
X139263542Y-40965434D01*
X139404565Y-41106457D01*
X139404569Y-41106460D01*
X139570394Y-41217262D01*
X139570407Y-41217269D01*
X139754660Y-41293588D01*
X139754665Y-41293590D01*
X139754669Y-41293590D01*
X139754670Y-41293591D01*
X139950274Y-41332500D01*
X139950277Y-41332500D01*
X140149725Y-41332500D01*
X140281324Y-41306322D01*
X140345335Y-41293590D01*
X140529599Y-41217266D01*
X140695431Y-41106460D01*
X140836460Y-40965431D01*
X140947266Y-40799599D01*
X141023590Y-40615335D01*
X141036322Y-40551324D01*
X141062500Y-40419725D01*
X154277499Y-40419725D01*
X154316408Y-40615329D01*
X154316411Y-40615339D01*
X154392730Y-40799592D01*
X154392737Y-40799605D01*
X154503539Y-40965430D01*
X154503542Y-40965434D01*
X154644565Y-41106457D01*
X154644569Y-41106460D01*
X154810394Y-41217262D01*
X154810407Y-41217269D01*
X154994660Y-41293588D01*
X154994665Y-41293590D01*
X154994669Y-41293590D01*
X154994670Y-41293591D01*
X155190274Y-41332500D01*
X155190277Y-41332500D01*
X155389725Y-41332500D01*
X155521324Y-41306322D01*
X155585335Y-41293590D01*
X155769599Y-41217266D01*
X155935431Y-41106460D01*
X156076460Y-40965431D01*
X156187266Y-40799599D01*
X156263590Y-40615335D01*
X156276322Y-40551324D01*
X156302500Y-40419725D01*
X156302500Y-40220274D01*
X156263591Y-40024670D01*
X156263590Y-40024669D01*
X156263590Y-40024665D01*
X156252774Y-39998553D01*
X156187269Y-39840407D01*
X156187262Y-39840394D01*
X156076460Y-39674569D01*
X156076457Y-39674565D01*
X155935434Y-39533542D01*
X155935430Y-39533539D01*
X155769605Y-39422737D01*
X155769592Y-39422730D01*
X155585339Y-39346411D01*
X155585329Y-39346408D01*
X155389725Y-39307500D01*
X155389723Y-39307500D01*
X155190277Y-39307500D01*
X155190275Y-39307500D01*
X154994670Y-39346408D01*
X154994660Y-39346411D01*
X154810407Y-39422730D01*
X154810394Y-39422737D01*
X154644569Y-39533539D01*
X154644565Y-39533542D01*
X154503542Y-39674565D01*
X154503539Y-39674569D01*
X154392737Y-39840394D01*
X154392730Y-39840407D01*
X154316411Y-40024660D01*
X154316408Y-40024670D01*
X154277500Y-40220274D01*
X154277500Y-40220277D01*
X154277500Y-40419723D01*
X154277500Y-40419725D01*
X154277499Y-40419725D01*
X141062500Y-40419725D01*
X141062500Y-40220274D01*
X141023591Y-40024670D01*
X141023590Y-40024669D01*
X141023590Y-40024665D01*
X141012774Y-39998553D01*
X140947269Y-39840407D01*
X140947262Y-39840394D01*
X140836460Y-39674569D01*
X140836457Y-39674565D01*
X140695434Y-39533542D01*
X140695430Y-39533539D01*
X140529605Y-39422737D01*
X140529592Y-39422730D01*
X140345339Y-39346411D01*
X140345329Y-39346408D01*
X140149725Y-39307500D01*
X140149723Y-39307500D01*
X139950277Y-39307500D01*
X139950275Y-39307500D01*
X139754670Y-39346408D01*
X139754660Y-39346411D01*
X139570407Y-39422730D01*
X139570394Y-39422737D01*
X139404569Y-39533539D01*
X139404565Y-39533542D01*
X139263542Y-39674565D01*
X139263539Y-39674569D01*
X139152737Y-39840394D01*
X139152730Y-39840407D01*
X139076411Y-40024660D01*
X139076408Y-40024670D01*
X139037500Y-40220274D01*
X139037500Y-40220277D01*
X139037500Y-40419723D01*
X139037500Y-40419725D01*
X139037499Y-40419725D01*
X135180000Y-40419725D01*
X135180000Y-40308919D01*
X135179998Y-40308902D01*
X135169660Y-40230370D01*
X135145779Y-40048990D01*
X135145777Y-40048979D01*
X135077924Y-39795744D01*
X134977595Y-39553528D01*
X134977590Y-39553517D01*
X134846511Y-39326483D01*
X134846505Y-39326475D01*
X134759918Y-39213633D01*
X134759917Y-39213633D01*
X134152085Y-39821465D01*
X134057171Y-39690825D01*
X133929175Y-39562829D01*
X133798532Y-39467912D01*
X134406365Y-38860080D01*
X134293524Y-38773494D01*
X134293516Y-38773488D01*
X134066482Y-38642409D01*
X134066471Y-38642404D01*
X133824255Y-38542075D01*
X133571020Y-38474222D01*
X133571009Y-38474220D01*
X133311094Y-38440000D01*
X133048905Y-38440000D01*
X132788990Y-38474220D01*
X132788979Y-38474222D01*
X132535744Y-38542075D01*
X132293528Y-38642404D01*
X132293517Y-38642409D01*
X132066471Y-38773496D01*
X131953633Y-38860079D01*
X131953633Y-38860080D01*
X132561466Y-39467913D01*
X132430825Y-39562829D01*
X132302829Y-39690825D01*
X132207913Y-39821466D01*
X131600080Y-39213633D01*
X131600079Y-39213633D01*
X131513496Y-39326471D01*
X131382409Y-39553517D01*
X131382404Y-39553528D01*
X131282075Y-39795744D01*
X131214222Y-40048979D01*
X131214220Y-40048990D01*
X131180000Y-40308905D01*
X122039999Y-40308905D01*
X122005779Y-40048990D01*
X122005777Y-40048979D01*
X121937924Y-39795744D01*
X121837595Y-39553528D01*
X121837590Y-39553517D01*
X121706511Y-39326483D01*
X121706505Y-39326475D01*
X121619918Y-39213633D01*
X121619917Y-39213633D01*
X121012085Y-39821465D01*
X120917171Y-39690825D01*
X120789175Y-39562829D01*
X120658532Y-39467912D01*
X121266365Y-38860080D01*
X121153524Y-38773494D01*
X121153516Y-38773488D01*
X120926482Y-38642409D01*
X120926471Y-38642404D01*
X120684255Y-38542075D01*
X120431020Y-38474222D01*
X120431009Y-38474220D01*
X120171094Y-38440000D01*
X119908905Y-38440000D01*
X119648990Y-38474220D01*
X119648979Y-38474222D01*
X119395744Y-38542075D01*
X119153528Y-38642404D01*
X119153517Y-38642409D01*
X118926471Y-38773496D01*
X118813633Y-38860079D01*
X118813633Y-38860080D01*
X119421466Y-39467913D01*
X119290825Y-39562829D01*
X119162829Y-39690825D01*
X119067913Y-39821466D01*
X118460080Y-39213633D01*
X118460079Y-39213633D01*
X118373496Y-39326471D01*
X118242409Y-39553517D01*
X118242404Y-39553528D01*
X118142075Y-39795744D01*
X118074222Y-40048979D01*
X118074220Y-40048990D01*
X118040000Y-40308905D01*
X111570500Y-40308905D01*
X111570500Y-35366544D01*
X111590185Y-35299505D01*
X111606819Y-35278863D01*
X112588863Y-34296819D01*
X112650186Y-34263334D01*
X112676544Y-34260500D01*
X133123456Y-34260500D01*
X133190495Y-34280185D01*
X133211137Y-34296819D01*
X136163181Y-37248863D01*
X136196666Y-37310186D01*
X136199500Y-37336544D01*
X136199500Y-37422475D01*
X136237016Y-37562485D01*
X136237017Y-37562488D01*
X136309488Y-37688011D01*
X136309490Y-37688013D01*
X136309491Y-37688015D01*
X136411985Y-37790509D01*
X136411986Y-37790510D01*
X136411988Y-37790511D01*
X136537511Y-37862982D01*
X136537512Y-37862982D01*
X136537515Y-37862984D01*
X136677525Y-37900500D01*
X136677528Y-37900500D01*
X136822472Y-37900500D01*
X136822475Y-37900500D01*
X136962485Y-37862984D01*
X137088015Y-37790509D01*
X137190509Y-37688015D01*
X137262984Y-37562485D01*
X137300500Y-37422475D01*
X137300500Y-37277525D01*
X137262984Y-37137515D01*
X137190509Y-37011985D01*
X137088015Y-36909491D01*
X137088013Y-36909490D01*
X137088011Y-36909488D01*
X136962488Y-36837017D01*
X136962489Y-36837017D01*
X136951006Y-36833940D01*
X136822475Y-36799500D01*
X136822472Y-36799500D01*
X136756544Y-36799500D01*
X136689505Y-36779815D01*
X136668863Y-36763181D01*
X134369395Y-34463713D01*
X162289500Y-34463713D01*
X162289500Y-34676286D01*
X162322753Y-34886239D01*
X162388444Y-35088414D01*
X162484951Y-35277820D01*
X162609890Y-35449786D01*
X162760213Y-35600109D01*
X162932179Y-35725048D01*
X162932181Y-35725049D01*
X162932184Y-35725051D01*
X163121588Y-35821557D01*
X163323757Y-35887246D01*
X163533713Y-35920500D01*
X163533714Y-35920500D01*
X163746286Y-35920500D01*
X163746287Y-35920500D01*
X163956243Y-35887246D01*
X164158412Y-35821557D01*
X164347816Y-35725051D01*
X164369789Y-35709086D01*
X164519786Y-35600109D01*
X164519788Y-35600106D01*
X164519792Y-35600104D01*
X164670104Y-35449792D01*
X164670106Y-35449788D01*
X164670109Y-35449786D01*
X164795048Y-35277820D01*
X164795047Y-35277820D01*
X164795051Y-35277816D01*
X164891557Y-35088412D01*
X164957246Y-34886243D01*
X164990500Y-34676287D01*
X164990500Y-34463713D01*
X164957246Y-34253757D01*
X164891557Y-34051588D01*
X164795051Y-33862184D01*
X164795049Y-33862181D01*
X164795048Y-33862179D01*
X164670109Y-33690213D01*
X164519786Y-33539890D01*
X164347820Y-33414951D01*
X164158414Y-33318444D01*
X164158413Y-33318443D01*
X164158412Y-33318443D01*
X163956243Y-33252754D01*
X163956241Y-33252753D01*
X163956240Y-33252753D01*
X163794957Y-33227208D01*
X163746287Y-33219500D01*
X163533713Y-33219500D01*
X163485042Y-33227208D01*
X163323760Y-33252753D01*
X163121585Y-33318444D01*
X162932179Y-33414951D01*
X162760213Y-33539890D01*
X162609890Y-33690213D01*
X162484951Y-33862179D01*
X162388444Y-34051585D01*
X162322753Y-34253760D01*
X162289500Y-34463713D01*
X134369395Y-34463713D01*
X133535213Y-33629531D01*
X133535208Y-33629527D01*
X133455290Y-33583387D01*
X133455289Y-33583386D01*
X133455288Y-33583386D01*
X133366144Y-33559500D01*
X112433856Y-33559500D01*
X112344712Y-33583386D01*
X112344709Y-33583387D01*
X112264791Y-33629527D01*
X112264786Y-33629531D01*
X110939531Y-34954786D01*
X110939527Y-34954791D01*
X110893387Y-35034709D01*
X110893386Y-35034712D01*
X110869500Y-35123856D01*
X110869500Y-52005500D01*
X110849815Y-52072539D01*
X110797011Y-52118294D01*
X110745500Y-52129500D01*
X110195323Y-52129500D01*
X110122264Y-52144032D01*
X110122260Y-52144033D01*
X110039399Y-52199399D01*
X109984033Y-52282260D01*
X109984032Y-52282264D01*
X109969500Y-52355321D01*
X99491373Y-52355321D01*
X99491373Y-34463713D01*
X100059500Y-34463713D01*
X100059500Y-34676286D01*
X100092753Y-34886239D01*
X100158444Y-35088414D01*
X100254951Y-35277820D01*
X100379890Y-35449786D01*
X100530213Y-35600109D01*
X100702179Y-35725048D01*
X100702181Y-35725049D01*
X100702184Y-35725051D01*
X100891588Y-35821557D01*
X101093757Y-35887246D01*
X101303713Y-35920500D01*
X101303714Y-35920500D01*
X101516286Y-35920500D01*
X101516287Y-35920500D01*
X101726243Y-35887246D01*
X101928412Y-35821557D01*
X102117816Y-35725051D01*
X102139789Y-35709086D01*
X102289786Y-35600109D01*
X102289788Y-35600106D01*
X102289792Y-35600104D01*
X102440104Y-35449792D01*
X102440106Y-35449788D01*
X102440109Y-35449786D01*
X102565048Y-35277820D01*
X102565047Y-35277820D01*
X102565051Y-35277816D01*
X102661557Y-35088412D01*
X102727246Y-34886243D01*
X102760500Y-34676287D01*
X102760500Y-34463713D01*
X102727246Y-34253757D01*
X102661557Y-34051588D01*
X102565051Y-33862184D01*
X102565049Y-33862181D01*
X102565048Y-33862179D01*
X102440109Y-33690213D01*
X102289786Y-33539890D01*
X102117820Y-33414951D01*
X101928414Y-33318444D01*
X101928413Y-33318443D01*
X101928412Y-33318443D01*
X101726243Y-33252754D01*
X101726241Y-33252753D01*
X101726240Y-33252753D01*
X101564957Y-33227208D01*
X101516287Y-33219500D01*
X101303713Y-33219500D01*
X101255042Y-33227208D01*
X101093760Y-33252753D01*
X100891585Y-33318444D01*
X100702179Y-33414951D01*
X100530213Y-33539890D01*
X100379890Y-33690213D01*
X100254951Y-33862179D01*
X100158444Y-34051585D01*
X100092753Y-34253760D01*
X100059500Y-34463713D01*
X99491373Y-34463713D01*
X99491373Y-33009232D01*
X99511058Y-32942193D01*
X99563862Y-32896438D01*
X99615391Y-32885232D01*
X165358171Y-32895354D01*
G37*
%TD.AperFunction*%
%TD*%
M02*
