%TF.GenerationSoftware,KiCad,Pcbnew,9.0.5*%
%TF.CreationDate,2026-02-25T17:52:12-08:00*%
%TF.ProjectId,kvm,6b766d2e-6b69-4636-9164-5f7063625858,rev?*%
%TF.SameCoordinates,Original*%
%TF.FileFunction,Soldermask,Bot*%
%TF.FilePolarity,Negative*%
%FSLAX46Y46*%
G04 Gerber Fmt 4.6, Leading zero omitted, Abs format (unit mm)*
G04 Created by KiCad (PCBNEW 9.0.5) date 2026-02-25 17:52:12*
%MOMM*%
%LPD*%
G01*
G04 APERTURE LIST*
%ADD10C,2.200000*%
%ADD11R,1.600000X1.600000*%
%ADD12C,1.600000*%
%ADD13C,3.000000*%
%ADD14R,2.000000X2.000000*%
%ADD15C,2.000000*%
%ADD16C,1.524000*%
%ADD17R,1.700000X1.700000*%
%ADD18C,1.700000*%
G04 APERTURE END LIST*
D10*
%TO.C,REF\u002A\u002A*%
X163640000Y-34570000D03*
%TD*%
D11*
%TO.C,USB2*%
X148220000Y-81715000D03*
D12*
X150720000Y-81715000D03*
X152720000Y-81715000D03*
X155220000Y-81715000D03*
D13*
X145150000Y-84425000D03*
X158290000Y-84425000D03*
%TD*%
D10*
%TO.C,REF\u002A\u002A*%
X101410000Y-34570000D03*
%TD*%
%TO.C,REF\u002A\u002A*%
X101410000Y-90000000D03*
%TD*%
D14*
%TO.C,BZ1*%
X111220000Y-53380000D03*
D15*
X118820000Y-53380000D03*
%TD*%
D13*
%TO.C,USB3*%
X119650000Y-84425000D03*
X106510000Y-84425000D03*
D12*
X116580000Y-81715000D03*
X114080000Y-81715000D03*
X112080000Y-81715000D03*
D11*
X109580000Y-81715000D03*
%TD*%
D16*
%TO.C,M1*%
X140050000Y-40320000D03*
X140050000Y-42860000D03*
X140050000Y-45400000D03*
X140050000Y-47940000D03*
X140050000Y-50480000D03*
X140050000Y-53020000D03*
X140050000Y-55560000D03*
X155290000Y-55560000D03*
X155290000Y-53020000D03*
X155290000Y-50480000D03*
X155290000Y-47940000D03*
X155290000Y-45400000D03*
X155290000Y-42860000D03*
X155290000Y-40320000D03*
%TD*%
D17*
%TO.C,J1*%
X163440000Y-42870000D03*
D18*
X163440000Y-45410000D03*
X163440000Y-47950000D03*
X163440000Y-50490000D03*
X163440000Y-53030000D03*
X163440000Y-55570000D03*
%TD*%
D11*
%TO.C,USB1*%
X130110000Y-43150000D03*
D12*
X127610000Y-43150000D03*
X125610000Y-43150000D03*
X123110000Y-43150000D03*
D13*
X133180000Y-40440000D03*
X120040000Y-40440000D03*
%TD*%
D10*
%TO.C,REF\u002A\u002A*%
X163640000Y-90000000D03*
%TD*%
M02*
